<?xml version="1.0" encoding="UTF-8"?>
<!DOCTYPE svg PUBLIC "-//W3C//DTD SVG 1.1//EN" "http://www.w3.org/Graphics/SVG/1.1/DTD/svg11.dtd">
<!-- Creator: CorelDRAW 2020 (64-Bit) -->
<svg xmlns="http://www.w3.org/2000/svg" xml:space="preserve" width="616px" height="241px" version="1.1" style="shape-rendering:geometricPrecision; text-rendering:geometricPrecision; image-rendering:optimizeQuality; fill-rule:evenodd; clip-rule:evenodd"
viewBox="0 0 171160 67000"
 xmlns:xlink="http://www.w3.org/1999/xlink"
 xmlns:xodm="http://www.corel.com/coreldraw/odm/2003">
 <defs>
  <style type="text/css">
   <![CDATA[
    .fil3 {fill:none}
    .fil2 {fill:#B154EA}
    .fil0 {fill:#CD82FD}
    .fil1 {fill:#EACAFC}
    .fil4 {fill:#FDFDFD}
   ]]>
  </style>
   <clipPath id="id0">
    <path d="M171160 0l-171160 0 0 67000 171160 0 0 -67000z"/>
   </clipPath>
 </defs>
 <g id="Layer_x0020_1">
  <metadata id="CorelCorpID_0Corel-Layer"/>
  <polygon class="fil0" points="171160,0 0,0 0,67000 171160,67000 "/>
  <g style="clip-path:url(#id0)">
   <g id="_1311117040">
    <path id="1" class="fil1" d="M154490 21090c6360,0 12180,2320 16670,6150l0 8640c-3560,-5440 -9690,-9030 -16670,-9030 -10990,0 -19900,8900 -19900,19890 0,10990 8910,19900 19900,19900 6980,0 13110,-3600 16670,-9040l0 8640c-310,260 -620,520 -940,760l-31470 0c-6040,-4690 -9920,-12020 -9920,-20260 0,-14170 11490,-25650 25660,-25650z"/>
    <path class="fil1" d="M139490 67000l11360 0c110,-250 200,-500 280,-760 200,260 410,520 630,760l19400 0 0 -24340c-3660,460 -6020,2630 -6750,6730 -1480,-820 -3170,-1290 -4960,-1290 -5780,0 -10490,4860 -10630,10910 -1020,-780 -2280,-1240 -3650,-1240 -3440,0 -6230,2930 -6230,6550 0,950 200,1860 550,2680z"/>
    <path class="fil2" d="M95640 66820l48540 0c9260,1150 14040,-10610 -510,-12120 -880,-15840 -15030,-13240 -17870,-7700 -2120,-13140 -29290,-15550 -27160,7870 -3250,60 -5580,2080 -6210,4810 -1020,4450 2620,6430 3210,7140z"/>
    <path class="fil2" d="M154490 7470c5960,0 11600,1340 16670,3710l0 7700c-4880,-2920 -10580,-4600 -16670,-4600 -17930,0 -32460,14530 -32460,32460 0,7670 2650,14710 7100,20260l-8290 0c-3570,-5910 -5620,-12850 -5620,-20260 0,-21680 17580,-39270 39270,-39270z"/>
   </g>
  </g>
  <polygon class="fil3" points="171160,0 0,0 0,67000 171160,67000 "/>
  <path class="fil4" d="M145750 22420c630,850 190,1310 1090,2170l260 -330c520,-840 550,-1840 890,-2300 720,-940 1390,-210 1920,-1470 -1280,-910 -1860,-210 -2270,-2210l-800 -1540c-780,590 -550,1560 -1100,2450 -710,1140 -1440,420 -2020,1690 1050,540 1810,460 2030,1540z"/>
  <path class="fil4" d="M129310 28070c560,1400 520,2330 1450,3130 860,-820 500,-480 1080,-1910 1070,-4410 1660,-1820 3700,-4100 -1400,-2460 -2270,690 -3740,-4310 -510,-1740 -570,-1480 -1040,-1890 -1250,1270 -920,2540 -1590,3770 -990,1820 -2110,720 -3180,2430 1580,1740 2440,270 3320,2880z"/>
  <path class="fil4" d="M135940 13120c400,540 120,820 680,1360l160 -210c330,-520 350,-1150 560,-1430 450,-590 870,-140 1200,-930 -800,-570 -1160,-120 -1410,-1370l-510 -970c-490,370 -340,980 -690,1530 -440,720 -900,270 -1260,1060 660,330 1130,290 1270,960z"/>
 </g>
</svg>
