<svg version="1.1" id="Layer_1" xmlns="http://www.w3.org/2000/svg" xmlns:xlink="http://www.w3.org/1999/xlink" x="0px" y="0px"
	 width="100%" viewBox="0 0 512 512" enable-background="new 0 0 512 512" xml:space="preserve">
<path fill="#010101" opacity="0" stroke="none"
	d="
M282.000000,513.000000
	C188.022812,513.000000 94.545624,513.000000 1.034216,513.000000
	C1.034216,342.397797 1.034216,171.795563 1.034216,1.096670
	C171.560532,1.096670 342.121155,1.096670 512.840881,1.096670
	C512.840881,171.666550 512.840881,342.333252 512.840881,513.000000
	C436.128876,513.000000 359.314423,513.000000 282.000000,513.000000
M102.071548,327.059814
	C91.665810,327.059814 81.260078,327.059814 70.610199,327.059814
	C70.610199,349.218445 70.523521,370.671478 70.667038,392.122955
	C70.706223,397.979980 69.782913,402.831177 63.158306,404.019440
	C63.158306,410.731873 63.158306,417.033203 63.158306,423.543915
	C69.270195,424.497559 70.705048,428.634796 70.643814,434.032898
	C70.527512,444.285095 70.610123,454.539581 70.610123,465.013885
	C81.817139,465.013885 92.417908,465.013885 103.934669,465.207001
	C109.194817,465.207001 114.454956,465.207001 119.752121,465.207001
	C119.752121,418.853302 119.752121,373.083649 119.752121,327.203156
	C113.924171,327.203156 108.461502,327.203156 102.071548,327.059814
M265.917206,465.217865
	C271.161560,465.217865 276.405945,465.217865 281.607910,465.217865
	C281.607910,392.540894 281.607910,320.624115 281.607910,248.488724
	C275.862854,248.488724 270.410065,248.488724 264.046936,248.282990
	C253.466156,248.282990 242.885391,248.282990 232.103195,248.282990
	C232.103195,261.848236 232.110657,274.664001 232.100311,287.479736
	C232.094391,294.827209 231.094543,296.211029 224.107605,298.610107
	C224.107605,304.894745 224.107605,311.205658 224.107605,317.482239
	C231.055542,319.680359 232.099731,321.127594 232.100662,328.616333
	C232.106094,372.245697 232.103531,415.875092 232.103653,459.504456
	C232.103653,461.285278 232.103653,463.066071 232.103653,465.008331
	C243.434433,465.008331 254.217743,465.008331 265.917206,465.217865
M426.067963,177.858429
	C415.471283,177.858429 404.874634,177.858429 394.231445,177.858429
	C394.231445,273.908997 394.231445,369.489075 394.231445,464.990540
	C405.387787,464.990540 416.189087,464.990540 427.907135,465.205902
	C433.004883,465.205902 438.102631,465.205902 443.396912,465.205902
	C443.396912,462.329926 443.396912,460.172455 443.396912,458.014984
	C443.396912,383.018311 443.395325,308.021606 443.399445,233.024933
	C443.399872,225.176376 444.296600,223.771469 450.861938,221.287796
	C450.861938,215.025665 450.861938,208.709869 450.861938,202.056137
	C444.154358,200.832825 443.067841,195.958786 443.359802,190.087952
	C443.555511,186.152191 443.397003,182.198837 443.397003,178.054306
	C437.559662,178.054306 432.272675,178.054306 426.067963,177.858429
M306.500000,497.801636
	C370.241028,497.801636 433.982086,497.801636 497.641907,497.801636
	C497.641907,491.545593 497.641907,486.132294 497.641907,480.687195
	C336.945679,480.687195 176.596939,480.687195 16.315865,480.687195
	C16.315865,486.535370 16.315865,491.954224 16.315865,497.801483
	C112.933388,497.801483 209.216690,497.801483 306.500000,497.801636
M396.344116,42.849216
	C408.406433,31.965782 424.754791,30.633739 437.063080,39.596996
	C443.188934,44.057991 447.348633,49.913467 449.237671,57.318569
	C451.971130,68.033905 449.306030,77.613556 443.260956,85.564934
	C451.724640,91.115189 459.833954,96.433022 467.939117,101.748154
	C482.245972,79.948784 476.900543,48.251740 455.495331,29.903934
	C434.076965,11.544829 401.256378,12.022743 380.529541,30.995497
	C360.126190,49.672096 355.248108,81.716370 369.373901,101.663483
	C377.514374,96.344872 385.638000,91.037262 393.812988,85.696083
	C384.143219,67.388138 384.595581,56.118172 396.344116,42.849216
M237.157394,90.607155
	C197.484177,105.762581 192.179916,151.431595 208.364700,172.603958
	C212.181335,169.665283 215.832458,166.474335 219.858047,163.859940
	C223.988388,161.177505 228.484863,159.058807 232.830902,156.688065
	C221.972000,141.144318 222.980423,124.484108 235.410583,112.806396
	C246.784317,102.121170 264.357697,101.366425 276.571930,111.067749
	C282.519684,115.791809 286.359253,121.870575 287.987732,129.300278
	C290.229218,139.527023 287.360291,148.559158 281.595337,156.138443
	C289.936249,161.613144 298.047424,166.937057 306.407959,172.424622
	C310.860901,165.308136 313.505432,156.988190 313.947845,148.095627
	C316.027496,106.291763 278.036804,77.464012 237.157394,90.607155
M61.441788,176.914001
	C37.719898,194.674789 30.924280,228.598251 46.047886,251.036453
	C54.289490,245.638016 62.519478,240.247192 70.724854,234.872482
	C58.218338,218.065903 64.096237,199.920410 74.305008,190.953918
	C85.872162,180.794312 103.135185,180.255280 115.174545,189.887421
	C128.859222,200.835907 130.485840,217.064468 120.074791,234.922836
	C128.338303,240.323135 136.568237,245.701477 144.780960,251.068573
	C158.088455,228.690140 153.834717,199.296173 134.570633,181.254257
	C114.517914,162.473755 85.286385,160.544159 61.441788,176.914001
M133.296310,262.456390
	C108.785194,237.484955 71.726639,244.415009 56.577236,264.116394
	C76.103981,284.019104 111.896370,284.967773 132.313248,266.062408
	C133.098297,265.335480 133.333633,264.014954 133.296310,262.456390
M382.692719,117.680130
	C406.816284,137.223663 440.225616,132.666824 457.663147,114.613098
	C438.120972,91.308609 397.381378,91.370308 379.620026,114.853119
	C380.451019,115.624931 381.293457,116.407410 382.692719,117.680130
M285.429230,176.021851
	C262.626892,162.240646 232.202240,166.474335 218.050598,185.397812
	C238.946823,206.231018 275.792847,206.198029 296.450531,184.794098
	C292.950897,181.976761 289.495422,179.194992 285.429230,176.021851
M273.760315,134.724792
	C273.487061,133.422455 273.320129,132.086731 272.923431,130.823135
	C270.234131,122.257011 260.940094,117.415047 252.188934,119.977417
	C243.684189,122.467628 238.644348,131.320724 240.821823,139.945114
	C242.788696,147.735352 249.977753,153.157288 257.731476,152.698273
	C266.787354,152.162170 272.774567,145.772598 273.760315,134.724792
M410.569214,50.767666
	C402.324707,56.271660 399.679443,64.620270 403.629913,72.668533
	C407.250336,80.044289 415.555450,83.690796 423.314728,81.311478
	C432.583191,78.469383 437.545746,68.955292 434.441681,59.979221
	C431.145996,50.448986 421.632904,46.496525 410.569214,50.767666
M111.027245,208.829544
	C106.737427,200.045914 99.082024,196.160461 90.844017,198.585648
	C81.779243,201.254242 76.676598,210.420425 79.282310,219.354630
	C81.774651,227.900116 91.111565,233.105896 99.794083,230.790924
	C108.824120,228.383301 113.641212,219.479828 111.027245,208.829544
z"/>
<path fill="#A2F5C3" opacity="1.000000" stroke="none"
	d="
M426.990387,464.990540
	C416.189087,464.990540 405.387787,464.990540 394.231445,464.990540
	C394.231445,369.489075 394.231445,273.908997 394.231445,177.858429
	C404.874634,177.858429 415.471283,177.858429 426.527985,178.421494
	C426.988800,274.319885 426.989594,369.655212 426.990387,464.990540
z"/>
<path fill="#3E6DC1" opacity="1.000000" stroke="none"
	d="
M306.000000,497.801575
	C209.216690,497.801483 112.933388,497.801483 16.315865,497.801483
	C16.315865,491.954224 16.315865,486.535370 16.315865,480.687195
	C176.596939,480.687195 336.945679,480.687195 497.641907,480.687195
	C497.641907,486.132294 497.641907,491.545593 497.641907,497.801636
	C433.982086,497.801636 370.241028,497.801636 306.000000,497.801575
z"/>
<path fill="#F6E265" opacity="1.000000" stroke="none"
	d="
M265.001068,465.008331
	C254.217743,465.008331 243.434433,465.008331 232.103653,465.008331
	C232.103653,463.066071 232.103653,461.285278 232.103653,459.504456
	C232.103531,415.875092 232.106094,372.245697 232.100662,328.616333
	C232.099731,321.127594 231.055542,319.680359 224.107605,317.482239
	C224.107605,311.205658 224.107605,304.894745 224.107605,298.610107
	C231.094543,296.211029 232.094391,294.827209 232.100311,287.479736
	C232.110657,274.664001 232.103195,261.848236 232.103195,248.282990
	C242.885391,248.282990 253.466156,248.282990 264.508636,248.822723
	C264.980591,321.244415 264.990845,393.126373 265.001068,465.008331
z"/>
<path fill="#88F2A9" opacity="1.000000" stroke="none"
	d="
M427.448761,465.098206
	C426.989594,369.655212 426.988800,274.319885 426.986816,178.519440
	C432.272675,178.054306 437.559662,178.054306 443.397003,178.054306
	C443.397003,182.198837 443.555511,186.152191 443.359802,190.087952
	C443.067841,195.958786 444.154358,200.832825 450.861938,202.056137
	C450.861938,208.709869 450.861938,215.025665 450.861938,221.287796
	C444.296600,223.771469 443.399872,225.176376 443.399445,233.024933
	C443.395325,308.021606 443.396912,383.018311 443.396912,458.014984
	C443.396912,460.172455 443.396912,462.329926 443.396912,465.205902
	C438.102631,465.205902 433.004883,465.205902 427.448761,465.098206
z"/>
<path fill="#E175A5" opacity="1.000000" stroke="none"
	d="
M103.018677,465.013885
	C92.417908,465.013885 81.817139,465.013885 70.610123,465.013885
	C70.610123,454.539581 70.527512,444.285095 70.643814,434.032898
	C70.705048,428.634796 69.270195,424.497559 63.158306,423.543915
	C63.158306,417.033203 63.158306,410.731873 63.158306,404.019440
	C69.782913,402.831177 70.706223,397.979980 70.667038,392.122955
	C70.523521,370.671478 70.610199,349.218445 70.610199,327.059814
	C81.260078,327.059814 91.665810,327.059814 102.537598,327.586853
	C103.008652,373.747223 103.013664,419.380554 103.018677,465.013885
z"/>
<path fill="#A0F2C1" opacity="1.000000" stroke="none"
	d="
M396.092102,43.102802
	C384.595581,56.118172 384.143219,67.388138 393.812988,85.696083
	C385.638000,91.037262 377.514374,96.344872 369.373901,101.663483
	C355.248108,81.716370 360.126190,49.672096 380.529541,30.995497
	C401.256378,12.022743 434.076965,11.544829 455.495331,29.903934
	C476.900543,48.251740 482.245972,79.948784 467.939117,101.748154
	C459.833954,96.433022 451.724640,91.115189 443.260956,85.564934
	C449.306030,77.613556 451.971130,68.033905 449.237671,57.318569
	C447.348633,49.913467 443.188934,44.057991 437.063080,39.596996
	C424.754791,30.633739 408.406433,31.965782 396.092102,43.102802
z"/>
<path fill="#F4E064" opacity="1.000000" stroke="none"
	d="
M237.511505,90.431137
	C278.036804,77.464012 316.027496,106.291763 313.947845,148.095627
	C313.505432,156.988190 310.860901,165.308136 306.407959,172.424622
	C298.047424,166.937057 289.936249,161.613144 281.595337,156.138443
	C287.360291,148.559158 290.229218,139.527023 287.987732,129.300278
	C286.359253,121.870575 282.519684,115.791809 276.571930,111.067749
	C264.357697,101.366425 246.784317,102.121170 235.410583,112.806396
	C222.980423,124.484108 221.972000,141.144318 232.830902,156.688065
	C228.484863,159.058807 223.988388,161.177505 219.858047,163.859940
	C215.832458,166.474335 212.181335,169.665283 208.364700,172.603958
	C192.179916,151.431595 197.484177,105.762581 237.511505,90.431137
z"/>
<path fill="#DE74A3" opacity="1.000000" stroke="none"
	d="
M61.719322,176.688812
	C85.286385,160.544159 114.517914,162.473755 134.570633,181.254257
	C153.834717,199.296173 158.088455,228.690140 144.780960,251.068573
	C136.568237,245.701477 128.338303,240.323135 120.074791,234.922836
	C130.485840,217.064468 128.859222,200.835907 115.174545,189.887421
	C103.135185,180.255280 85.872162,180.794312 74.305008,190.953918
	C64.096237,199.920410 58.218338,218.065903 70.724854,234.872482
	C62.519478,240.247192 54.289490,245.638016 46.047886,251.036453
	C30.924280,228.598251 37.719898,194.674789 61.719322,176.688812
z"/>
<path fill="#EFD032" opacity="1.000000" stroke="none"
	d="
M265.459137,465.113098
	C264.990845,393.126373 264.980591,321.244415 264.963806,248.925598
	C270.410065,248.488724 275.862854,248.488724 281.607910,248.488724
	C281.607910,320.624115 281.607910,392.540894 281.607910,465.217865
	C276.405945,465.217865 271.161560,465.217865 265.459137,465.113098
z"/>
<path fill="#DE5891" opacity="1.000000" stroke="none"
	d="
M103.476669,465.110443
	C103.013664,419.380554 103.008652,373.747223 103.001236,327.658508
	C108.461502,327.203156 113.924171,327.203156 119.752121,327.203156
	C119.752121,373.083649 119.752121,418.853302 119.752121,465.207001
	C114.454956,465.207001 109.194817,465.207001 103.476669,465.110443
z"/>
<path fill="#DAE8FA" opacity="1.000000" stroke="none"
	d="
M133.560699,262.713684
	C133.333633,264.014954 133.098297,265.335480 132.313248,266.062408
	C111.896370,284.967773 76.103981,284.019104 56.577236,264.116394
	C71.726639,244.415009 108.785194,237.484955 133.560699,262.713684
z"/>
<path fill="#DAE8FA" opacity="1.000000" stroke="none"
	d="
M382.414307,117.435013
	C381.293457,116.407410 380.451019,115.624931 379.620026,114.853119
	C397.381378,91.370308 438.120972,91.308609 457.663147,114.613098
	C440.225616,132.666824 406.816284,137.223663 382.414307,117.435013
z"/>
<path fill="#DAE8FA" opacity="1.000000" stroke="none"
	d="
M285.734619,176.217529
	C289.495422,179.194992 292.950897,181.976761 296.450531,184.794098
	C275.792847,206.198029 238.946823,206.231018 218.050598,185.397812
	C232.202240,166.474335 262.626892,162.240646 285.734619,176.217529
z"/>
<path fill="#DAE7F9" opacity="1.000000" stroke="none"
	d="
M273.783173,135.134109
	C272.774567,145.772598 266.787354,152.162170 257.731476,152.698273
	C249.977753,153.157288 242.788696,147.735352 240.821823,139.945114
	C238.644348,131.320724 243.684189,122.467628 252.188934,119.977417
	C260.940094,117.415047 270.234131,122.257011 272.923431,130.823135
	C273.320129,132.086731 273.487061,133.422455 273.783173,135.134109
z"/>
<path fill="#DAE8FA" opacity="1.000000" stroke="none"
	d="
M410.892822,50.548660
	C421.632904,46.496525 431.145996,50.448986 434.441681,59.979221
	C437.545746,68.955292 432.583191,78.469383 423.314728,81.311478
	C415.555450,83.690796 407.250336,80.044289 403.629913,72.668533
	C399.679443,64.620270 402.324707,56.271660 410.892822,50.548660
z"/>
<path fill="#DAE8FA" opacity="1.000000" stroke="none"
	d="
M111.140884,209.219025
	C113.641212,219.479828 108.824120,228.383301 99.794083,230.790924
	C91.111565,233.105896 81.774651,227.900116 79.282310,219.354630
	C76.676598,210.420425 81.779243,201.254242 90.844017,198.585648
	C99.082024,196.160461 106.737427,200.045914 111.140884,209.219025
z"/>
</svg>
