<?xml version="1.0" encoding="UTF-8"?>
<svg version="1.1" xmlns="http://www.w3.org/2000/svg" width="512" height="512">
<path d="M0 0 C16.23329263 13.9686481 16.23329263 13.9686481 21.28125 21.890625 C21.28125 22.550625 21.28125 23.210625 21.28125 23.890625 C22.29832031 23.03791016 22.29832031 23.03791016 23.3359375 22.16796875 C46.85707982 2.65389084 68.72040398 -4.8848506 99.28125 -3.109375 C104.83941781 -2.4282682 109.99516041 -0.96254434 115.28125 0.890625 C116.34085937 1.25285156 117.40046875 1.61507812 118.4921875 1.98828125 C138.61821442 9.61961537 155.224481 25.56543969 164.31079102 44.96606445 C174.4728265 67.90510396 174.92310428 92.57223862 165.95092773 115.95410156 C158.47930685 133.96726736 143.93564734 150.32378898 126.28125 158.890625 C125.27666748 159.14948486 124.27208496 159.40834473 123.23706055 159.67504883 C118.32924602 161.1898064 114.66985604 162.5583753 112.00250244 167.0383606 C109.00984723 173.68684622 107.08619155 180.70573883 105.09375 187.703125 C104.14262002 190.86579425 103.17756631 194.02386716 102.20768738 197.18083191 C101.61140322 199.13971591 101.02886846 201.10284756 100.46138 203.07026672 C100.20317978 203.95175888 99.94497955 204.83325104 99.67895508 205.74145508 C99.45613358 206.5205574 99.23331207 207.29965973 99.0037384 208.10237122 C98.28125 209.890625 98.28125 209.890625 96.28125 210.890625 C94.28354719 205.08954498 92.2898181 199.28712075 90.29980469 193.48339844 C89.62186755 191.50808591 88.94283445 189.53314917 88.26269531 187.55859375 C87.28684643 184.72493343 86.3149109 181.88995737 85.34375 179.0546875 C85.03751709 178.16818512 84.73128418 177.28168274 84.41577148 176.36831665 C84.13548096 175.54761688 83.85519043 174.72691711 83.56640625 173.88134766 C83.19334351 172.7954686 83.19334351 172.7954686 82.81274414 171.68765259 C82.28125 169.890625 82.28125 169.890625 82.28125 167.890625 C81.5284375 167.87644531 80.775625 167.86226562 80 167.84765625 C61.71278936 167.02650723 45.00737858 159.52616231 30.28125 148.890625 C29.88035156 149.62925781 29.47945313 150.36789063 29.06640625 151.12890625 C12.59363009 180.52590135 -13.44303692 198.26955612 -45.265625 207.640625 C-48.84150403 208.60853211 -52.0316442 208.95983688 -55.71875 208.890625 C-55.87481216 209.74326431 -55.87481216 209.74326431 -56.0340271 210.61312866 C-57.41955215 217.87761462 -59.26261261 224.98129567 -61.1953125 232.1171875 C-61.69047867 233.96043106 -61.69047867 233.96043106 -62.19564819 235.84091187 C-63.06464843 239.0734816 -63.93638407 242.30528702 -64.80950928 245.53674316 C-65.70347519 248.84808359 -66.59375977 252.16041338 -67.484375 255.47265625 C-69.22581311 261.94621934 -70.9708704 268.41879834 -72.71875 274.890625 C-73.37875 274.890625 -74.03875 274.890625 -74.71875 274.890625 C-76.93971581 266.7294578 -79.15661864 258.5672026 -81.36832428 250.40352154 C-82.39540393 246.61294961 -83.42388582 242.82276978 -84.45556641 239.03344727 C-85.45089838 235.37742891 -86.44255453 231.72043187 -87.43165588 228.06272316 C-87.80991007 226.66650623 -88.1894937 225.27064877 -88.57041931 223.87515831 C-89.1031849 221.9225264 -89.63081401 219.96849521 -90.15820312 218.0144043 C-90.4602063 216.9018779 -90.76220947 215.7893515 -91.07336426 214.64311218 C-91.71875 211.890625 -91.71875 211.890625 -91.71875 208.890625 C-92.87375 208.82875 -94.02875 208.766875 -95.21875 208.703125 C-122.55105785 205.51009838 -149.27570668 188.32462509 -166.18115234 167.05029297 C-169.17507525 163.09363449 -171.97280592 159.02218359 -174.71875 154.890625 C-175.47777173 153.75384424 -176.23688214 152.6171227 -176.99609375 151.48046875 C-177.84880859 150.19849609 -177.84880859 150.19849609 -178.71875 148.890625 C-179.55792969 149.52677734 -179.55792969 149.52677734 -180.4140625 150.17578125 C-195.49704492 161.20915263 -211.01743958 167.02993634 -229.71875 167.890625 C-229.86932861 168.49108643 -230.01990723 169.09154785 -230.17504883 169.71020508 C-232.4670768 178.49373761 -235.422237 187.0126013 -238.40625 195.578125 C-238.92285479 197.06954763 -239.43913314 198.56108337 -239.95507812 200.05273438 C-241.20588198 203.66667754 -242.46107186 207.27906868 -243.71875 210.890625 C-245.71875 209.890625 -245.71875 209.890625 -246.42105103 208.11582947 C-246.63482391 207.34275955 -246.8485968 206.56968964 -247.06884766 205.77319336 C-247.31736481 204.89815659 -247.56588196 204.02311981 -247.82192993 203.12156677 C-248.08952118 202.16750443 -248.35711243 201.21344208 -248.6328125 200.23046875 C-249.23362492 198.2183964 -249.8379093 196.20735817 -250.4453125 194.19726562 C-251.39981684 191.02722678 -252.33564134 187.85763279 -253.21289062 184.6652832 C-256.33487097 171.64480952 -256.33487097 171.64480952 -264.61376953 161.78222656 C-268.49889766 159.65517925 -272.52396002 158.28570632 -276.71875 156.890625 C-290.21277758 149.8939161 -301.54132961 138.23170583 -308.71875 124.890625 C-309.40324219 123.68019531 -309.40324219 123.68019531 -310.1015625 122.4453125 C-321.01441352 102.12257797 -322.61549127 77.87566395 -316.1328125 55.90478516 C-308.90019761 33.82187072 -293.34367065 15.82718174 -272.78125 5.078125 C-251.84807545 -4.91323517 -226.73322206 -6.82709222 -204.71875 0.890625 C-203.65914063 1.25285156 -202.59953125 1.61507812 -201.5078125 1.98828125 C-190.39695941 6.20126539 -181.26864812 13.00293794 -172.6796875 21.10546875 C-170.83847201 22.94385284 -170.83847201 22.94385284 -168.71875 23.890625 C-168.45707031 23.31183594 -168.19539062 22.73304687 -167.92578125 22.13671875 C-164.80217816 16.32418874 -159.45674744 11.40825047 -154.71875 6.890625 C-154.04585937 6.23449219 -153.37296875 5.57835938 -152.6796875 4.90234375 C-111.49454868 -33.935108 -43.76476657 -35.14443376 0 0 Z " fill="#F8B938" transform="translate(329.71875,35.109375)"/>
<path d="M0 0 C1.05960937 0.36222656 2.11921875 0.72445312 3.2109375 1.09765625 C23.33696442 8.72899037 39.943231 24.67481469 49.02954102 44.07543945 C59.1915765 67.01447896 59.64185428 91.68161362 50.66967773 115.06347656 C43.19805685 133.07664236 28.65439734 149.43316398 11 158 C9.99541748 158.25885986 8.99083496 158.51771973 7.95581055 158.78442383 C3.04799602 160.2991814 -0.61139396 161.6677503 -3.27874756 166.1477356 C-6.27140277 172.79622122 -8.19505845 179.81511383 -10.1875 186.8125 C-11.13862998 189.97516925 -12.10368369 193.13324216 -13.07356262 196.29020691 C-13.66984678 198.24909091 -14.25238154 200.21222256 -14.81987 202.17964172 C-15.07807022 203.06113388 -15.33627045 203.94262604 -15.60229492 204.85083008 C-15.93652718 206.01948357 -15.93652718 206.01948357 -16.2775116 207.21174622 C-17 209 -17 209 -19 210 C-20.99770281 204.19891998 -22.9914319 198.39649575 -24.98144531 192.59277344 C-25.65938245 190.61746091 -26.33841555 188.64252417 -27.01855469 186.66796875 C-27.99440357 183.83430843 -28.9663391 180.99933237 -29.9375 178.1640625 C-30.24373291 177.27756012 -30.54996582 176.39105774 -30.86547852 175.47769165 C-31.14576904 174.65699188 -31.42605957 173.83629211 -31.71484375 172.99072266 C-31.96355225 172.26680328 -32.21226074 171.54288391 -32.46850586 170.79702759 C-33 169 -33 169 -33 167 C-33.7528125 166.98582031 -34.505625 166.97164062 -35.28125 166.95703125 C-53.47321284 166.14015913 -71.25322045 158.96478961 -85 147 C-83.76691584 143.17156727 -82.39022288 139.43515156 -80.89306641 135.70263672 C-75.09240506 120.95575515 -72.63817985 107.53893786 -72.625 91.625 C-72.62322754 90.3654248 -72.62145508 89.10584961 -72.61962891 87.80810547 C-72.74920518 76.99916627 -74.04012779 66.69977131 -77.5 56.4375 C-77.7484668 55.69153564 -77.99693359 54.94557129 -78.25292969 54.17700195 C-80.99129102 46.38239414 -84.83645314 39.22450839 -88.828125 32.01171875 C-90.45295481 29.07436938 -91.86208067 26.16720881 -93 23 C-68.45110156 -1.45746865 -33.61722908 -11.78535042 0 0 Z " fill="#4EABF1" transform="translate(445,36)"/>
<path d="M0 0 C1.05960937 0.36222656 2.11921875 0.72445312 3.2109375 1.09765625 C15.68569688 5.8278028 25.50182905 13.87577279 35 23 C33.56446478 26.99557302 31.62062458 30.57970405 29.57226562 34.28100586 C25.61661065 41.48021027 22.09899687 48.63461025 19.5 56.4375 C19.26958008 57.12094482 19.03916016 57.80438965 18.80175781 58.50854492 C9.41794183 88.31032359 15.14649454 119.02299432 27 147 C11.29618185 159.33871426 -4.99831343 166.07946425 -25 167 C-25.15057861 167.60046143 -25.30115723 168.20092285 -25.45629883 168.81958008 C-27.7483268 177.60311261 -30.703487 186.1219763 -33.6875 194.6875 C-34.20410479 196.17892263 -34.72038314 197.67045837 -35.23632812 199.16210938 C-36.48713198 202.77605254 -37.74232186 206.38844368 -39 210 C-41 209 -41 209 -41.70230103 207.22520447 C-41.91607391 206.45213455 -42.1298468 205.67906464 -42.35009766 204.88256836 C-42.59861481 204.00753159 -42.84713196 203.13249481 -43.10317993 202.23094177 C-43.37077118 201.27687943 -43.63836243 200.32281708 -43.9140625 199.33984375 C-44.51487492 197.3277714 -45.1191593 195.31673317 -45.7265625 193.30664062 C-46.68106684 190.13660178 -47.61689134 186.96700779 -48.49414062 183.7746582 C-51.61612097 170.75418452 -51.61612097 170.75418452 -59.89501953 160.89160156 C-63.78014766 158.76455425 -67.80521002 157.39508132 -72 156 C-85.49402758 149.0032911 -96.82257961 137.34108083 -104 124 C-104.45632812 123.19304687 -104.91265625 122.38609375 -105.3828125 121.5546875 C-116.29566352 101.23195297 -117.89674127 76.98503895 -111.4140625 55.01416016 C-104.18144761 32.93124572 -88.62492065 14.93655674 -68.0625 4.1875 C-47.12932545 -5.80386017 -22.01447206 -7.71771722 0 0 Z " fill="#4EABF1" transform="translate(125,36)"/>
<path d="M0 0 C0.84240234 -0.00386719 1.68480469 -0.00773438 2.55273438 -0.01171875 C17.41917788 0.01117031 17.41917788 0.01117031 23.0625 3.125 C23.0625 3.785 23.0625 4.445 23.0625 5.125 C22.10472656 5.45371094 21.14695312 5.78242188 20.16015625 6.12109375 C4.72787868 11.57020039 -9.28536908 18.65490325 -21.9375 29.125 C-23.20980469 30.15173828 -23.20980469 30.15173828 -24.5078125 31.19921875 C-39.77713618 44.14703083 -53.55167089 64.36524603 -57.84375 84.09375 C-60.09917008 94.41352263 -60.09917008 94.41352263 -62.71875 96.63671875 C-64.8034725 97.3944352 -66.74806521 97.78879466 -68.9375 98.125 C-75.49374597 100.56970189 -79.25696811 103.16958184 -82.75 109.3125 C-84.67714142 115.49963825 -84.67714142 120.75036175 -82.75 126.9375 C-78.90551911 133.69848364 -74.05703145 136.55091897 -66.9375 139.125 C-65.82375 139.29 -64.71 139.455 -63.5625 139.625 C-60.9375 141.125 -60.9375 141.125 -60.1171875 143.3515625 C-59.63687816 145.39977821 -59.18803758 147.45549468 -58.76171875 149.515625 C-55.0300538 165.85713406 -46.88014432 180.53574824 -35.9375 193.125 C-35.25042969 193.94484375 -34.56335938 194.7646875 -33.85546875 195.609375 C-17.76242835 214.28310116 3.44494737 225.78993882 27.0625 232.125 C23.89640538 234.00120422 21.70417599 234.22162822 18.0625 234.125 C17.95845856 234.69342621 17.85441711 235.26185242 17.7472229 235.84750366 C16.36169785 243.11198962 14.51863739 250.21567067 12.5859375 257.3515625 C12.25582672 258.58039154 11.92571594 259.80922058 11.58560181 261.07528687 C10.71660157 264.3078566 9.84486593 267.53966202 8.97174072 270.77111816 C8.07777481 274.08245859 7.18749023 277.39478838 6.296875 280.70703125 C4.55543689 287.18059434 2.8103796 293.65317334 1.0625 300.125 C0.4025 300.125 -0.2575 300.125 -0.9375 300.125 C-3.15846581 291.9638328 -5.37536864 283.8015776 -7.58707428 275.63789654 C-8.61415393 271.84732461 -9.64263582 268.05714478 -10.67431641 264.26782227 C-11.66964838 260.61180391 -12.66130453 256.95480687 -13.65040588 253.29709816 C-14.02866007 251.90088123 -14.4082437 250.50502377 -14.78916931 249.10953331 C-15.3219349 247.1569014 -15.84956401 245.20287021 -16.37695312 243.2487793 C-16.6789563 242.1362529 -16.98095947 241.0237265 -17.29211426 239.87748718 C-17.9375 237.125 -17.9375 237.125 -17.9375 234.125 C-19.0925 234.063125 -20.2475 234.00125 -21.4375 233.9375 C-48.99106486 230.7186256 -75.06550622 213.47593541 -92.36767578 192.38134766 C-101.87530866 180.25484584 -108.18072453 166.7326622 -112.9375 152.125 C-113.15212891 151.47418457 -113.36675781 150.82336914 -113.58789062 150.15283203 C-116.85864214 139.7253647 -117.32589713 129.30012879 -117.375 118.4375 C-117.38515137 117.15544678 -117.39530273 115.87339355 -117.40576172 114.55249023 C-117.17054521 88.67370462 -106.86187249 57.99882811 -88.3125 39.25 C-87.19304903 38.20237221 -86.0686141 37.16002431 -84.9375 36.125 C-84.15375 35.320625 -83.37 34.51625 -82.5625 33.6875 C-60.17567472 11.83369437 -31.40488772 -0.14351053 0 0 Z " fill="#F89C16" transform="translate(255.9375,9.875)"/>
<path d="M0 0 C6.72127605 5.94957398 10.66712614 13.13199191 11.35546875 22.05859375 C11.72668969 32.4865274 10.03088224 39.70060604 3.296875 47.7421875 C-0.12299932 51.3673826 -3.40991297 53.72017965 -7.890625 55.8671875 C-7.890625 56.1971875 -7.890625 56.5271875 -7.890625 56.8671875 C-6.36695313 57.10501953 -6.36695313 57.10501953 -4.8125 57.34765625 C13.9113466 60.44507433 30.41645632 67.87164128 42.046875 83.46484375 C49.80604569 95.08687743 54.7363005 107.76136386 54.109375 121.8671875 C10.21325763 143.21913939 -42.62481791 141.50463171 -87.890625 125.8671875 C-90.56907163 124.89452812 -93.23055576 123.88957392 -95.890625 122.8671875 C-97.26018948 105.09328402 -90.97443946 91.00333464 -79.578125 77.6171875 C-67.32771454 64.58308074 -52.11070025 59.41665319 -34.890625 56.8671875 C-37.5008429 54.763167 -40.11101459 52.70775674 -42.828125 50.7421875 C-49.69334709 44.97682011 -53.23019287 36.45950093 -54.10546875 27.72265625 C-54.48613512 19.02823633 -52.06913701 11.41870218 -46.55859375 4.68359375 C-33.79524918 -9.21559882 -15.51841782 -11.06099994 0 0 Z " fill="#E86938" transform="translate(447.890625,305.1328125)"/>
<path d="M0 0 C7.25707503 5.93760684 12.60879954 12.66391614 13.75 22.25 C14.54478158 31.96184325 12.13898761 40.25215247 6.5 48.203125 C2.97751365 52.323176 -1.09649243 55.53216414 -6.25 57.25 C-4.58788272 58.91211728 -2.41882934 58.75025916 -0.18457031 59.09814453 C19.29242418 62.21285028 34.65571437 71.58315247 46.39453125 87.4765625 C53.92796727 98.88161248 56.14361474 110.78348788 55.75 124.25 C35.04214493 131.5581043 14.43275415 138.26023567 -7.71875 138.48828125 C-8.50840652 138.49802979 -9.29806305 138.50777832 -10.11164856 138.51782227 C-27.83826768 138.69154984 -44.91480222 138.4244069 -62.25 134.25 C-63.08241211 134.05212891 -63.91482422 133.85425781 -64.77246094 133.65039062 C-90.01898548 127.48101452 -90.01898548 127.48101452 -94.25 123.25 C-94.38368112 106.24576176 -88.33518689 90.88000488 -76.65625 78.59765625 C-64.24516191 66.48878621 -49.50133546 59.87748448 -32.25 58.25 C-32.91 57.734375 -33.57 57.21875 -34.25 56.6875 C-35.24 55.883125 -36.23 55.07875 -37.25 54.25 C-37.889375 53.76402344 -38.52875 53.27804687 -39.1875 52.77734375 C-45.53443592 47.69258259 -48.69835775 41.90492675 -51.25 34.25 C-52.17608094 22.57530754 -50.48397338 13.30892134 -43.078125 4.0703125 C-31.59659994 -7.36214621 -13.30418363 -9.47764701 0 0 Z " fill="#E86937" transform="translate(104.25,303.75)"/>
<path d="M0 0 C8.34468007 4.97590182 13.53387008 11.86345977 16.109375 21.2578125 C17.10789012 32.35758522 16.45884702 41.9922991 9.359375 51.0703125 C5.39825739 55.3338055 0.62024319 58.42085644 -4.890625 60.2578125 C-3.81425781 60.41636719 -2.73789062 60.57492187 -1.62890625 60.73828125 C18.64345619 63.9001542 35.27211391 71.23063636 48.11328125 87.8515625 C56.14471632 99.64719068 59.35983096 112.17662196 59.109375 126.2578125 C9.59995597 145.69193965 -41.36639172 145.89770844 -90.890625 126.2578125 C-91.28549337 108.51725392 -84.94198778 92.44734973 -72.640625 79.5078125 C-59.58153125 67.15461571 -44.19368125 62.80664594 -26.890625 60.2578125 C-28.086875 59.7009375 -29.283125 59.1440625 -30.515625 58.5703125 C-38.66909354 54.44324818 -43.61843651 48.89061545 -47.0078125 40.48828125 C-49.36824453 31.85077113 -49.04225604 21.48157859 -45.1484375 13.3671875 C-35.94791101 -2.06226686 -16.31539333 -7.82919881 0 0 Z " fill="#E86937" transform="translate(271.890625,354.7421875)"/>
<path d="M0 0 C1.14597656 -0.01224609 2.29195313 -0.02449219 3.47265625 -0.03710938 C9.72201358 -0.04789653 15.14829192 0.32987452 21.125 2.1875 C20.125 4.1875 20.125 4.1875 18.26171875 4.828125 C17.04935547 5.12976562 17.04935547 5.12976562 15.8125 5.4375 C-5.16510013 11.48643867 -21.22178023 26.58443518 -31.875 45.1875 C-37.85755228 56.15045113 -41.37376364 68.70017676 -41.875 81.1875 C-41.91496094 81.87457031 -41.95492187 82.56164062 -41.99609375 83.26953125 C-42.70956742 105.89084336 -34.00834653 126.46800735 -19.5625 143.5 C-10.08924314 153.4795861 0.85163111 159.42399231 13.125 165.1875 C14.46086013 165.84908895 15.7957606 166.51270755 17.125 167.1875 C16.795 168.1775 16.465 169.1675 16.125 170.1875 C12.165 170.5175 8.205 170.8475 4.125 171.1875 C3.74730469 172.65832031 3.36960937 174.12914062 2.98046875 175.64453125 C0.83455268 183.51289018 -1.88083142 191.1773473 -4.5625 198.875 C-5.07910479 200.36642263 -5.59538314 201.85795837 -6.11132812 203.34960938 C-7.36213198 206.96355254 -8.61732186 210.57594368 -9.875 214.1875 C-11.875 213.1875 -11.875 213.1875 -12.57730103 211.41270447 C-12.79107391 210.63963455 -13.0048468 209.86656464 -13.22509766 209.07006836 C-13.47361481 208.19503159 -13.72213196 207.31999481 -13.97817993 206.41844177 C-14.24577118 205.46437943 -14.51336243 204.51031708 -14.7890625 203.52734375 C-15.38987492 201.5152714 -15.9941593 199.50423317 -16.6015625 197.49414062 C-17.55606684 194.32410178 -18.49189134 191.15450779 -19.36914062 187.9621582 C-22.49112097 174.94168452 -22.49112097 174.94168452 -30.77001953 165.07910156 C-34.65514766 162.95205425 -38.68021002 161.58258132 -42.875 160.1875 C-56.36902758 153.1907911 -67.69757961 141.52858083 -74.875 128.1875 C-75.33132812 127.38054687 -75.78765625 126.57359375 -76.2578125 125.7421875 C-87.17066352 105.41945297 -88.77174127 81.17253895 -82.2890625 59.20166016 C-75.05644761 37.11874572 -59.49992065 19.12405674 -38.9375 8.375 C-26.05085047 2.22422929 -14.14591727 0.00790275 0 0 Z " fill="#1467A6" transform="translate(95.875,31.8125)"/>
<path d="M0 0 C1.14597656 -0.01224609 2.29195313 -0.02449219 3.47265625 -0.03710938 C9.72201358 -0.04789653 15.14829192 0.32987452 21.125 2.1875 C20.125 4.1875 20.125 4.1875 18.26171875 4.828125 C17.04935547 5.12976562 17.04935547 5.12976562 15.8125 5.4375 C-5.26766898 11.49467516 -21.24815859 26.49704818 -31.875 45.1875 C-33.83179414 48.77744549 -35.44431233 52.35830652 -36.875 56.1875 C-37.266875 57.1878125 -37.65875 58.188125 -38.0625 59.21875 C-40.93771309 67.92425631 -41.26176664 76.26030464 -41.3125 85.375 C-41.3225708 86.55054443 -41.3326416 87.72608887 -41.34301758 88.93725586 C-41.13537752 109.93246346 -32.45510128 129.69232411 -18.1640625 144.9765625 C-10.55635113 152.32462502 -2.63010616 157.63798394 6.875 162.1875 C7.65464111 162.56132812 8.43428223 162.93515625 9.23754883 163.3203125 C13.91298049 165.45561906 18.29814258 166.80945854 23.38378906 167.59765625 C24.24568848 167.88962891 24.24568848 167.88962891 25.125 168.1875 C26.23642893 171.5217868 26.04898419 172.16841121 24.98510742 175.36767578 C24.71119675 176.20509308 24.43728607 177.04251038 24.15507507 177.90530396 C23.84995499 178.80538177 23.5448349 179.70545959 23.23046875 180.6328125 C22.76934441 182.02123856 22.76934441 182.02123856 22.29890442 183.43771362 C21.64659384 185.39434621 20.98978895 187.3494853 20.32885742 189.30322266 C19.31550298 192.30360863 18.31987543 195.30946273 17.32617188 198.31640625 C16.69115659 200.2138942 16.0551233 202.11104183 15.41796875 204.0078125 C15.11892136 204.91193878 14.81987396 205.81606506 14.51176453 206.74758911 C14.22839737 207.57870209 13.94503021 208.40981506 13.65307617 209.26611328 C13.28215096 210.36839767 13.28215096 210.36839767 12.9037323 211.49295044 C12.125 213.1875 12.125 213.1875 10.125 214.1875 C8.12729719 208.38641998 6.1335681 202.58399575 4.14355469 196.78027344 C3.46561755 194.80496091 2.78658445 192.83002417 2.10644531 190.85546875 C1.13059643 188.02180843 0.1586609 185.18683237 -0.8125 182.3515625 C-1.11873291 181.46506012 -1.42496582 180.57855774 -1.74047852 179.66519165 C-2.02076904 178.84449188 -2.30105957 178.02379211 -2.58984375 177.17822266 C-2.83855225 176.45430328 -3.08726074 175.73038391 -3.34350586 174.98452759 C-3.875 173.1875 -3.875 173.1875 -3.875 171.1875 C-4.6278125 171.17332031 -5.380625 171.15914062 -6.15625 171.14453125 C-24.34821284 170.32765913 -42.12822045 163.15228961 -55.875 151.1875 C-54.64191584 147.35906727 -53.26522288 143.62265156 -51.76806641 139.89013672 C-45.96740506 125.14325515 -43.51317985 111.72643786 -43.5 95.8125 C-43.49822754 94.5529248 -43.49645508 93.29334961 -43.49462891 91.99560547 C-43.62420518 81.18666627 -44.91512779 70.88727131 -48.375 60.625 C-48.6234668 59.87903564 -48.87193359 59.13307129 -49.12792969 58.36450195 C-51.86629102 50.56989414 -55.71145314 43.41200839 -59.703125 36.19921875 C-61.32795481 33.26186938 -62.73708067 30.35470881 -63.875 27.1875 C-45.84633106 9.22597694 -25.6235137 0.01431481 0 0 Z " fill="#1568A7" transform="translate(415.875,31.8125)"/>
<path d="M0 0 C6.72127605 5.94957398 10.66712614 13.13199191 11.35546875 22.05859375 C11.72299581 32.38276294 10.03046506 39.62296127 3.484375 47.6796875 C-4.15741999 55.50177892 -10.77224377 57.29477884 -21.515625 57.4296875 C-22.85790161 57.45204468 -22.85790161 57.45204468 -24.22729492 57.47485352 C-32.16843451 57.35073878 -38.4573236 54.78985951 -44.4453125 49.47265625 C-51.16890475 42.00401729 -54.42941501 33.2259814 -54.13671875 23.22265625 C-53.02160567 12.54943102 -47.90379566 4.79496742 -39.68359375 -1.8828125 C-27.45035031 -10.41143538 -11.69731984 -8.33745137 0 0 Z " fill="#F4D3A4" transform="translate(447.890625,305.1328125)"/>
<path d="M0 0 C7.25707503 5.93760684 12.60879954 12.66391614 13.75 22.25 C14.54463453 31.96004629 12.14364259 40.26406576 6.4921875 48.20703125 C2.13698323 53.31414298 -3.62291457 57.75557663 -10.45483398 58.4855957 C-22.26332599 59.11911074 -32.27684963 59.47558943 -41.47265625 51.265625 C-48.3918535 44.1831799 -51.40768827 37.12355386 -51.75 27.25 C-51.43671583 17.62173324 -48.1458317 9.11636234 -41.25 2.25 C-28.96276788 -7.02727258 -13.0332581 -9.28464482 0 0 Z " fill="#F4D3A4" transform="translate(104.25,303.75)"/>
<path d="M0 0 C8.34468007 4.97590182 13.53387008 11.86345977 16.109375 21.2578125 C17.10789012 32.35758522 16.45884702 41.9922991 9.359375 51.0703125 C3.70168013 57.1280464 -3.34488592 60.84888618 -11.625 61.59375 C-22.35447774 61.83515993 -31.19802606 60.58332943 -39.359375 52.9609375 C-46.75303791 44.73737365 -48.47252567 36.02335615 -48.203125 25.24609375 C-47.72879865 16.86039919 -44.11592977 9.8548755 -37.890625 4.2578125 C-27.15195714 -3.81766573 -12.32399863 -5.91386512 0 0 Z " fill="#F4D3A4" transform="translate(271.890625,354.7421875)"/>
<path d="M0 0 C4.91875371 2.8482311 8.18962787 6.91835141 11.0625 11.75 C12.8275913 19.33989261 12.03659748 25.41048703 8.2421875 32.23828125 C4.65943015 37.30635258 -0.29271555 40.08611982 -6.3125 41.4375 C-12.65150661 42.05095225 -17.08667452 41.18215339 -22.3125 37.4375 C-27.69017814 32.37677735 -31.22657512 27.73497582 -31.75 20.25 C-31.56586454 13.75110132 -28.99650403 8.01706808 -24.3046875 3.5078125 C-17.16481278 -1.99858535 -8.52859839 -3.85268731 0 0 Z " fill="#FBFDFE" transform="translate(84.3125,97.5625)"/>
<path d="M0 0 C5.64195128 3.10349488 10.25876297 6.64084135 12.23828125 12.9375 C13.00627408 18.92230901 13.50493754 25.41449489 10.67578125 30.9375 C7.15275139 35.27353675 3.6176556 39.14437522 -1.76171875 40.9375 C-9.70117985 41.74369207 -16.47708821 41.97121618 -22.91796875 36.828125 C-27.68340868 31.94152981 -30.01995868 27.23986774 -30.32421875 20.375 C-29.94472676 13.22457204 -27.61735512 8.35868252 -22.32421875 3.5625 C-15.92857804 -1.74988834 -7.76497518 -2.98737376 0 0 Z " fill="#FCFDFE" transform="translate(445.76171875,97.0625)"/>
<path d="M0 0 C4.97641635 3.39301115 7.79345798 7.08578958 9 13 C9.55132858 19.32967623 9.20786257 24.35858652 6 30 C1.45008854 35.13323344 -2.40923689 38.60013454 -9.33203125 39.203125 C-17.41855098 39.35594112 -22.95087873 37.71305898 -29 32 C-33.19720814 26.00398838 -33.6190881 20.16373372 -33 13 C-31.50750607 7.29340557 -28.32154086 2.6250786 -23.5 -0.75 C-15.87484578 -4.56257711 -7.35756728 -4.0394487 0 0 Z " fill="#FEFEFC" transform="translate(268,110)"/>
<path d="M0 0 C4.97641635 3.39301115 7.79345798 7.08578958 9 13 C9.55132858 19.32967623 9.20786257 24.35858652 6 30 C1.45008854 35.13323344 -2.40923689 38.60013454 -9.33203125 39.203125 C-17.41855098 39.35594112 -22.95087873 37.71305898 -29 32 C-33.19720814 26.00398838 -33.6190881 20.16373372 -33 13 C-31.50750607 7.29340557 -28.32154086 2.6250786 -23.5 -0.75 C-15.87484578 -4.56257711 -7.35756728 -4.0394487 0 0 Z " fill="#FEFEFC" transform="translate(204,110)"/>
<path d="M0 0 C5.13323344 4.54991146 8.60013454 8.40923689 9.203125 15.33203125 C9.33596323 22.36138745 8.37965794 27.31525771 3.5625 32.75 C-2.50036422 38.07349053 -6.41646107 39.32141816 -14.46875 39.21484375 C-21.98133277 38.57720169 -26.11073588 34.40520415 -30.75 28.9375 C-33.80007015 24.20989127 -33.46067822 18.42762706 -33 13 C-30.90121358 6.26179097 -26.89186669 1.80120432 -21 -2 C-13.82638947 -4.21673802 -6.52961605 -3.71291893 0 0 Z " fill="#FEFEFC" transform="translate(332,110)"/>
<path d="M0 0 C0.66 0.33 1.32 0.66 2 1 C-3.94 6.94 -9.88 12.88 -16 19 C-16 14.80130728 -14.19810866 13.66463027 -11.375 10.625 C-10.9207666 10.13475342 -10.4665332 9.64450684 -9.99853516 9.1394043 C-6.85830473 5.79321137 -3.64356736 2.78061719 0 0 Z " fill="#2A7CC1" transform="translate(44,48)"/>
<path d="M0 0 C0.66 0.33 1.32 0.66 2 1 C0.04761147 3.00612399 -1.91137822 5.00492433 -3.875 7 C-4.43058594 7.57234375 -4.98617188 8.1446875 -5.55859375 8.734375 C-7.00134404 10.19450782 -8.4974374 11.60149298 -10 13 C-10.66 13 -11.32 13 -12 13 C-10.44997253 9.11602311 -7.99523379 6.97020381 -4.875 4.25 C-3.96492188 3.45078125 -3.05484375 2.6515625 -2.1171875 1.828125 C-1.06917969 0.92320313 -1.06917969 0.92320313 0 0 Z " fill="#2F83C6" transform="translate(364,48)"/>
</svg>
