<?xml version="1.0" encoding="UTF-8"?>
<!DOCTYPE svg PUBLIC "-//W3C//DTD SVG 1.1//EN" "http://www.w3.org/Graphics/SVG/1.1/DTD/svg11.dtd">
<!-- Creator: CorelDRAW 2020 (64-Bit) -->
<svg xmlns="http://www.w3.org/2000/svg" xml:space="preserve" width="39px" height="50px" version="1.1" style="shape-rendering:geometricPrecision; text-rendering:geometricPrecision; image-rendering:optimizeQuality; fill-rule:evenodd; clip-rule:evenodd"
viewBox="0 0 16.97 21.53"
 xmlns:xlink="http://www.w3.org/1999/xlink"
 xmlns:xodm="http://www.corel.com/coreldraw/odm/2003">
 <defs>
  <style type="text/css">
   <![CDATA[
    .fil0 {fill:none}
    .fil1 {fill:#EF4D4A}
    .fil2 {fill:#FCE4EA;fill-rule:nonzero}
   ]]>
  </style>
 </defs>
 <g id="Layer_x0020_1">
  <metadata id="CorelCorpID_0Corel-Layer"/>
  <rect class="fil0" x="0.16" width="16.81" height="21.53"/>
  <g id="_819307248">
   <path class="fil1" d="M0.77 6.29c0.66,-1.04 1.69,-1.75 2.8,-2.01 0.64,-0.15 1.26,-0.12 1.83,0.02 0.65,0.16 1.23,0.47 1.69,0.85 0.32,0.26 0.58,0.57 0.84,0.86 0.07,0.1 0.15,0.19 0.21,0.26 0.23,0.25 0.34,0.22 0.47,0.08 0.08,-0.07 0.16,-0.18 0.26,-0.3 0.48,-0.58 1.14,-1.4 2.5,-1.73 0.62,-0.16 1.25,-0.15 1.84,-0.03 0.64,0.13 1.23,0.4 1.69,0.76 0.39,0.3 0.76,0.67 1.08,1.14 0.32,0.48 0.57,1.06 0.72,1.75 0.13,0.67 0.14,1.34 0.04,1.97 -0.1,0.67 -0.33,1.3 -0.64,1.83 -0.43,0.72 -3.35,3.89 -5.01,5.68 -0.35,0.39 -0.64,0.7 -0.93,1.01 -0.3,0.34 -0.45,0.5 -0.57,0.64 -0.48,0.54 -0.73,0.82 -0.96,0.93 -0.43,0.2 -0.59,0.01 -0.9,-0.37 -0.06,-0.07 -0.13,-0.16 -0.2,-0.24l-5.94 -6.54c-0.33,-0.36 -0.65,-0.73 -0.93,-1.2 -0.28,-0.48 -0.5,-1.06 -0.61,-1.83 -0.18,-1.38 0.12,-2.59 0.72,-3.53z"/>
   <path class="fil2" d="M3.5 6.5c0.25,-0.18 0.59,-0.1 0.76,0.19 0.16,0.28 0.09,0.66 -0.17,0.84 -0.23,0.16 -0.42,0.35 -0.56,0.57 -0.22,0.35 -0.32,0.76 -0.31,1.19l0 0.01c0.02,0.46 0.17,0.94 0.43,1.4 0.25,0.43 0.61,0.85 1.07,1.21 0.25,0.19 0.31,0.57 0.13,0.85 -0.18,0.27 -0.52,0.33 -0.77,0.14 -0.58,-0.45 -1.03,-0.98 -1.36,-1.55 -0.37,-0.64 -0.58,-1.33 -0.6,-2l0 -0.01c-0.03,-0.7 0.14,-1.37 0.51,-1.95 0.22,-0.34 0.51,-0.64 0.87,-0.89z"/>
  </g>
 </g>
</svg>
