<?xml version="1.0" encoding="UTF-8"?>
<!DOCTYPE svg PUBLIC "-//W3C//DTD SVG 1.1//EN" "http://www.w3.org/Graphics/SVG/1.1/DTD/svg11.dtd">
<!-- Creator: CorelDRAW 2020 (64-Bit) -->
<svg xmlns="http://www.w3.org/2000/svg" xml:space="preserve" width="45px" height="50px" version="1.1" style="shape-rendering:geometricPrecision; text-rendering:geometricPrecision; image-rendering:optimizeQuality; fill-rule:evenodd; clip-rule:evenodd"
viewBox="0 0 24.85 27.72"
 xmlns:xlink="http://www.w3.org/1999/xlink"
 xmlns:xodm="http://www.corel.com/coreldraw/odm/2003">
 <defs>
  <style type="text/css">
   <![CDATA[
    .fil5 {fill:none}
    .fil1 {fill:#FEC12C}
    .fil4 {fill:#EF4D4A}
    .fil2 {fill:#E24E9B}
    .fil0 {fill:#00AFEF}
    .fil3 {fill:#FEFEFE;fill-rule:nonzero}
   ]]>
  </style>
 </defs>
 <g id="Layer_x0020_1">
  <metadata id="CorelCorpID_0Corel-Layer"/>
  <g id="_1003825936">
   <rect class="fil0" x="1.43" y="13.04" width="5.5" height="9.86"/>
   <rect class="fil1" x="9.08" y="8.72" width="6.77" height="14.18"/>
   <rect class="fil2" x="18" y="15.59" width="5.5" height="7.31"/>
   <path class="fil3" d="M13.47 11.18l0 4.98 -1.37 0 0 -3.26c-0.23,0.17 -0.44,0.31 -0.65,0.41 -0.21,0.1 -0.47,0.2 -0.78,0.3l0 -1.11c0.46,-0.15 0.82,-0.33 1.08,-0.54 0.25,-0.21 0.45,-0.47 0.6,-0.78l1.12 0z"/>
   <path class="fil3" d="M20.08 18.25l-1.28 -0.23c0.11,-0.41 0.31,-0.72 0.62,-0.94 0.3,-0.22 0.73,-0.33 1.28,-0.33 0.64,0 1.1,0.12 1.38,0.36 0.29,0.24 0.43,0.54 0.43,0.9 0,0.21 -0.06,0.4 -0.17,0.57 -0.12,0.17 -0.29,0.32 -0.52,0.45 0.19,0.05 0.33,0.1 0.43,0.16 0.16,0.1 0.29,0.24 0.38,0.4 0.09,0.16 0.13,0.36 0.13,0.59 0,0.28 -0.07,0.55 -0.22,0.81 -0.15,0.27 -0.36,0.47 -0.64,0.61 -0.28,0.14 -0.65,0.21 -1.11,0.21 -0.44,0 -0.79,-0.05 -1.05,-0.16 -0.26,-0.1 -0.47,-0.25 -0.63,-0.46 -0.17,-0.2 -0.3,-0.45 -0.38,-0.76l1.35 -0.18c0.06,0.28 0.14,0.47 0.25,0.57 0.11,0.11 0.26,0.16 0.43,0.16 0.18,0 0.33,-0.06 0.46,-0.2 0.12,-0.13 0.18,-0.31 0.18,-0.53 0,-0.23 -0.06,-0.4 -0.18,-0.53 -0.11,-0.12 -0.27,-0.18 -0.47,-0.18 -0.11,0 -0.25,0.02 -0.44,0.07l0.07 -0.97c0.07,0.01 0.13,0.02 0.17,0.02 0.18,0 0.33,-0.06 0.44,-0.17 0.12,-0.11 0.18,-0.25 0.18,-0.4 0,-0.15 -0.04,-0.27 -0.13,-0.36 -0.09,-0.08 -0.21,-0.13 -0.37,-0.13 -0.16,0 -0.28,0.05 -0.38,0.15 -0.1,0.09 -0.17,0.26 -0.21,0.5z"/>
   <path class="fil3" d="M6.22 20.15l-4.08 0c0.05,-0.41 0.19,-0.78 0.43,-1.14 0.23,-0.35 0.68,-0.77 1.33,-1.26 0.4,-0.29 0.65,-0.52 0.76,-0.67 0.12,-0.15 0.17,-0.3 0.17,-0.44 0,-0.15 -0.05,-0.27 -0.16,-0.38 -0.11,-0.1 -0.25,-0.16 -0.42,-0.16 -0.17,0 -0.32,0.06 -0.43,0.17 -0.11,0.11 -0.18,0.3 -0.22,0.58l-1.36 -0.11c0.06,-0.39 0.15,-0.69 0.3,-0.9 0.14,-0.22 0.34,-0.38 0.6,-0.49 0.26,-0.12 0.62,-0.18 1.07,-0.18 0.48,0 0.85,0.06 1.12,0.17 0.26,0.11 0.47,0.27 0.63,0.5 0.15,0.22 0.22,0.48 0.22,0.76 0,0.3 -0.08,0.58 -0.26,0.85 -0.17,0.27 -0.49,0.57 -0.95,0.9 -0.27,0.18 -0.46,0.32 -0.55,0.39 -0.09,0.08 -0.2,0.18 -0.33,0.3l2.13 0 0 1.11z"/>
   <rect class="fil0" y="23.88" width="24.85" height="2.48"/>
   <polygon class="fil4" points="12.46,0.89 13.29,3.46 15.99,3.46 13.8,5.04 14.64,7.61 12.46,6.01 10.28,7.61 11.12,5.04 8.93,3.46 11.63,3.46 "/>
  </g>
  <rect class="fil5" width="24.85" height="27.73"/>
 </g>
</svg>
