<?xml version="1.0" encoding="UTF-8"?>
<!DOCTYPE svg PUBLIC "-//W3C//DTD SVG 1.1//EN" "http://www.w3.org/Graphics/SVG/1.1/DTD/svg11.dtd">
<!-- Creator: CorelDRAW 2020 (64-Bit) -->
<svg xmlns="http://www.w3.org/2000/svg" xml:space="preserve" width="24px" height="50px" version="1.1" style="shape-rendering:geometricPrecision; text-rendering:geometricPrecision; image-rendering:optimizeQuality; fill-rule:evenodd; clip-rule:evenodd"
viewBox="0 0 2770 5860"
 xmlns:xlink="http://www.w3.org/1999/xlink"
 xmlns:xodm="http://www.corel.com/coreldraw/odm/2003">
 <defs>
  <style type="text/css">
   <![CDATA[
    .fil0 {fill:none}
    .fil5 {fill:#FEFEFE}
    .fil2 {fill:#D53519}
    .fil3 {fill:#FCB224}
    .fil4 {fill:#FD562A}
    .fil1 {fill:#FDCA44}
   ]]>
  </style>
 </defs>
 <g id="Layer_x0020_1">
  <metadata id="CorelCorpID_0Corel-Layer"/>
  <rect class="fil0" width="2770" height="5860"/>
  <g id="_1311172720">
   <polygon class="fil1" points="240,880 1250,880 1740,2940 920,2940 "/>
   <polygon class="fil2" points="460,880 1120,880 1630,2940 1140,2940 "/>
   <polygon class="fil2" points="1180,880 1290,880 1850,2940 1710,2940 "/>
  </g>
  <path class="fil1" d="M680 2730l1410 0c50,0 100,50 100,100l0 420c340,250 570,660 570,1120 0,760 -620,1370 -1380,1370 -760,0 -1370,-610 -1370,-1370 0,-460 220,-870 570,-1120l0 -420c0,-50 40,-100 100,-100zm110 210l1190 0 0 250 -1190 0 0 -250z"/>
  <circle class="fil3" cx="1380" cy="4370" r="980"/>
  <polygon class="fil4" points="2770,880 1690,880 1020,2940 1900,2940 "/>
  <path class="fil5" d="M1140 4100c-270,40 -590,30 -310,300 60,50 100,100 160,140 -10,150 -60,290 -40,430 170,100 280,-110 430,-120 140,-10 280,230 420,120 50,-90 -10,-290 -30,-410 20,-40 280,-240 270,-320 -20,-170 -370,-50 -450,-190 -70,-110 -150,-460 -300,-240 -40,60 -110,210 -150,290z"/>
 </g>
</svg>
