<?xml version="1.0" encoding="UTF-8"?>
<!DOCTYPE svg PUBLIC "-//W3C//DTD SVG 1.1//EN" "http://www.w3.org/Graphics/SVG/1.1/DTD/svg11.dtd">
<!-- Creator: CorelDRAW 2020 (64-Bit) -->
<svg xmlns="http://www.w3.org/2000/svg" xml:space="preserve" width="33px" height="50px" version="1.1" style="shape-rendering:geometricPrecision; text-rendering:geometricPrecision; image-rendering:optimizeQuality; fill-rule:evenodd; clip-rule:evenodd"
viewBox="0 0 3.86 5.8"
 xmlns:xlink="http://www.w3.org/1999/xlink"
 xmlns:xodm="http://www.corel.com/coreldraw/odm/2003">
 <defs>
  <style type="text/css">
   <![CDATA[
    .fil0 {fill:none}
    .fil1 {fill:#FDCA44}
   ]]>
  </style>
 </defs>
 <g id="Layer_x0020_1">
  <metadata id="CorelCorpID_0Corel-Layer"/>
  <rect class="fil0" width="3.86" height="5.8"/>
  <g id="_1003413520">
   <path class="fil1" d="M1.18 0.87c-0.09,0.1 -0.07,0.24 -0.16,0.33 -0.11,0.11 -0.28,0.03 -0.45,0.07 -0.06,0.17 0.03,0.34 -0.08,0.46 -0.08,0.08 -0.24,0.09 -0.34,0.17 -0.01,0.15 0.14,0.24 0.11,0.41 -0.02,0.12 -0.19,0.2 -0.26,0.33 0.07,0.16 0.21,0.16 0.25,0.31 0.05,0.17 -0.09,0.27 -0.11,0.43 0.11,0.09 0.27,0.1 0.35,0.18 0.1,0.1 0.04,0.28 0.07,0.45 0.17,0.03 0.36,-0.03 0.46,0.07 0.09,0.09 0.08,0.25 0.17,0.34 0.17,0 0.24,-0.14 0.41,-0.11 0.17,0.03 0.17,0.19 0.33,0.26 0.17,-0.08 0.15,-0.21 0.31,-0.25 0.17,-0.05 0.26,0.09 0.43,0.11 0.08,-0.09 0.1,-0.28 0.18,-0.35 0.1,-0.11 0.28,-0.03 0.45,-0.07 0.04,-0.15 -0.03,-0.35 0.06,-0.44 0.08,-0.09 0.25,-0.09 0.35,-0.18 0.01,-0.19 -0.15,-0.26 -0.1,-0.44 0.04,-0.16 0.18,-0.14 0.25,-0.31 -0.06,-0.11 -0.23,-0.21 -0.25,-0.31 -0.05,-0.16 0.1,-0.26 0.1,-0.45 -0.07,-0.03 -0.28,-0.09 -0.34,-0.15 -0.11,-0.12 -0.02,-0.29 -0.07,-0.46 -0.14,-0.03 -0.34,0.03 -0.45,-0.05 -0.08,-0.07 -0.09,-0.25 -0.17,-0.35 -0.24,-0.02 -0.31,0.26 -0.56,0.01l-0.19 -0.17c-0.12,0.06 -0.19,0.22 -0.3,0.25 -0.18,0.06 -0.26,-0.11 -0.45,-0.09zm0.53 0.44c-0.68,0.11 -1.26,0.72 -1.12,1.56 0.12,0.66 0.76,1.26 1.58,1.11 0.67,-0.12 1.24,-0.76 1.1,-1.58 -0.12,-0.66 -0.76,-1.23 -1.56,-1.09z"/>
   <path class="fil1" d="M1.53 2.1c-0.46,0.07 -0.99,0.04 -0.52,0.5 0.09,0.09 0.16,0.17 0.27,0.24 -0.02,0.24 -0.11,0.49 -0.07,0.73 0.29,0.16 0.47,-0.19 0.72,-0.21 0.24,-0.01 0.48,0.39 0.72,0.21 0.08,-0.16 -0.03,-0.5 -0.05,-0.69 0.02,-0.09 0.47,-0.42 0.45,-0.55 -0.03,-0.29 -0.62,-0.08 -0.76,-0.32 -0.11,-0.19 -0.26,-0.78 -0.51,-0.41 -0.07,0.1 -0.19,0.36 -0.25,0.5z"/>
   <path class="fil1" d="M1.06 5.18c0.11,0.1 0.37,0.47 0.53,0.4 0.1,-0.09 0.19,-0.65 0.22,-0.95 -0.3,-0.29 -0.13,-0.23 -0.5,-0.11 -0.33,0.11 -0.23,-0.29 -0.43,-0.39 -0.07,0.06 -0.85,1.31 -0.79,1.34 0.09,0.04 0.84,-0.29 0.97,-0.29z"/>
   <path class="fil1" d="M1.98 4.69c0.05,0.17 0.33,0.78 0.42,0.89 0.18,0.09 0.34,-0.46 0.43,-0.5 0.21,-0.05 0.52,0.38 0.72,0.24 0.03,-0.16 -0.37,-0.81 -0.46,-1.04 -0.02,-0.07 -0.04,-0.11 -0.08,-0.15 -0.24,0.05 -0.1,0.53 -0.48,0.38 -0.36,-0.14 -0.14,-0.16 -0.55,0.18z"/>
  </g>
 </g>
</svg>
