<svg version="1.1" id="Layer_1" xmlns="http://www.w3.org/2000/svg" xmlns:xlink="http://www.w3.org/1999/xlink" x="0px" y="0px"
	 width="100%" viewBox="0 0 512 512" enable-background="new 0 0 512 512" xml:space="preserve">
<path fill="#010101" opacity="0" stroke="none"
	d="
M1.000000,167.000000
	C1.000000,111.333336 1.000000,56.166668 1.000000,1.000000
	C171.666672,1.000000 342.333344,1.000000 513.000000,1.000000
	C513.000000,171.666672 513.000000,342.333344 513.000000,513.000000
	C342.333344,513.000000 171.666672,513.000000 1.000000,513.000000
	C1.000000,397.833344 1.000000,282.666656 1.000000,167.000000
M316.014679,16.019617
	C271.970459,16.019617 227.926270,16.019617 183.768982,16.019617
	C183.768982,29.039595 183.760025,41.361023 183.771881,53.682434
	C183.781006,63.170578 186.382370,65.748108 195.993057,65.750381
	C233.462479,65.759247 270.931915,65.758698 308.401337,65.742767
	C310.557343,65.741844 312.713287,65.573494 315.741974,65.740051
	C318.062286,65.690659 320.427277,65.910118 322.693207,65.533478
	C326.857819,64.841240 329.995972,62.423820 330.065063,58.028793
	C330.283295,44.144081 330.145569,30.253767 330.145569,16.158379
	C325.489075,16.158379 321.211823,16.158379 316.014679,16.019617
M424.070557,16.029026
	C397.966919,16.029026 371.863281,16.029026 345.504089,16.029026
	C345.504089,21.896626 345.504089,27.291405 345.504089,33.223835
	C347.585114,33.223835 349.373993,33.223835 351.162842,33.223839
	C375.479553,33.223900 399.796417,33.263275 424.112915,33.189091
	C428.688202,33.175137 432.316101,34.360699 434.036652,39.890903
	C434.044312,97.845703 434.050140,155.800507 434.060059,213.755310
	C434.075012,300.853088 434.092804,387.950897 433.796387,475.674316
	C431.659027,480.572754 427.404572,480.791077 422.897308,480.789398
	C341.463074,480.759003 260.028870,480.767273 178.594635,480.767242
	C149.118439,480.767212 119.642227,480.781677 90.166054,480.757385
	C82.299675,480.750885 79.904198,478.393372 79.890396,470.740326
	C79.864876,456.585114 79.866035,442.429840 79.890503,428.274628
	C79.901794,421.737701 81.013245,420.293762 87.996216,418.590027
	C93.257278,419.555267 94.906136,423.088562 94.883957,427.995880
	C94.827728,440.435394 94.865280,452.875366 94.865280,465.750854
	C96.985359,465.750854 98.615837,465.750854 100.246315,465.750854
	C198.497055,465.750824 296.747803,465.751984 394.998535,465.740936
	C396.655701,465.740753 398.312866,465.592834 400.886719,465.736847
	C406.834106,465.736847 412.781525,465.736847 418.754333,465.736847
	C418.754333,326.323120 418.754333,187.408188 418.754333,48.486141
	C412.234253,48.486141 406.102020,48.486141 399.058472,48.275478
	C381.280426,48.275478 363.502380,48.275478 345.227051,48.275478
	C345.227051,50.392559 345.111481,52.022079 345.244904,53.630951
	C346.608307,70.071037 334.527008,81.363365 318.190521,80.853386
	C302.710541,80.370155 287.203644,80.749496 271.708588,80.749496
	C246.383331,80.749496 221.058044,80.761597 195.732803,80.745346
	C178.143585,80.734062 168.818390,71.487366 168.773727,54.066074
	C168.769165,52.286919 168.773102,50.507736 168.773102,48.592754
	C143.844910,48.592754 119.475563,48.592754 94.865417,48.592754
	C94.865417,50.924435 94.865410,52.915741 94.865410,54.907047
	C94.865402,165.871674 94.866684,276.836304 94.862465,387.800934
	C94.862190,395.021973 93.659546,396.731903 86.548752,398.407043
	C80.550446,397.318665 79.836952,393.053680 79.839462,387.932220
	C79.895660,273.452087 79.881615,158.971909 79.884285,44.491745
	C79.884506,35.154221 81.855865,33.236423 91.438759,33.234432
	C115.267967,33.229488 139.097168,33.232788 162.926376,33.232784
	C164.705322,33.232780 166.484283,33.232784 168.497833,33.232784
	C168.497833,27.226166 168.497833,21.830009 168.497833,15.993548
	C166.405365,15.993548 164.604813,15.993547 162.804260,15.993547
	C138.141861,15.993550 113.479469,15.991076 88.817078,15.994396
	C71.265572,15.996759 62.362293,24.855972 62.361183,42.409542
	C62.352127,185.551422 62.350910,328.693298 62.363121,471.835175
	C62.364590,489.070648 71.349083,498.004822 88.569626,498.005188
	C198.883865,498.007660 309.198090,498.007233 419.512329,497.999878
	C421.342255,497.999756 423.172180,497.900879 425.887329,497.978638
	C433.270691,498.530670 439.735779,496.401459 445.007660,491.151306
	C450.476898,485.704590 451.711212,478.800629 451.709229,471.402161
	C451.676453,348.286652 451.685394,225.171143 451.690735,102.055641
	C451.690826,100.057716 451.346466,97.931839 451.912659,96.097046
	C452.506042,94.174118 453.740936,91.282852 455.154114,90.984039
	C460.833069,89.783257 460.095703,85.785461 460.042480,81.862755
	C460.004028,79.031120 460.361664,76.144417 459.905609,73.387680
	C459.651733,71.853317 458.390625,69.784157 457.067291,69.260551
	C453.202148,67.731232 451.693756,65.071136 451.693939,61.184109
	C451.694275,54.520226 451.734192,47.855927 451.675018,41.192535
	C451.528748,24.727648 441.452484,15.291616 424.070557,16.029026
z"/>
<path fill="#ECF5FE" opacity="1.000000" stroke="none"
	d="
M399.970032,465.513855
	C398.312866,465.592834 396.655701,465.740753 394.998535,465.740936
	C296.747803,465.751984 198.497055,465.750824 100.246315,465.750854
	C98.615837,465.750854 96.985359,465.750854 94.865280,465.750854
	C94.865280,452.875366 94.827728,440.435394 94.883957,427.995880
	C94.906136,423.088562 93.257278,419.555267 87.601349,418.032837
	C87.233665,411.234863 87.260857,404.994141 87.288048,398.753387
	C93.659546,396.731903 94.862190,395.021973 94.862465,387.800934
	C94.866684,276.836304 94.865402,165.871674 94.865410,54.907047
	C94.865410,52.915741 94.865417,50.924435 94.865417,48.592754
	C119.475563,48.592754 143.844910,48.592754 168.773102,48.592754
	C168.773102,50.507736 168.769165,52.286919 168.773727,54.066074
	C168.818390,71.487366 178.143585,80.734062 195.732803,80.745346
	C221.058044,80.761597 246.383331,80.749496 271.708588,80.749496
	C287.203644,80.749496 302.710541,80.370155 318.190521,80.853386
	C334.527008,81.363365 346.608307,70.071037 345.244904,53.630951
	C345.111481,52.022079 345.227051,50.392559 345.227051,48.275478
	C363.502380,48.275478 381.280426,48.275478 399.519073,48.818306
	C399.989288,64.442024 400.046478,79.523087 399.993530,94.603752
	C399.951050,106.694984 399.774963,118.785751 399.386261,130.639893
	C395.200836,124.459724 389.519440,122.097092 382.588531,122.108086
	C363.682922,122.138077 344.777191,122.107903 325.871521,122.123207
	C318.989624,122.128777 317.442200,123.268105 314.575073,129.845917
	C308.034821,129.803894 301.964691,129.809494 295.707703,129.475647
	C294.431396,123.719490 290.796722,122.066612 285.673035,122.084747
	C263.691284,122.162552 241.708633,122.045593 219.727539,122.187561
	C215.976303,122.211784 213.518906,121.242630 210.922516,118.217079
	C196.337646,101.221489 177.689987,94.759323 155.847519,99.421768
	C131.489365,104.621216 113.972534,125.528381 112.210526,150.237259
	C110.527000,173.845673 124.832390,196.789673 146.846954,205.789612
	C169.681519,215.124802 195.568970,208.599319 211.301468,189.303726
	C213.420395,186.704910 215.505737,185.750244 218.799652,185.756165
	C272.921875,185.853287 327.044434,185.776291 381.166656,185.880020
	C388.894012,185.894821 395.162048,183.572205 399.710083,177.599976
	C399.871185,204.028946 399.951447,229.938721 399.962982,255.848495
	C399.963470,256.904175 399.316345,257.960144 398.681519,258.843079
	C394.201904,253.082291 388.423828,251.498901 381.706635,251.508698
	C327.388763,251.587845 273.070679,251.528992 218.752823,251.615570
	C215.646530,251.620514 213.669571,250.767685 211.645081,248.272827
	C200.753235,234.850540 186.485306,227.762894 169.225983,227.274780
	C142.942368,226.531433 120.033485,244.571747 113.612350,270.700806
	C107.575104,295.267731 120.007309,321.796112 142.869461,333.130920
	C166.746429,344.968811 194.955414,339.049561 211.382904,318.530304
	C213.478027,315.913330 215.510315,314.925140 218.819565,314.931305
	C272.970734,315.032166 327.122406,314.928192 381.273315,315.086121
	C389.080322,315.108887 395.220459,312.732452 399.766296,306.802673
	C399.887360,360.044708 399.928711,412.779266 399.970032,465.513855
M143.645416,404.565491
	C141.112305,411.760834 143.946625,415.979309 151.503784,415.983521
	C203.641113,416.012543 255.778473,416.006897 307.915833,415.987488
	C313.633240,415.985352 317.079620,413.013489 316.987396,408.369476
	C316.898773,403.909576 313.555389,401.021484 308.122833,401.018555
	C255.818893,400.990387 203.514847,400.964203 151.211395,401.123688
	C148.838135,401.130920 146.470306,402.917297 143.645416,404.565491
M300.499847,383.764343
	C320.662079,383.764282 340.824341,383.778168 360.986511,383.740204
	C362.795105,383.736816 364.686462,383.673767 366.394165,383.157837
	C370.066101,382.048431 371.769043,379.237427 371.434814,375.527039
	C371.100861,371.819275 368.954102,369.412079 365.116028,368.905701
	C363.637512,368.710663 362.123505,368.742523 360.625671,368.742218
	C321.467560,368.734467 282.309479,368.734344 243.151367,368.742828
	C241.653793,368.743134 240.138657,368.715240 238.662094,368.919800
	C234.799835,369.454926 232.698196,372.016632 232.406326,375.637421
	C232.111832,379.290985 233.900787,382.138184 237.599014,383.191467
	C239.318283,383.681183 241.202362,383.737823 243.012222,383.741364
	C261.841370,383.778198 280.670593,383.764221 300.499847,383.764343
M205.499863,448.263550
	C222.303360,448.262878 239.107025,448.306244 255.910233,448.236877
	C261.560394,448.213562 264.773560,445.009888 264.368164,440.174957
	C263.988403,435.645264 260.709564,433.252380 254.569077,433.247955
	C220.462982,433.223389 186.356827,433.221558 152.250732,433.249634
	C146.048065,433.254730 142.504791,436.056396 142.450714,440.762177
	C142.395676,445.550842 145.798645,448.244995 152.092896,448.254303
	C169.561844,448.280212 187.030853,448.263458 205.499863,448.263550
M202.289795,383.765961
	C202.953262,383.765930 203.616913,383.776764 204.280151,383.764221
	C210.526962,383.646301 213.951935,380.981384 213.977036,376.224274
	C214.001984,371.497620 210.558517,368.782776 204.321274,368.746124
	C196.691666,368.701233 189.060654,368.668030 181.431976,368.764771
	C175.830719,368.835785 172.837769,371.534546 172.844803,376.203156
	C172.851761,380.827759 175.945160,383.650085 181.437988,383.739227
	C188.070938,383.846893 194.706955,383.765503 202.289795,383.765961
M337.008728,405.579742
	C335.658539,412.284088 338.396179,415.898804 345.033752,415.988129
	C351.005798,416.068512 356.980347,416.057678 362.952667,415.989288
	C368.256592,415.928528 371.619568,412.914307 371.569275,408.435516
	C371.519440,404.002411 368.139313,401.078491 362.783966,401.011749
	C356.977692,400.939392 351.128632,400.588348 345.380402,401.170502
	C342.595642,401.452515 339.998749,403.589569 337.008728,405.579742
z"/>
<path fill="#BE7C4C" opacity="1.000000" stroke="none"
	d="
M86.918396,398.580200
	C87.260857,404.994141 87.233665,411.234863 87.251251,417.894928
	C81.013245,420.293762 79.901794,421.737701 79.890503,428.274628
	C79.866035,442.429840 79.864876,456.585114 79.890396,470.740326
	C79.904198,478.393372 82.299675,480.750885 90.166054,480.757385
	C119.642227,480.781677 149.118439,480.767212 178.594635,480.767242
	C260.028870,480.767273 341.463074,480.759003 422.897308,480.789398
	C427.404572,480.791077 431.659027,480.572754 434.210388,475.631592
	C435.059174,484.583069 430.786652,491.542389 425.002106,497.848083
	C423.172180,497.900879 421.342255,497.999756 419.512329,497.999878
	C309.198090,498.007233 198.883865,498.007660 88.569626,498.005188
	C71.349083,498.004822 62.364590,489.070648 62.363121,471.835175
	C62.350910,328.693298 62.352127,185.551422 62.361183,42.409542
	C62.362293,24.855972 71.265572,15.996759 88.817078,15.994396
	C113.479469,15.991076 138.141861,15.993550 162.804260,15.993547
	C164.604813,15.993547 166.405365,15.993548 168.497833,15.993548
	C168.497833,21.830009 168.497833,27.226166 168.497833,33.232784
	C166.484283,33.232784 164.705322,33.232780 162.926376,33.232784
	C139.097168,33.232788 115.267967,33.229488 91.438759,33.234432
	C81.855865,33.236423 79.884506,35.154221 79.884285,44.491745
	C79.881615,158.971909 79.895660,273.452087 79.839462,387.932220
	C79.836952,393.053680 80.550446,397.318665 86.918396,398.580200
z"/>
<path fill="#AD6A3B" opacity="1.000000" stroke="none"
	d="
M425.444702,497.913361
	C430.786652,491.542389 435.059174,484.583069 434.366882,475.318787
	C434.092804,387.950897 434.075012,300.853088 434.060059,213.755310
	C434.050140,155.800507 434.044312,97.845703 434.331696,39.149223
	C435.048157,29.420191 430.791595,22.456665 425.000488,16.157042
	C441.452484,15.291616 451.528748,24.727648 451.675018,41.192535
	C451.734192,47.855927 451.694275,54.520226 451.693939,61.184109
	C451.693756,65.071136 453.202148,67.731232 457.067291,69.260551
	C458.390625,69.784157 459.651733,71.853317 459.905609,73.387680
	C460.361664,76.144417 460.004028,79.031120 460.042480,81.862755
	C460.095703,85.785461 460.833069,89.783257 455.154114,90.984039
	C453.740936,91.282852 452.506042,94.174118 451.912659,96.097046
	C451.346466,97.931839 451.690826,100.057716 451.690735,102.055641
	C451.685394,225.171143 451.676453,348.286652 451.709229,471.402161
	C451.711212,478.800629 450.476898,485.704590 445.007660,491.151306
	C439.735779,496.401459 433.270691,498.530670 425.444702,497.913361
z"/>
<path fill="#DAE8F9" opacity="1.000000" stroke="none"
	d="
M399.658173,130.876724
	C399.774963,118.785751 399.951050,106.694984 399.993530,94.603752
	C400.046478,79.523087 399.989288,64.442024 399.974731,48.923637
	C406.102020,48.486141 412.234253,48.486141 418.754333,48.486141
	C418.754333,187.408188 418.754333,326.323120 418.754333,465.736847
	C412.781525,465.736847 406.834106,465.736847 400.428375,465.625366
	C399.928711,412.779266 399.887360,360.044708 399.860046,306.455658
	C400.559418,302.047455 401.686676,298.512390 401.837494,294.936096
	C402.146118,287.617371 402.283966,280.253265 401.803314,272.953186
	C401.494659,268.265625 399.957428,263.658905 398.970917,259.015961
	C399.316345,257.960144 399.963470,256.904175 399.962982,255.848495
	C399.951447,229.938721 399.871185,204.028946 399.812805,177.268036
	C400.524292,173.383316 401.721252,170.367676 401.831696,167.312744
	C402.119110,159.364059 402.179108,151.387146 401.829071,143.443558
	C401.643433,139.230896 400.415558,135.064178 399.658173,130.876724
z"/>
<path fill="#FDEEAD" opacity="1.000000" stroke="none"
	d="
M314.869263,65.483063
	C312.713287,65.573494 310.557343,65.741844 308.401337,65.742767
	C270.931915,65.758698 233.462479,65.759247 195.993057,65.750381
	C186.382370,65.748108 183.781006,63.170578 183.771881,53.682434
	C183.760025,41.361023 183.768982,29.039595 183.768982,16.019617
	C227.926270,16.019617 271.970459,16.019617 316.492584,16.547316
	C316.975952,23.536146 317.240692,30.009928 316.926178,36.455448
	C316.453552,46.141712 315.575134,55.808178 314.869263,65.483063
M205.043472,34.178223
	C201.412827,36.615868 199.909195,39.804890 201.825058,44.002605
	C203.546158,47.773621 206.886307,48.290215 210.596893,48.284660
	C241.542191,48.238327 272.487579,48.260212 303.432953,48.250916
	C304.594879,48.250568 306.157318,48.599972 306.844879,47.999004
	C309.048615,46.072803 312.297943,43.922997 312.549072,41.581245
	C312.801331,39.228867 310.278046,36.226013 308.304749,34.137909
	C307.330139,33.106598 304.855347,33.273712 303.058777,33.271061
	C272.279877,33.225620 241.500824,33.228252 210.721878,33.267097
	C209.086411,33.269161 207.451447,33.685299 205.043472,34.178223
z"/>
<path fill="#C17D4E" opacity="1.000000" stroke="none"
	d="
M424.535522,16.093033
	C430.791595,22.456665 435.048157,29.420191 434.371033,38.679008
	C432.316101,34.360699 428.688202,33.175137 424.112915,33.189091
	C399.796417,33.263275 375.479553,33.223900 351.162842,33.223839
	C349.373993,33.223835 347.585114,33.223835 345.504089,33.223835
	C345.504089,27.291405 345.504089,21.896626 345.504089,16.029026
	C371.863281,16.029026 397.966919,16.029026 424.535522,16.093033
z"/>
<path fill="#F0D57B" opacity="1.000000" stroke="none"
	d="
M315.305603,65.611557
	C315.575134,55.808178 316.453552,46.141712 316.926178,36.455448
	C317.240692,30.009928 316.975952,23.536146 316.952545,16.616695
	C321.211823,16.158379 325.489075,16.158379 330.145569,16.158379
	C330.145569,30.253767 330.283295,44.144081 330.065063,58.028793
	C329.995972,62.423820 326.857819,64.841240 322.693207,65.533478
	C320.427277,65.910118 318.062286,65.690659 315.305603,65.611557
z"/>
<path fill="#030203" opacity="1.000000" stroke="none"
	d="
M398.681519,258.843079
	C399.957428,263.658905 401.494659,268.265625 401.803314,272.953186
	C402.283966,280.253265 402.146118,287.617371 401.837494,294.936096
	C401.686676,298.512390 400.559418,302.047455 399.780334,305.948242
	C395.220459,312.732452 389.080322,315.108887 381.273315,315.086121
	C327.122406,314.928192 272.970734,315.032166 218.819565,314.931305
	C215.510315,314.925140 213.478027,315.913330 211.382904,318.530304
	C194.955414,339.049561 166.746429,344.968811 142.869461,333.130920
	C120.007309,321.796112 107.575104,295.267731 113.612350,270.700806
	C120.033485,244.571747 142.942368,226.531433 169.225983,227.274780
	C186.485306,227.762894 200.753235,234.850540 211.645081,248.272827
	C213.669571,250.767685 215.646530,251.620514 218.752823,251.615570
	C273.070679,251.528992 327.388763,251.587845 381.706635,251.508698
	C388.423828,251.498901 394.201904,253.082291 398.681519,258.843079
M285.896057,288.059204
	C285.902679,282.260803 285.865234,276.461853 285.935822,270.664246
	C285.967804,268.037109 284.959076,266.571625 282.197021,266.590790
	C267.795258,266.690613 253.393433,266.783691 238.082321,266.637024
	C232.798645,266.637024 227.514969,266.637024 223.008438,266.637024
	C223.008438,278.001404 223.008438,288.830963 223.008438,299.995850
	C239.981079,299.995850 257.796600,299.995850 275.612091,299.995850
	C286.387146,299.995850 286.387146,299.995850 285.896057,288.059204
M141.885590,314.135315
	C141.885590,314.135315 141.792419,314.180084 142.094269,314.790283
	C152.749191,323.440552 164.885925,326.254883 178.076096,322.889923
	C193.294235,319.007507 203.379822,309.124512 207.507614,294.022675
	C211.399338,279.784454 208.441681,266.771790 197.824356,255.206345
	C187.548203,244.665283 175.056900,240.277161 160.643234,243.094452
	C144.211761,246.306107 133.213028,256.283966 128.745972,272.470398
	C124.397797,288.226105 128.435928,301.978577 140.847839,313.693542
	C141.193741,313.875244 141.539642,314.056946 141.885590,314.135315
M349.500000,299.992859
	C360.311310,299.992676 371.124084,299.893158 381.933167,300.047607
	C385.583435,300.099731 387.045532,298.783386 386.971069,295.113373
	C386.822693,287.797974 386.662659,280.464355 387.021210,273.163513
	C387.263885,268.222168 385.782440,266.494446 380.613220,266.544952
	C355.832733,266.787048 331.048553,266.649139 306.265686,266.663605
	C304.648956,266.664551 303.032257,266.810883 301.286621,266.895874
	C301.286621,278.058990 301.286621,288.897583 301.286621,299.992859
	C317.262726,299.992859 332.881378,299.992859 349.500000,299.992859
z"/>
<path fill="#040404" opacity="1.000000" stroke="none"
	d="
M399.386261,130.639893
	C400.415558,135.064178 401.643433,139.230896 401.829071,143.443558
	C402.179108,151.387146 402.119110,159.364059 401.831696,167.312744
	C401.721252,170.367676 400.524292,173.383316 399.719696,176.748810
	C395.162048,183.572205 388.894012,185.894821 381.166656,185.880020
	C327.044434,185.776291 272.921875,185.853287 218.799652,185.756165
	C215.505737,185.750244 213.420395,186.704910 211.301468,189.303726
	C195.568970,208.599319 169.681519,215.124802 146.846954,205.789612
	C124.832390,196.789673 110.527000,173.845673 112.210526,150.237259
	C113.972534,125.528381 131.489365,104.621216 155.847519,99.421768
	C177.689987,94.759323 196.337646,101.221489 210.922516,118.217079
	C213.518906,121.242630 215.976303,122.211784 219.727539,122.187561
	C241.708633,122.045593 263.691284,122.162552 285.673035,122.084747
	C290.796722,122.066612 294.431396,123.719490 295.477417,129.811737
	C294.446381,135.421722 291.277191,137.183578 286.442169,137.170792
	C270.640076,137.129028 254.837524,137.261551 238.571854,137.241333
	C232.815308,137.155624 227.522064,137.155624 223.022430,137.155624
	C223.022430,148.558838 223.022430,159.514862 223.022430,170.832092
	C224.280624,170.832092 226.091141,170.832077 227.901657,170.832077
	C260.694977,170.832077 293.488281,170.832138 326.281586,170.832062
	C336.868866,170.832047 336.868866,170.831894 336.129639,159.533264
	C336.239532,154.944672 336.273895,150.816391 336.267456,146.688171
	C336.251282,136.316620 337.226410,137.133591 326.638123,137.130676
	C318.676575,137.128494 317.713104,136.521561 315.045197,129.893539
	C317.442200,123.268105 318.989624,122.128777 325.871521,122.123207
	C344.777191,122.107903 363.682922,122.138077 382.588531,122.108086
	C389.519440,122.097092 395.200836,124.459724 399.386261,130.639893
M141.124130,184.694885
	C151.408890,193.372772 163.185226,196.879318 176.385147,193.974792
	C191.923874,190.555664 202.512192,181.090149 207.139648,165.844177
	C211.563950,151.267593 208.711914,137.961182 197.918808,126.005730
	C187.214188,115.034325 174.256866,110.695427 159.322113,114.076500
	C143.183228,117.730194 132.524216,127.974937 128.502075,143.983459
	C124.600586,159.511765 128.636658,173.195618 141.124130,184.694885
M379.272766,170.837860
	C382.443787,170.475174 386.895874,172.300110 386.920441,166.484573
	C386.955566,158.156082 387.079529,149.822113 386.789673,141.503601
	C386.738220,140.028061 384.891205,137.395294 383.813477,137.364075
	C373.064667,137.052704 362.303284,137.175125 351.574036,137.175125
	C351.574036,148.706711 351.574036,159.599014 351.574036,170.386566
	C352.220123,170.586594 352.530579,170.765701 352.841797,170.766968
	C361.336029,170.801651 369.830292,170.818176 379.272766,170.837860
z"/>
<path fill="#010101" opacity="1.000000" stroke="none"
	d="
M143.872681,404.220245
	C146.470306,402.917297 148.838135,401.130920 151.211395,401.123688
	C203.514847,400.964203 255.818893,400.990387 308.122833,401.018555
	C313.555389,401.021484 316.898773,403.909576 316.987396,408.369476
	C317.079620,413.013489 313.633240,415.985352 307.915833,415.987488
	C255.778473,416.006897 203.641113,416.012543 151.503784,415.983521
	C143.946625,415.979309 141.112305,411.760834 143.872681,404.220245
z"/>
<path fill="#E59642" opacity="1.000000" stroke="none"
	d="
M314.575073,129.845917
	C317.713104,136.521561 318.676575,137.128494 326.638123,137.130676
	C337.226410,137.133591 336.251282,136.316620 336.267456,146.688171
	C336.273895,150.816391 336.239532,154.944672 335.658447,159.537018
	C329.780701,160.001953 324.468262,160.003510 319.155853,160.003540
	C294.751953,160.003723 270.347809,159.951752 245.944412,160.062622
	C242.523666,160.078156 240.938507,159.510345 240.854614,155.503937
	C240.727539,149.434937 239.687378,143.385040 239.035156,137.327026
	C254.837524,137.261551 270.640076,137.129028 286.442169,137.170792
	C291.277191,137.183578 294.446381,135.421722 295.664307,130.151184
	C301.964691,129.809494 308.034821,129.803894 314.575073,129.845917
z"/>
<path fill="#060606" opacity="1.000000" stroke="none"
	d="
M299.999817,383.764343
	C280.670593,383.764221 261.841370,383.778198 243.012222,383.741364
	C241.202362,383.737823 239.318283,383.681183 237.599014,383.191467
	C233.900787,382.138184 232.111832,379.290985 232.406326,375.637421
	C232.698196,372.016632 234.799835,369.454926 238.662094,368.919800
	C240.138657,368.715240 241.653793,368.743134 243.151367,368.742828
	C282.309479,368.734344 321.467560,368.734467 360.625671,368.742218
	C362.123505,368.742523 363.637512,368.710663 365.116028,368.905701
	C368.954102,369.412079 371.100861,371.819275 371.434814,375.527039
	C371.769043,379.237427 370.066101,382.048431 366.394165,383.157837
	C364.686462,383.673767 362.795105,383.736816 360.986511,383.740204
	C340.824341,383.778168 320.662079,383.764282 299.999817,383.764343
z"/>
<path fill="#050606" opacity="1.000000" stroke="none"
	d="
M204.999847,448.263550
	C187.030853,448.263458 169.561844,448.280212 152.092896,448.254303
	C145.798645,448.244995 142.395676,445.550842 142.450714,440.762177
	C142.504791,436.056396 146.048065,433.254730 152.250732,433.249634
	C186.356827,433.221558 220.462982,433.223389 254.569077,433.247955
	C260.709564,433.252380 263.988403,435.645264 264.368164,440.174957
	C264.773560,445.009888 261.560394,448.213562 255.910233,448.236877
	C239.107025,448.306244 222.303360,448.262878 204.999847,448.263550
z"/>
<path fill="#060606" opacity="1.000000" stroke="none"
	d="
M201.815720,383.765930
	C194.706955,383.765503 188.070938,383.846893 181.437988,383.739227
	C175.945160,383.650085 172.851761,380.827759 172.844803,376.203156
	C172.837769,371.534546 175.830719,368.835785 181.431976,368.764771
	C189.060654,368.668030 196.691666,368.701233 204.321274,368.746124
	C210.558517,368.782776 214.001984,371.497620 213.977036,376.224274
	C213.951935,380.981384 210.526962,383.646301 204.280151,383.764221
	C203.616913,383.776764 202.953262,383.765930 201.815720,383.765930
z"/>
<path fill="#040404" opacity="1.000000" stroke="none"
	d="
M337.162781,405.233246
	C339.998749,403.589569 342.595642,401.452515 345.380402,401.170502
	C351.128632,400.588348 356.977692,400.939392 362.783966,401.011749
	C368.139313,401.078491 371.519440,404.002411 371.569275,408.435516
	C371.619568,412.914307 368.256592,415.928528 362.952667,415.989288
	C356.980347,416.057678 351.005798,416.068512 345.033752,415.988129
	C338.396179,415.898804 335.658539,412.284088 337.162781,405.233246
z"/>
<path fill="#060604" opacity="1.000000" stroke="none"
	d="
M205.429871,34.043449
	C207.451447,33.685299 209.086411,33.269161 210.721878,33.267097
	C241.500824,33.228252 272.279877,33.225620 303.058777,33.271061
	C304.855347,33.273712 307.330139,33.106598 308.304749,34.137909
	C310.278046,36.226013 312.801331,39.228867 312.549072,41.581245
	C312.297943,43.922997 309.048615,46.072803 306.844879,47.999004
	C306.157318,48.599972 304.594879,48.250568 303.432953,48.250916
	C272.487579,48.260212 241.542191,48.238327 210.596893,48.284660
	C206.886307,48.290215 203.546158,47.773621 201.825058,44.002605
	C199.909195,39.804890 201.412827,36.615868 205.429871,34.043449
z"/>
<path fill="#DE73A2" opacity="1.000000" stroke="none"
	d="
M140.560333,313.168732
	C128.435928,301.978577 124.397797,288.226105 128.745972,272.470398
	C133.213028,256.283966 144.211761,246.306107 160.643234,243.094452
	C175.056900,240.277161 187.548203,244.665283 197.937225,255.945801
	C197.936554,263.248413 198.731812,269.993652 197.463348,276.325470
	C196.092667,283.167480 193.779419,290.137451 187.842789,294.697266
	C184.945435,290.575073 182.186752,286.774567 178.850983,282.178986
	C180.849121,280.457123 183.306137,278.691864 185.325409,276.519623
	C188.598892,272.998230 188.503143,268.875183 185.438141,265.853058
	C182.523178,262.978882 178.061966,262.936554 174.739670,266.145630
	C172.623016,268.190125 170.978882,270.723877 168.664200,273.610229
	C165.725754,270.489563 163.902649,268.359467 161.876434,266.444244
	C158.308685,263.072021 153.751190,262.889648 150.757462,265.836151
	C147.719803,268.825867 147.773010,273.444794 151.269394,276.898193
	C153.344177,278.947479 155.917816,280.491730 158.849670,282.702240
	C155.141937,286.060669 152.759338,287.912354 150.753555,290.108215
	C147.819687,293.320190 147.882294,297.597565 150.582809,300.460297
	C153.560547,303.616913 157.742828,303.858185 161.208008,300.585632
	C163.469498,298.449890 165.178055,295.728638 166.613831,293.923859
	C171.955399,297.578064 175.979950,300.331268 179.843307,303.378723
	C177.283768,305.368469 175.019897,307.308228 172.463135,308.716064
	C162.884567,313.990265 152.338028,314.151611 141.792419,314.180084
	C141.792419,314.180084 141.885590,314.135315 141.769196,313.899353
	C141.288651,313.498505 140.924500,313.333618 140.560333,313.168732
z"/>
<path fill="#4172CA" opacity="1.000000" stroke="none"
	d="
M349.000000,299.992859
	C332.881378,299.992859 317.262726,299.992859 301.286621,299.992859
	C301.286621,288.897583 301.286621,278.058990 301.286621,266.895874
	C303.032257,266.810883 304.648956,266.664551 306.265686,266.663605
	C331.048553,266.649139 355.832733,266.787048 380.613220,266.544952
	C385.782440,266.494446 387.263885,268.222168 387.021210,273.163513
	C386.662659,280.464355 386.822693,287.797974 386.971069,295.113373
	C387.045532,298.783386 385.583435,300.099731 381.933167,300.047607
	C371.124084,299.893158 360.311310,299.992676 349.000000,299.992859
z"/>
<path fill="#DB568F" opacity="1.000000" stroke="none"
	d="
M187.981461,295.018890
	C193.779419,290.137451 196.092667,283.167480 197.463348,276.325470
	C198.731812,269.993652 197.936554,263.248413 198.064682,256.252258
	C208.441681,266.771790 211.399338,279.784454 207.507614,294.022675
	C203.379822,309.124512 193.294235,319.007507 178.076096,322.889923
	C164.885925,326.254883 152.749191,323.440552 141.943344,314.485168
	C152.338028,314.151611 162.884567,313.990265 172.463135,308.716064
	C175.019897,307.308228 177.283768,305.368469 180.199371,303.288452
	C185.310059,302.276581 187.239197,299.194489 187.981461,295.018890
z"/>
<path fill="#F2D233" opacity="1.000000" stroke="none"
	d="
M285.730530,288.980774
	C286.387146,299.995850 286.387146,299.995850 275.612091,299.995850
	C257.796600,299.995850 239.981079,299.995850 223.008438,299.995850
	C223.008438,288.830963 223.008438,278.001404 223.008438,266.637024
	C227.514969,266.637024 232.798645,266.637024 238.550644,267.177673
	C239.673981,273.286896 240.724350,278.846680 240.848480,284.427094
	C240.934814,288.309204 242.292587,289.143280 245.845779,289.093628
	C259.138611,288.907867 272.435303,288.995605 285.730530,288.980774
z"/>
<path fill="#F6E265" opacity="1.000000" stroke="none"
	d="
M285.813293,288.519989
	C272.435303,288.995605 259.138611,288.907867 245.845779,289.093628
	C242.292587,289.143280 240.934814,288.309204 240.848480,284.427094
	C240.724350,278.846680 239.673981,273.286896 239.005310,267.298706
	C253.393433,266.783691 267.795258,266.690613 282.197021,266.590790
	C284.959076,266.571625 285.967804,268.037109 285.935822,270.664246
	C285.865234,276.461853 285.902679,282.260803 285.813293,288.519989
z"/>
<path fill="#DB568F" opacity="1.000000" stroke="none"
	d="
M140.704086,313.431152
	C140.924500,313.333618 141.288651,313.498505 141.769180,313.951050
	C141.539642,314.056946 141.193741,313.875244 140.704086,313.431152
z"/>
<path fill="#A1F3C1" opacity="1.000000" stroke="none"
	d="
M140.826508,184.075455
	C128.636658,173.195618 124.600586,159.511765 128.502075,143.983459
	C132.524216,127.974937 143.183228,117.730194 159.322113,114.076500
	C174.256866,110.695427 187.214188,115.034325 198.001099,126.759193
	C198.388336,130.138550 198.919617,132.760742 198.962723,135.390930
	C199.328369,157.700089 183.750031,178.171677 161.914001,182.999634
	C155.136841,184.498047 147.869461,183.779205 140.826508,184.075455
M179.868317,137.919891
	C174.337082,142.451019 168.805832,146.982147 163.247192,151.535721
	C162.579788,150.908493 161.859528,150.222931 161.129959,149.547363
	C157.105789,145.821106 152.883514,145.510391 149.700165,148.703018
	C146.516663,151.895844 146.820038,156.240433 150.576019,160.136337
	C152.880676,162.526855 155.234741,164.872803 157.633728,167.168655
	C161.881393,171.233719 165.566223,171.337555 169.784088,167.259872
	C175.275772,161.950729 180.895370,156.721283 185.841949,150.929733
	C187.554596,148.924530 188.662994,144.849091 187.777924,142.620544
	C186.909149,140.432953 183.157074,139.390457 179.868317,137.919891
z"/>
<path fill="#DD8223" opacity="1.000000" stroke="none"
	d="
M238.571854,137.241333
	C239.687378,143.385040 240.727539,149.434937 240.854614,155.503937
	C240.938507,159.510345 242.523666,160.078156 245.944412,160.062622
	C270.347809,159.951752 294.751953,160.003723 319.155853,160.003540
	C324.468262,160.003510 329.780701,160.001953 335.564331,159.997360
	C336.868866,170.831894 336.868866,170.832047 326.281586,170.832062
	C293.488281,170.832138 260.694977,170.832077 227.901657,170.832077
	C226.091141,170.832077 224.280624,170.832092 223.022430,170.832092
	C223.022430,159.514862 223.022430,148.558838 223.022430,137.155624
	C227.522064,137.155624 232.815308,137.155624 238.571854,137.241333
z"/>
<path fill="#87EFA7" opacity="1.000000" stroke="none"
	d="
M140.975311,184.385162
	C147.869461,183.779205 155.136841,184.498047 161.914001,182.999634
	C183.750031,178.171677 199.328369,157.700089 198.962723,135.390930
	C198.919617,132.760742 198.388336,130.138550 198.126358,127.061302
	C208.711914,137.961182 211.563950,151.267593 207.139648,165.844177
	C202.512192,181.090149 191.923874,190.555664 176.385147,193.974792
	C163.185226,196.879318 151.408890,193.372772 140.975311,184.385162
z"/>
<path fill="#3F6FC5" opacity="1.000000" stroke="none"
	d="
M378.798676,170.837799
	C369.830292,170.818176 361.336029,170.801651 352.841797,170.766968
	C352.530579,170.765701 352.220123,170.586594 351.574036,170.386566
	C351.574036,159.599014 351.574036,148.706711 351.574036,137.175125
	C362.303284,137.175125 373.064667,137.052704 383.813477,137.364075
	C384.891205,137.395294 386.738220,140.028061 386.789673,141.503601
	C387.079529,149.822113 386.955566,158.156082 386.920441,166.484573
	C386.895874,172.300110 382.443787,170.475174 378.798676,170.837799
z"/>
<path fill="#030202" opacity="1.000000" stroke="none"
	d="
M187.842789,294.697266
	C187.239197,299.194489 185.310059,302.276581 180.360565,302.994232
	C175.979950,300.331268 171.955399,297.578064 166.613831,293.923859
	C165.178055,295.728638 163.469498,298.449890 161.208008,300.585632
	C157.742828,303.858185 153.560547,303.616913 150.582809,300.460297
	C147.882294,297.597565 147.819687,293.320190 150.753555,290.108215
	C152.759338,287.912354 155.141937,286.060669 158.849670,282.702240
	C155.917816,280.491730 153.344177,278.947479 151.269394,276.898193
	C147.773010,273.444794 147.719803,268.825867 150.757462,265.836151
	C153.751190,262.889648 158.308685,263.072021 161.876434,266.444244
	C163.902649,268.359467 165.725754,270.489563 168.664200,273.610229
	C170.978882,270.723877 172.623016,268.190125 174.739670,266.145630
	C178.061966,262.936554 182.523178,262.978882 185.438141,265.853058
	C188.503143,268.875183 188.598892,272.998230 185.325409,276.519623
	C183.306137,278.691864 180.849121,280.457123 178.850983,282.178986
	C182.186752,286.774567 184.945435,290.575073 187.842789,294.697266
z"/>
<path fill="#040705" opacity="1.000000" stroke="none"
	d="
M180.269333,137.882660
	C183.157074,139.390457 186.909149,140.432953 187.777924,142.620544
	C188.662994,144.849091 187.554596,148.924530 185.841949,150.929733
	C180.895370,156.721283 175.275772,161.950729 169.784088,167.259872
	C165.566223,171.337555 161.881393,171.233719 157.633728,167.168655
	C155.234741,164.872803 152.880676,162.526855 150.576019,160.136337
	C146.820038,156.240433 146.516663,151.895844 149.700165,148.703018
	C152.883514,145.510391 157.105789,145.821106 161.129959,149.547363
	C161.859528,150.222931 162.579788,150.908493 163.247192,151.535721
	C168.805832,146.982147 174.337082,142.451019 180.269333,137.882660
z"/>
</svg>
