<svg version="1.1" id="Layer_1" xmlns="http://www.w3.org/2000/svg" xmlns:xlink="http://www.w3.org/1999/xlink" x="0px" y="0px"
	 width="100%" viewBox="0 0 512 512" enable-background="new 0 0 512 512" xml:space="preserve">
<path fill="#000000" opacity="0" stroke="none"
	d="
M513.000000,185.000000
	C513.000000,294.640015 513.000000,403.780029 513.000000,512.960022
	C342.401642,512.960022 171.803268,512.960022 1.102453,512.960022
	C1.102453,342.443359 1.102453,171.886612 1.102453,1.164938
	C171.666534,1.164938 342.333252,1.164938 513.000000,1.164938
	C513.000000,62.196690 513.000000,123.348343 513.000000,185.000000
M62.234978,241.358704
	C62.209633,266.896301 62.184288,292.433929 62.035828,318.821228
	C62.357014,320.234589 62.918781,321.640656 62.961887,323.062439
	C63.358849,336.155365 63.549828,349.255249 64.030624,362.344666
	C64.558250,376.709015 65.261780,391.067993 66.010788,405.422913
	C66.938988,423.212097 67.868652,441.002899 69.037926,458.777191
	C69.756966,469.707214 73.580582,479.498688 81.687790,487.131042
	C90.137856,495.086151 100.632584,498.142029 112.862770,498.973053
	C119.717003,499.647736 126.562637,500.430969 133.427277,500.974121
	C147.040314,502.051270 160.651993,503.221436 174.286026,503.938690
	C191.464539,504.842407 208.668716,505.967926 225.854950,505.863770
	C259.044006,505.662750 292.230988,504.775330 325.412964,503.939941
	C336.614838,503.657928 347.808838,502.805450 358.988922,501.977295
	C375.378998,500.763214 391.741974,499.169830 408.137817,498.050537
	C422.441498,497.074097 438.037262,485.924652 441.840729,472.165955
	C444.162384,463.767517 445.123199,454.908661 445.898773,446.185760
	C447.254852,430.933838 448.124176,415.634277 448.961334,400.341797
	C449.792389,385.159882 450.428833,369.965515 450.970764,354.770172
	C451.443390,341.517212 451.981873,328.254089 451.930389,314.997650
	C451.833008,289.910431 451.376373,264.824097 450.985199,239.738724
	C450.734283,223.647675 450.385010,207.557648 449.967865,191.470062
	C449.844238,186.701096 449.283508,181.945114 449.020294,177.177811
	C447.992279,158.558228 447.070526,139.932526 445.968323,121.317436
	C445.492981,113.289474 444.797150,105.269409 443.987213,97.267441
	C442.050751,78.135460 424.436737,63.569889 406.158691,62.931206
	C398.121277,62.650356 390.108643,61.640209 382.086792,60.938183
	C371.643280,60.024231 361.201721,59.087395 350.253967,57.743668
	C344.175507,50.259750 335.636047,48.396618 326.747437,48.095490
	C317.034149,47.766426 309.663818,43.866642 304.257172,35.857395
	C301.586121,31.900620 298.985565,27.797771 295.727722,24.352337
	C279.934845,7.650078 253.857574,3.245561 233.163345,13.380541
	C222.672134,18.518595 215.396072,26.828709 209.206802,36.437370
	C204.297791,44.058430 197.077286,47.806229 187.972458,48.019035
	C178.456543,48.241444 169.661804,50.355011 162.338531,58.022476
	C159.769211,58.348392 157.208542,58.797268 154.629059,58.978603
	C144.348389,59.701305 134.054062,60.242332 123.781235,61.057804
	C119.487053,61.398682 115.233940,62.256977 110.077164,62.978134
	C105.905685,63.596352 101.570511,63.687500 97.590912,64.923515
	C79.817436,70.443718 70.526215,84.505188 69.033424,101.798317
	C67.831337,115.723679 66.904144,129.674789 66.019447,143.624924
	C65.226440,156.129257 64.414536,168.640656 64.047173,181.161758
	C63.497570,199.893951 63.329617,218.637375 63.001610,237.376068
	C62.981220,238.540955 62.980614,239.706192 62.234978,241.358704
z"/>
<path fill="#F19029" opacity="1.000000" stroke="none"
	d="
M350.759338,58.160404
	C361.201721,59.087395 371.643280,60.024231 382.086792,60.938183
	C390.108643,61.640209 398.121277,62.650356 406.158691,62.931206
	C424.436737,63.569889 442.050751,78.135460 443.987213,97.267441
	C444.797150,105.269409 445.492981,113.289474 445.968323,121.317436
	C447.070526,139.932526 447.992279,158.558228 449.020294,177.177811
	C449.283508,181.945114 449.844238,186.701096 449.967865,191.470062
	C450.385010,207.557648 450.734283,223.647675 450.985199,239.738724
	C451.376373,264.824097 451.833008,289.910431 451.930389,314.997650
	C451.981873,328.254089 451.443390,341.517212 450.970764,354.770172
	C450.428833,369.965515 449.792389,385.159882 448.961334,400.341797
	C448.124176,415.634277 447.254852,430.933838 445.898773,446.185760
	C445.123199,454.908661 444.162384,463.767517 441.840729,472.165955
	C438.037262,485.924652 422.441498,497.074097 408.137817,498.050537
	C391.741974,499.169830 375.378998,500.763214 358.988922,501.977295
	C347.808838,502.805450 336.614838,503.657928 325.412964,503.939941
	C292.230988,504.775330 259.044006,505.662750 225.854950,505.863770
	C208.668716,505.967926 191.464539,504.842407 174.286026,503.938690
	C160.651993,503.221436 147.040314,502.051270 133.427277,500.974121
	C126.562637,500.430969 119.717003,499.647736 112.213852,498.646179
	C110.468994,497.577209 109.378494,496.826904 108.276337,496.094147
	C97.084953,488.653687 90.295761,478.355591 89.102859,464.920471
	C87.516983,447.059601 86.101471,429.172882 85.154770,411.268585
	C83.847450,386.544220 82.341789,361.797546 82.185135,337.052429
	C81.921753,295.448395 82.592216,253.837448 83.000816,212.230682
	C83.137978,198.264557 83.611664,184.300354 84.054115,170.339157
	C84.280373,163.199707 84.658493,156.060181 85.176071,148.935806
	C86.379051,132.376877 87.858849,115.836884 88.932579,99.270164
	C89.627449,88.548943 92.754898,79.038429 100.854073,71.623505
	C104.138657,68.616409 107.587860,65.789124 110.962158,62.880020
	C115.233940,62.256977 119.487053,61.398682 123.781235,61.057804
	C134.054062,60.242332 144.348389,59.701305 154.629059,58.978603
	C157.208542,58.797268 159.769211,58.348392 162.697784,58.430527
	C161.167282,63.192440 158.224548,67.397972 157.586411,71.928146
	C155.715851,85.207253 155.430954,98.594254 158.164581,111.859848
	C145.386749,112.934158 133.103806,113.965202 120.819046,114.974113
	C114.066887,115.528641 111.118355,118.159248 110.831184,124.961288
	C109.481926,156.920029 107.208580,188.888550 107.293884,220.848175
	C107.440193,275.657806 108.939514,330.467102 110.215622,385.268494
	C110.595421,401.578827 112.075279,417.865814 113.155487,434.156555
	C113.676460,442.013245 117.818764,446.495239 125.144951,446.971710
	C160.548630,449.274231 195.931107,452.203308 231.372818,453.549286
	C283.737183,455.537994 335.945953,451.711334 388.072540,446.967682
	C394.553650,446.377869 398.512939,442.713623 399.333679,436.244598
	C400.150238,429.808777 400.606750,423.309845 400.871338,416.824280
	C402.426392,378.702789 404.245453,340.587097 405.281647,302.450592
	C406.889099,243.289948 406.055115,184.148987 402.083984,125.076988
	C401.633331,118.373253 398.897125,115.544586 392.151703,114.960182
	C379.872223,113.896355 367.587830,112.889389 355.392090,111.439178
	C358.114075,93.024155 360.725677,75.030792 350.759338,58.160404
z"/>
<path fill="#27457D" opacity="1.000000" stroke="none"
	d="
M350.506653,57.952034
	C360.725677,75.030792 358.114075,93.024155 355.235535,111.713715
	C349.709045,124.175529 340.370087,129.693604 327.721069,129.710907
	C280.673187,129.775223 233.625137,129.757889 186.577164,129.738968
	C173.470047,129.733688 164.016922,123.931160 158.658691,111.807350
	C155.430954,98.594254 155.715851,85.207253 157.586411,71.928146
	C158.224548,67.397972 161.167282,63.192440 163.140594,58.496872
	C169.661804,50.355011 178.456543,48.241444 187.972458,48.019035
	C197.077286,47.806229 204.297791,44.058430 209.206802,36.437370
	C215.396072,26.828709 222.672134,18.518595 233.163345,13.380541
	C253.857574,3.245561 279.934845,7.650078 295.727722,24.352337
	C298.985565,27.797771 301.586121,31.900620 304.257172,35.857395
	C309.663818,43.866642 317.034149,47.766426 326.747437,48.095490
	C335.636047,48.396618 344.175507,50.259750 350.506653,57.952034
M280.686707,54.321751
	C277.942017,50.283813 275.998901,45.187965 272.311584,42.394085
	C257.636749,31.274933 239.400024,37.407227 232.788284,55.753967
	C229.280441,68.169716 236.315720,81.403061 248.848770,85.510475
	C258.982758,88.831665 268.089081,86.573059 275.331238,78.862854
	C281.632019,72.154854 284.104828,64.124916 280.686707,54.321751
z"/>
<path fill="#E27D46" opacity="1.000000" stroke="none"
	d="
M110.519661,62.929077
	C107.587860,65.789124 104.138657,68.616409 100.854073,71.623505
	C92.754898,79.038429 89.627449,88.548943 88.932579,99.270164
	C87.858849,115.836884 86.379051,132.376877 85.176071,148.935806
	C84.658493,156.060181 84.280373,163.199707 84.054115,170.339157
	C83.611664,184.300354 83.137978,198.264557 83.000816,212.230682
	C82.592216,253.837448 81.921753,295.448395 82.185135,337.052429
	C82.341789,361.797546 83.847450,386.544220 85.154770,411.268585
	C86.101471,429.172882 87.516983,447.059601 89.102859,464.920471
	C90.295761,478.355591 97.084953,488.653687 108.276337,496.094147
	C109.378494,496.826904 110.468994,497.577209 111.766159,498.577148
	C100.632584,498.142029 90.137856,495.086151 81.687790,487.131042
	C73.580582,479.498688 69.756966,469.707214 69.037926,458.777191
	C67.868652,441.002899 66.938988,423.212097 66.010788,405.422913
	C65.261780,391.067993 64.558250,376.709015 64.030624,362.344666
	C63.549828,349.255249 63.358849,336.155365 62.961887,323.062439
	C62.918781,321.640656 62.357014,320.234589 62.283409,318.031860
	C62.687305,315.596069 62.978317,313.949738 62.979691,312.303162
	C62.999546,288.492554 62.980515,264.681915 62.970802,240.871277
	C62.980614,239.706192 62.981220,238.540955 63.001610,237.376068
	C63.329617,218.637375 63.497570,199.893951 64.047173,181.161758
	C64.414536,168.640656 65.226440,156.129257 66.019447,143.624924
	C66.904144,129.674789 67.831337,115.723679 69.033424,101.798317
	C70.526215,84.505188 79.817436,70.443718 97.590912,64.923515
	C101.570511,63.687500 105.905685,63.596352 110.519661,62.929077
z"/>
<path fill="#E98539" opacity="1.000000" stroke="none"
	d="
M62.602890,241.114990
	C62.980515,264.681915 62.999546,288.492554 62.979691,312.303162
	C62.978317,313.949738 62.687305,315.596069 62.344967,317.606995
	C62.184288,292.433929 62.209633,266.896301 62.602890,241.114990
z"/>
<path fill="#F1F4F5" opacity="1.000000" stroke="none"
	d="
M158.164581,111.859848
	C164.016922,123.931160 173.470047,129.733688 186.577164,129.738968
	C233.625137,129.757889 280.673187,129.775223 327.721069,129.710907
	C340.370087,129.693604 349.709045,124.175529 355.148926,112.133240
	C367.587830,112.889389 379.872223,113.896355 392.151703,114.960182
	C398.897125,115.544586 401.633331,118.373253 402.083984,125.076988
	C406.055115,184.148987 406.889099,243.289948 405.281647,302.450592
	C404.245453,340.587097 402.426392,378.702789 400.871338,416.824280
	C400.606750,423.309845 400.150238,429.808777 399.333679,436.244598
	C398.512939,442.713623 394.553650,446.377869 388.072540,446.967682
	C335.945953,451.711334 283.737183,455.537994 231.372818,453.549286
	C195.931107,452.203308 160.548630,449.274231 125.144951,446.971710
	C117.818764,446.495239 113.676460,442.013245 113.155487,434.156555
	C112.075279,417.865814 110.595421,401.578827 110.215622,385.268494
	C108.939514,330.467102 107.440193,275.657806 107.293884,220.848175
	C107.208580,188.888550 109.481926,156.920029 110.831184,124.961288
	C111.118355,118.159248 114.066887,115.528641 120.819046,114.974113
	C133.103806,113.965202 145.386749,112.934158 158.164581,111.859848
M227.119217,414.678253
	C249.664246,400.646851 260.537140,375.786652 255.024979,350.873566
	C247.956360,318.925842 216.268906,298.360596 184.805054,305.300659
	C152.092834,312.516083 131.615280,344.498169 139.076508,376.720001
	C148.080917,415.606201 190.779129,434.325104 227.119217,414.678253
M138.233887,204.103836
	C138.054276,207.096603 137.728775,210.088806 137.717117,213.082230
	C137.563568,252.457138 174.693512,280.921661 212.703629,270.602264
	C241.472610,262.791687 260.010345,234.498505 255.837845,204.768509
	C251.788666,175.917068 226.544006,154.020294 197.272263,153.969727
	C168.130875,153.919388 144.970123,173.304642 138.233887,204.103836
M356.004395,380.494049
	C353.431427,378.186096 350.858490,375.878143 347.088745,372.496704
	C349.645813,370.747894 351.350037,369.904572 352.644836,368.641541
	C358.604492,362.828156 364.516388,356.962097 370.311798,350.985382
	C373.837860,347.348938 373.983612,342.938385 370.995758,339.870544
	C368.006439,336.801208 363.522400,336.950165 359.869904,340.287415
	C358.641693,341.409576 357.497620,342.624390 356.324188,343.805878
	C350.249115,349.922485 344.176971,356.042084 337.753479,362.513550
	C330.183472,354.853790 323.122070,347.575531 315.902649,340.457550
	C312.059845,336.668732 306.962891,336.788177 304.086914,340.416809
	C301.516724,343.659637 301.911285,347.547394 305.458221,351.137054
	C312.567871,358.332275 319.780090,365.426086 327.153839,372.764648
	C325.543152,374.462677 324.330292,375.794769 323.060822,377.070557
	C316.953156,383.208710 310.771454,389.274628 304.738953,395.485596
	C301.978851,398.327393 301.197021,402.149261 304.015411,404.887939
	C305.922546,406.741150 309.428619,407.470856 312.277069,407.622620
	C313.799713,407.703766 315.612610,405.666199 317.005493,404.291901
	C323.858398,397.529938 330.614471,390.669830 337.842285,383.404572
	C345.185608,390.798981 352.163269,397.899536 359.228912,404.911377
	C363.278564,408.930115 367.855072,409.237610 371.042999,405.901825
	C374.105835,402.696960 373.739319,398.371094 369.907806,394.436737
	C365.493378,389.903809 360.976318,385.470825 356.004395,380.494049
M358.852142,225.343796
	C366.061920,209.976761 373.280548,194.613876 380.467468,179.236160
	C381.168152,177.736923 381.896973,176.192032 382.224487,174.589020
	C382.987640,170.854172 381.535461,167.893219 378.064606,166.445221
	C374.701782,165.042313 371.446350,165.676666 369.150055,168.775360
	C368.172424,170.094666 367.515350,171.666534 366.807037,173.168167
	C357.577850,192.734863 348.370850,212.312027 339.139160,231.877563
	C338.413452,233.415634 337.545990,234.886795 336.494446,236.857529
	C329.319305,227.670181 322.692688,219.137009 316.010529,210.647537
	C312.114685,205.697998 307.837067,204.582733 304.117004,207.419632
	C300.241760,210.374878 300.157166,214.632141 304.051392,219.669464
	C313.010895,231.259018 321.986145,242.837128 331.046783,254.347610
	C336.389496,261.134857 342.269714,260.465302 346.003082,252.678741
	C350.247711,243.825821 354.354187,234.906647 358.852142,225.343796
z"/>
<path fill="#EF8F29" opacity="1.000000" stroke="none"
	d="
M280.850311,54.991650
	C284.104828,64.124916 281.632019,72.154854 275.331238,78.862854
	C268.089081,86.573059 258.982758,88.831665 248.848770,85.510475
	C236.315720,81.403061 229.280441,68.169716 233.425995,55.375221
	C249.659225,54.994865 265.254761,54.993259 280.850311,54.991650
z"/>
<path fill="#000000" opacity="1.000000" stroke="none"
	d="
M280.768494,54.656700
	C265.254761,54.993259 249.659225,54.994865 233.606552,54.994415
	C239.400024,37.407227 257.636749,31.274933 272.311584,42.394085
	C275.998901,45.187965 277.942017,50.283813 280.768494,54.656700
z"/>
<path fill="#ED5A6C" opacity="1.000000" stroke="none"
	d="
M226.798523,414.857513
	C190.779129,434.325104 148.080917,415.606201 139.076508,376.720001
	C131.615280,344.498169 152.092834,312.516083 184.805054,305.300659
	C216.268906,298.360596 247.956360,318.925842 255.024979,350.873566
	C260.537140,375.786652 249.664246,400.646851 226.798523,414.857513
M205.759811,387.483765
	C207.154129,388.898102 208.660934,390.219452 209.921448,391.744385
	C213.554596,396.139679 217.363312,397.113190 221.083771,394.452118
	C224.810165,391.786804 225.096130,387.195007 221.824753,382.553864
	C209.807800,365.505219 183.700119,365.681915 171.946472,382.891479
	C168.912460,387.333801 169.245667,391.737823 172.816467,394.390656
	C176.483673,397.115143 180.482086,396.198822 183.975906,391.833282
	C189.861603,384.479095 196.467026,382.994171 205.759811,387.483765
M180.823425,358.590027
	C186.324585,352.871338 187.871353,344.573761 183.841537,338.109833
	C182.379669,335.764954 179.309891,333.445282 176.665817,333.017517
	C171.122711,332.120667 166.712555,339.103210 167.047256,347.217987
	C167.378784,355.255859 172.001770,360.696686 177.873856,359.890411
	C178.664230,359.781830 179.402863,359.296600 180.823425,358.590027
M219.078842,332.933533
	C216.801270,333.617371 213.998886,333.684814 212.340897,335.096375
	C206.517151,340.054657 206.628769,352.429840 212.175781,357.706757
	C215.581314,360.946442 219.887131,360.810944 223.160004,357.361115
	C229.511200,350.666534 227.801041,338.110992 219.078842,332.933533
z"/>
<path fill="#F8DA42" opacity="1.000000" stroke="none"
	d="
M138.321686,203.670471
	C144.970123,173.304642 168.130875,153.919388 197.272263,153.969727
	C226.544006,154.020294 251.788666,175.917068 255.837845,204.768509
	C260.010345,234.498505 241.472610,262.791687 212.703629,270.602264
	C174.693512,280.921661 137.563568,252.457138 137.717117,213.082230
	C137.728775,210.088806 138.054276,207.096603 138.321686,203.670471
M221.584961,235.016861
	C222.677383,233.154221 223.951447,231.372528 224.824753,229.412277
	C226.700989,225.200790 225.322006,221.028152 221.646378,219.156311
	C217.857483,217.226776 213.477905,218.300949 211.591339,222.671234
	C206.060013,235.484604 187.785339,235.401413 182.420670,222.673523
	C180.827820,218.894424 177.426422,217.398148 173.290085,218.818604
	C168.558899,220.443329 167.089203,225.094589 169.559250,230.306244
	C179.124771,250.488846 205.880859,253.224457 221.584961,235.016861
M180.016708,207.666214
	C186.430267,202.201874 188.249420,192.363220 183.307236,185.746262
	C181.625488,183.494659 177.942398,181.547760 175.181641,181.558090
	C170.495163,181.575623 167.067917,187.952759 167.030579,194.784958
	C166.992950,201.669250 170.252472,207.387711 174.985397,208.326157
	C176.359528,208.598587 177.884094,208.112259 180.016708,207.666214
M208.816742,189.608948
	C208.969299,193.681366 208.537247,197.889130 209.439835,201.787903
	C210.331284,205.638367 213.225891,208.650009 217.643997,208.573425
	C221.795349,208.501450 224.539490,205.642899 225.490417,201.962570
	C226.416122,198.379776 226.768097,194.436813 226.344666,190.770630
	C225.806915,186.114868 223.425339,181.897079 218.227081,181.303360
	C213.063736,180.713608 210.647156,184.540146 208.816742,189.608948
z"/>
<path fill="#EE5B6D" opacity="1.000000" stroke="none"
	d="
M356.254089,380.744263
	C360.976318,385.470825 365.493378,389.903809 369.907806,394.436737
	C373.739319,398.371094 374.105835,402.696960 371.042999,405.901825
	C367.855072,409.237610 363.278564,408.930115 359.228912,404.911377
	C352.163269,397.899536 345.185608,390.798981 337.842285,383.404572
	C330.614471,390.669830 323.858398,397.529938 317.005493,404.291901
	C315.612610,405.666199 313.799713,407.703766 312.277069,407.622620
	C309.428619,407.470856 305.922546,406.741150 304.015411,404.887939
	C301.197021,402.149261 301.978851,398.327393 304.738953,395.485596
	C310.771454,389.274628 316.953156,383.208710 323.060822,377.070557
	C324.330292,375.794769 325.543152,374.462677 327.153839,372.764648
	C319.780090,365.426086 312.567871,358.332275 305.458221,351.137054
	C301.911285,347.547394 301.516724,343.659637 304.086914,340.416809
	C306.962891,336.788177 312.059845,336.668732 315.902649,340.457550
	C323.122070,347.575531 330.183472,354.853790 337.753479,362.513550
	C344.176971,356.042084 350.249115,349.922485 356.324188,343.805878
	C357.497620,342.624390 358.641693,341.409576 359.869904,340.287415
	C363.522400,336.950165 368.006439,336.801208 370.995758,339.870544
	C373.983612,342.938385 373.837860,347.348938 370.311798,350.985382
	C364.516388,356.962097 358.604492,362.828156 352.644836,368.641541
	C351.350037,369.904572 349.645813,370.747894 347.088745,372.496704
	C350.858490,375.878143 353.431427,378.186096 356.254089,380.744263
z"/>
<path fill="#7AD1B2" opacity="1.000000" stroke="none"
	d="
M358.686462,225.680038
	C354.354187,234.906647 350.247711,243.825821 346.003082,252.678741
	C342.269714,260.465302 336.389496,261.134857 331.046783,254.347610
	C321.986145,242.837128 313.010895,231.259018 304.051392,219.669464
	C300.157166,214.632141 300.241760,210.374878 304.117004,207.419632
	C307.837067,204.582733 312.114685,205.697998 316.010529,210.647537
	C322.692688,219.137009 329.319305,227.670181 336.494446,236.857529
	C337.545990,234.886795 338.413452,233.415634 339.139160,231.877563
	C348.370850,212.312027 357.577850,192.734863 366.807037,173.168167
	C367.515350,171.666534 368.172424,170.094666 369.150055,168.775360
	C371.446350,165.676666 374.701782,165.042313 378.064606,166.445221
	C381.535461,167.893219 382.987640,170.854172 382.224487,174.589020
	C381.896973,176.192032 381.168152,177.736923 380.467468,179.236160
	C373.280548,194.613876 366.061920,209.976761 358.686462,225.680038
z"/>
<path fill="#25396B" opacity="1.000000" stroke="none"
	d="
M205.437790,387.282410
	C196.467026,382.994171 189.861603,384.479095 183.975906,391.833282
	C180.482086,396.198822 176.483673,397.115143 172.816467,394.390656
	C169.245667,391.737823 168.912460,387.333801 171.946472,382.891479
	C183.700119,365.681915 209.807800,365.505219 221.824753,382.553864
	C225.096130,387.195007 224.810165,391.786804 221.083771,394.452118
	C217.363312,397.113190 213.554596,396.139679 209.921448,391.744385
	C208.660934,390.219452 207.154129,388.898102 205.437790,387.282410
z"/>
<path fill="#25396B" opacity="1.000000" stroke="none"
	d="
M180.494446,358.787903
	C179.402863,359.296600 178.664230,359.781830 177.873856,359.890411
	C172.001770,360.696686 167.378784,355.255859 167.047256,347.217987
	C166.712555,339.103210 171.122711,332.120667 176.665817,333.017517
	C179.309891,333.445282 182.379669,335.764954 183.841537,338.109833
	C187.871353,344.573761 186.324585,352.871338 180.494446,358.787903
z"/>
<path fill="#25396B" opacity="1.000000" stroke="none"
	d="
M219.467468,333.019104
	C227.801041,338.110992 229.511200,350.666534 223.160004,357.361115
	C219.887131,360.810944 215.581314,360.946442 212.175781,357.706757
	C206.628769,352.429840 206.517151,340.054657 212.340897,335.096375
	C213.998886,333.684814 216.801270,333.617371 219.467468,333.019104
z"/>
<path fill="#263C6A" opacity="1.000000" stroke="none"
	d="
M221.358307,235.298004
	C205.880859,253.224457 179.124771,250.488846 169.559250,230.306244
	C167.089203,225.094589 168.558899,220.443329 173.290085,218.818604
	C177.426422,217.398148 180.827820,218.894424 182.420670,222.673523
	C187.785339,235.401413 206.060013,235.484604 211.591339,222.671234
	C213.477905,218.300949 217.857483,217.226776 221.646378,219.156311
	C225.322006,221.028152 226.700989,225.200790 224.824753,229.412277
	C223.951447,231.372528 222.677383,233.154221 221.358307,235.298004
z"/>
<path fill="#273D6A" opacity="1.000000" stroke="none"
	d="
M179.678207,207.819977
	C177.884094,208.112259 176.359528,208.598587 174.985397,208.326157
	C170.252472,207.387711 166.992950,201.669250 167.030579,194.784958
	C167.067917,187.952759 170.495163,181.575623 175.181641,181.558090
	C177.942398,181.547760 181.625488,183.494659 183.307236,185.746262
	C188.249420,192.363220 186.430267,202.201874 179.678207,207.819977
z"/>
<path fill="#273D6A" opacity="1.000000" stroke="none"
	d="
M208.912064,189.216797
	C210.647156,184.540146 213.063736,180.713608 218.227081,181.303360
	C223.425339,181.897079 225.806915,186.114868 226.344666,190.770630
	C226.768097,194.436813 226.416122,198.379776 225.490417,201.962570
	C224.539490,205.642899 221.795349,208.501450 217.643997,208.573425
	C213.225891,208.650009 210.331284,205.638367 209.439835,201.787903
	C208.537247,197.889130 208.969299,193.681366 208.912064,189.216797
z"/>
</svg>
