<svg version="1.1" id="Layer_1" xmlns="http://www.w3.org/2000/svg" xmlns:xlink="http://www.w3.org/1999/xlink" x="0px" y="0px"
	 width="100%" viewBox="0 0 512 512" enable-background="new 0 0 512 512" xml:space="preserve">
<path fill="#000000" opacity="0" stroke="none"
	d="
M290.000000,513.000000
	C193.356796,513.000000 97.213585,513.000000 1.035192,513.000000
	C1.035192,342.398438 1.035192,171.796860 1.035192,1.097646
	C171.559891,1.097646 342.119843,1.097646 512.839905,1.097646
	C512.839905,171.666550 512.839905,342.333252 512.839905,513.000000
	C438.796844,513.000000 364.648407,513.000000 290.000000,513.000000
M218.149719,92.987854
	C186.299973,103.230942 162.961914,123.793488 147.162994,152.848434
	C137.119766,171.318375 133.172150,191.573227 133.022766,212.532898
	C132.906464,228.851624 133.351486,245.182388 132.863556,261.487335
	C132.586014,270.761841 132.066971,280.296967 129.695526,289.191864
	C121.923401,318.343872 106.500282,342.617767 81.439400,360.224152
	C71.040527,367.529846 64.188057,376.351074 64.732086,390.416412
	C65.303581,405.191711 77.692978,419.896790 94.506859,419.958527
	C134.971664,420.107117 175.437271,420.042084 215.960037,420.871094
	C215.306778,424.191895 214.085495,427.515289 214.100433,430.833069
	C214.159241,443.889984 218.655914,454.958069 228.455826,464.121246
	C245.359344,479.926483 274.344177,478.484833 289.397369,460.186340
	C299.207428,448.261383 302.136841,434.943878 299.018402,420.007629
	C338.677582,420.005005 378.336792,420.003418 417.995972,419.999359
	C432.239716,419.997894 443.834900,411.795197 448.185394,397.597198
	C451.933746,385.364288 447.585602,371.016815 436.797577,363.423920
	C425.367950,355.379425 415.000244,346.377136 406.536682,335.126343
	C390.619385,313.967072 381.680328,290.381897 381.036774,263.857300
	C380.521179,242.605942 380.472351,221.343246 379.954895,200.091949
	C379.573395,184.426331 374.925354,169.761551 368.267273,155.724930
	C359.072845,136.341141 345.212921,120.561584 327.710571,108.646477
	C317.834167,101.922905 306.016052,98.051620 295.037537,92.129807
	C299.832733,79.258324 299.937286,66.522621 292.866394,54.474724
	C284.323303,39.918453 271.283478,33.289150 254.429962,33.987404
	C236.933273,34.712303 221.368073,47.136787 217.082504,64.006615
	C214.618851,73.704628 215.391754,83.450294 218.149719,92.987854
M50.999336,229.500000
	C50.999546,238.995926 50.929417,248.492569 51.028385,257.987457
	C51.081215,263.055817 54.068142,265.914124 58.332001,264.934845
	C62.277950,264.028595 63.011021,260.821503 63.006413,257.292419
	C62.991398,245.797409 62.966042,234.302246 63.009392,222.807388
	C63.069088,206.978500 62.840462,191.220139 65.819122,175.460403
	C70.907112,148.540421 80.809654,123.721870 96.388931,101.331619
	C103.290276,91.413155 111.634178,82.496437 119.355606,73.151749
	C121.862167,70.118248 121.969231,67.281647 119.007660,64.496979
	C116.198593,61.855717 113.748169,62.536446 111.344620,65.137184
	C106.404579,70.482475 100.896507,75.388504 96.531723,81.162819
	C85.645569,95.564430 76.007477,110.693695 68.700356,127.393669
	C59.806179,147.720764 54.360325,168.838318 52.167793,190.738846
	C50.916298,203.239594 51.333496,215.907410 50.999336,229.500000
M452.002380,144.529358
	C446.923798,133.141632 442.336090,121.502022 436.652313,110.424828
	C427.999268,93.560829 416.364960,78.765076 402.945740,65.371109
	C400.364319,62.794556 397.886719,61.616848 394.911865,64.590714
	C391.868744,67.632828 392.165710,70.566864 395.073456,73.604210
	C399.301422,78.020653 403.766418,82.280266 407.477081,87.108765
	C418.904694,101.979065 428.855865,117.718971 436.121277,135.159973
	C444.991943,156.454575 450.383087,178.461334 450.921021,201.503098
	C451.321533,218.657181 450.999115,235.828156 450.999237,252.991608
	C450.999237,254.991226 450.726807,257.039215 451.066986,258.979523
	C451.623260,262.152557 452.702057,264.982819 456.849792,265.041260
	C461.245911,265.103180 462.338135,262.201172 462.969574,258.784607
	C463.148315,257.817566 463.025391,256.789276 462.996887,255.790298
	C462.335358,232.601624 461.895813,209.403458 460.916229,186.228149
	C460.321625,172.161148 456.633087,158.622375 452.002380,144.529358
M93.925049,174.261551
	C90.722313,186.249329 89.412361,198.474396 90.220413,210.820450
	C90.339592,212.641205 93.220497,215.475555 95.088486,215.707458
	C97.887657,216.054932 100.749077,214.457764 101.025223,210.616470
	C101.601807,202.595978 102.075203,194.555054 103.054359,186.579391
	C104.745720,172.802551 108.954384,159.687561 114.503960,147.009064
	C122.183464,129.464584 133.320801,114.230431 146.278839,100.274162
	C148.777664,97.582848 148.803635,94.875404 146.740906,92.373283
	C144.218307,89.313332 141.062943,89.338745 138.305527,92.237099
	C134.210388,96.541550 129.957413,100.749229 126.317833,105.423424
	C116.493492,118.040504 108.006645,131.555664 102.289413,146.530396
	C98.953194,155.268738 96.719292,164.427933 93.925049,174.261551
M419.084503,169.397781
	C415.281525,153.670364 409.806854,138.488342 400.828735,125.043900
	C393.236328,113.674538 384.349518,103.158394 375.839050,92.420410
	C373.437347,89.390114 369.708405,88.937851 367.572937,92.281830
	C366.393188,94.129280 366.519348,98.095139 367.768341,99.959412
	C371.031494,104.830208 375.388580,108.950066 379.041718,113.580597
	C401.075348,141.509628 412.390869,173.313980 412.901093,208.867661
	C412.964508,213.284561 414.929352,215.706833 418.709747,215.822601
	C422.636841,215.942871 423.916748,212.923233 424.063019,209.080002
	C424.567230,195.834198 422.110901,182.964645 419.084503,169.397781
z"/>
<path fill="#FFC400" opacity="1.000000" stroke="none"
	d="
M215.902557,420.063232
	C175.437271,420.042084 134.971664,420.107117 94.506859,419.958527
	C77.692978,419.896790 65.303581,405.191711 64.732086,390.416412
	C64.188057,376.351074 71.040527,367.529846 81.439400,360.224152
	C106.500282,342.617767 121.923401,318.343872 129.695526,289.191864
	C132.066971,280.296967 132.586014,270.761841 132.863556,261.487335
	C133.351486,245.182388 132.906464,228.851624 133.022766,212.532898
	C133.172150,191.573227 137.119766,171.318375 147.162994,152.848434
	C162.961914,123.793488 186.299973,103.230942 218.920456,92.898933
	C223.149887,91.516251 226.608597,90.222488 230.494705,88.960434
	C237.925980,88.328102 244.936081,87.066093 251.932236,87.139229
	C262.604218,87.250793 273.266571,88.285576 284.136536,89.233414
	C287.917572,90.657486 291.495087,91.776497 295.072571,92.895508
	C306.016052,98.051620 317.834167,101.922905 327.710571,108.646477
	C345.212921,120.561584 359.072845,136.341141 368.267273,155.724930
	C374.925354,169.761551 379.573395,184.426331 379.954895,200.091949
	C380.472351,221.343246 380.521179,242.605942 381.036774,263.857300
	C381.680328,290.381897 390.619385,313.967072 406.536682,335.126343
	C415.000244,346.377136 425.367950,355.379425 436.797577,363.423920
	C447.585602,371.016815 451.933746,385.364288 448.185394,397.597198
	C443.834900,411.795197 432.239716,419.997894 417.995972,419.999359
	C378.336792,420.003418 338.677582,420.005005 298.170959,419.860840
	C295.860321,419.486298 294.397461,419.062653 292.933899,419.060120
	C269.026978,419.018738 245.119873,419.008728 221.213043,419.074890
	C219.441986,419.079773 217.672668,419.718964 215.902557,420.063232
M169.833481,231.500000
	C169.842056,223.840744 169.701691,216.177902 169.885910,208.522873
	C170.557205,180.627060 182.136032,158.118729 204.011963,140.990494
	C219.044678,129.220291 236.339310,123.458801 255.405090,123.014198
	C258.956024,122.931389 261.849121,121.939484 261.918793,117.824684
	C261.991791,113.512962 258.949554,112.664070 255.436478,112.879593
	C250.628601,113.174538 245.791458,113.349991 241.032852,114.035042
	C198.538757,120.152512 162.764252,158.095123 160.072235,200.836472
	C158.891800,219.578568 159.430481,238.429153 159.198883,257.230591
	C159.151627,261.066864 160.082916,264.721649 164.635284,264.616943
	C169.174835,264.512573 169.849152,260.760986 169.838181,256.976288
	C169.814514,248.817596 169.832214,240.658768 169.833481,231.500000
z"/>
<path fill="#FF9100" opacity="1.000000" stroke="none"
	d="
M215.931305,420.467163
	C217.672668,419.718964 219.441986,419.079773 221.213043,419.074890
	C245.119873,419.008728 269.026978,419.018738 292.933899,419.060120
	C294.397461,419.062653 295.860321,419.486298 297.708984,419.889771
	C302.136841,434.943878 299.207428,448.261383 289.397369,460.186340
	C274.344177,478.484833 245.359344,479.926483 228.455826,464.121246
	C218.655914,454.958069 214.159241,443.889984 214.100433,430.833069
	C214.085495,427.515289 215.306778,424.191895 215.931305,420.467163
z"/>
<path fill="#FF9100" opacity="1.000000" stroke="none"
	d="
M50.999336,229.000000
	C51.333496,215.907410 50.916298,203.239594 52.167793,190.738846
	C54.360325,168.838318 59.806179,147.720764 68.700356,127.393669
	C76.007477,110.693695 85.645569,95.564430 96.531723,81.162819
	C100.896507,75.388504 106.404579,70.482475 111.344620,65.137184
	C113.748169,62.536446 116.198593,61.855717 119.007660,64.496979
	C121.969231,67.281647 121.862167,70.118248 119.355606,73.151749
	C111.634178,82.496437 103.290276,91.413155 96.388931,101.331619
	C80.809654,123.721870 70.907112,148.540421 65.819122,175.460403
	C62.840462,191.220139 63.069088,206.978500 63.009392,222.807388
	C62.966042,234.302246 62.991398,245.797409 63.006413,257.292419
	C63.011021,260.821503 62.277950,264.028595 58.332001,264.934845
	C54.068142,265.914124 51.081215,263.055817 51.028385,257.987457
	C50.929417,248.492569 50.999546,238.995926 50.999336,229.000000
z"/>
<path fill="#FF9100" opacity="1.000000" stroke="none"
	d="
M452.038177,144.934631
	C456.633087,158.622375 460.321625,172.161148 460.916229,186.228149
	C461.895813,209.403458 462.335358,232.601624 462.996887,255.790298
	C463.025391,256.789276 463.148315,257.817566 462.969574,258.784607
	C462.338135,262.201172 461.245911,265.103180 456.849792,265.041260
	C452.702057,264.982819 451.623260,262.152557 451.066986,258.979523
	C450.726807,257.039215 450.999237,254.991226 450.999237,252.991608
	C450.999115,235.828156 451.321533,218.657181 450.921021,201.503098
	C450.383087,178.461334 444.991943,156.454575 436.121277,135.159973
	C428.855865,117.718971 418.904694,101.979065 407.477081,87.108765
	C403.766418,82.280266 399.301422,78.020653 395.073456,73.604210
	C392.165710,70.566864 391.868744,67.632828 394.911865,64.590714
	C397.886719,61.616848 400.364319,62.794556 402.945740,65.371109
	C416.364960,78.765076 427.999268,93.560829 436.652313,110.424828
	C442.336090,121.502022 446.923798,133.141632 452.038177,144.934631
z"/>
<path fill="#FF9100" opacity="1.000000" stroke="none"
	d="
M295.055054,92.512665
	C291.495087,91.776497 287.917572,90.657486 284.174988,88.851654
	C291.261078,76.067322 284.827911,56.245903 272.157745,49.198498
	C258.194336,41.431770 241.276581,45.843613 233.016281,57.165524
	C225.790436,67.069527 224.910721,77.770721 230.067291,88.928726
	C226.608597,90.222488 223.149887,91.516251 219.310028,92.851471
	C215.391754,83.450294 214.618851,73.704628 217.082504,64.006615
	C221.368073,47.136787 236.933273,34.712303 254.429962,33.987404
	C271.283478,33.289150 284.323303,39.918453 292.866394,54.474724
	C299.937286,66.522621 299.832733,79.258324 295.055054,92.512665
z"/>
<path fill="#FF9100" opacity="1.000000" stroke="none"
	d="
M93.957245,173.829666
	C96.719292,164.427933 98.953194,155.268738 102.289413,146.530396
	C108.006645,131.555664 116.493492,118.040504 126.317833,105.423424
	C129.957413,100.749229 134.210388,96.541550 138.305527,92.237099
	C141.062943,89.338745 144.218307,89.313332 146.740906,92.373283
	C148.803635,94.875404 148.777664,97.582848 146.278839,100.274162
	C133.320801,114.230431 122.183464,129.464584 114.503960,147.009064
	C108.954384,159.687561 104.745720,172.802551 103.054359,186.579391
	C102.075203,194.555054 101.601807,202.595978 101.025223,210.616470
	C100.749077,214.457764 97.887657,216.054932 95.088486,215.707458
	C93.220497,215.475555 90.339592,212.641205 90.220413,210.820450
	C89.412361,198.474396 90.722313,186.249329 93.957245,173.829666
z"/>
<path fill="#FF9100" opacity="1.000000" stroke="none"
	d="
M419.328979,169.743408
	C422.110901,182.964645 424.567230,195.834198 424.063019,209.080002
	C423.916748,212.923233 422.636841,215.942871 418.709747,215.822601
	C414.929352,215.706833 412.964508,213.284561 412.901093,208.867661
	C412.390869,173.313980 401.075348,141.509628 379.041718,113.580597
	C375.388580,108.950066 371.031494,104.830208 367.768341,99.959412
	C366.519348,98.095139 366.393188,94.129280 367.572937,92.281830
	C369.708405,88.937851 373.437347,89.390114 375.839050,92.420410
	C384.349518,103.158394 393.236328,113.674538 400.828735,125.043900
	C409.806854,138.488342 415.281525,153.670364 419.328979,169.743408
z"/>
<path fill="#000000" opacity="1.000000" stroke="none"
	d="
M230.494705,88.960434
	C224.910721,77.770721 225.790436,67.069527 233.016281,57.165524
	C241.276581,45.843613 258.194336,41.431770 272.157745,49.198498
	C284.827911,56.245903 291.261078,76.067322 283.971466,88.546600
	C273.266571,88.285576 262.604218,87.250793 251.932236,87.139229
	C244.936081,87.066093 237.925980,88.328102 230.494705,88.960434
z"/>
<path fill="#FFE47A" opacity="1.000000" stroke="none"
	d="
M169.833237,232.000000
	C169.832214,240.658768 169.814514,248.817596 169.838181,256.976288
	C169.849152,260.760986 169.174835,264.512573 164.635284,264.616943
	C160.082916,264.721649 159.151627,261.066864 159.198883,257.230591
	C159.430481,238.429153 158.891800,219.578568 160.072235,200.836472
	C162.764252,158.095123 198.538757,120.152512 241.032852,114.035042
	C245.791458,113.349991 250.628601,113.174538 255.436478,112.879593
	C258.949554,112.664070 261.991791,113.512962 261.918793,117.824684
	C261.849121,121.939484 258.956024,122.931389 255.405090,123.014198
	C236.339310,123.458801 219.044678,129.220291 204.011963,140.990494
	C182.136032,158.118729 170.557205,180.627060 169.885910,208.522873
	C169.701691,216.177902 169.842056,223.840744 169.833237,232.000000
z"/>
</svg>
