<svg version="1.1" id="Layer_1" xmlns="http://www.w3.org/2000/svg" xmlns:xlink="http://www.w3.org/1999/xlink" x="0px" y="0px"
	 width="100%" viewBox="0 0 512 512" enable-background="new 0 0 512 512" xml:space="preserve">
<path fill="#000000" opacity="0" stroke="none"
	d="
M513.000000,179.000000
	C513.000000,290.639526 513.000000,401.779053 513.000000,512.959290
	C342.402130,512.959290 171.804245,512.959290 1.103185,512.959290
	C1.103185,342.443848 1.103185,171.887589 1.103185,1.165670
	C171.666534,1.165670 342.333252,1.165670 513.000000,1.165670
	C513.000000,60.195713 513.000000,119.347855 513.000000,179.000000
M422.231842,383.262848
	C423.455688,380.977020 424.775299,378.736755 425.887909,376.398041
	C433.612427,360.160980 438.403931,343.208984 437.969055,325.064087
	C437.827087,319.140625 438.050110,313.074707 436.843597,307.339569
	C434.653442,296.928558 432.551483,286.294128 428.556427,276.510986
	C420.633606,257.109528 407.932587,240.946579 390.925018,228.492462
	C380.283997,220.700348 368.915955,214.165024 355.988922,209.914322
	C355.991974,151.441223 355.995026,92.968124 355.998108,34.495026
	C355.998138,33.828667 356.020905,33.161415 355.994720,32.496094
	C355.854004,28.921282 354.623932,26.704966 350.407104,26.937572
	C345.424561,27.212418 340.415283,27.002125 335.417572,27.002125
	C235.796738,27.002138 136.175919,27.014711 36.555115,26.959787
	C32.221420,26.957399 29.230034,27.759573 30.027964,33.945972
	C30.023895,156.383957 30.019032,278.821930 30.017942,401.259918
	C30.017885,407.856781 31.134945,408.987000 37.667332,408.987518
	C94.471909,408.992065 151.276474,408.998291 208.081055,408.982819
	C218.071777,408.980072 228.062469,408.878510 238.654800,409.126831
	C249.898621,420.560852 263.304047,428.462677 278.263580,434.105377
	C296.010925,440.799561 314.204285,442.940430 333.663025,440.973785
	C334.450043,440.672211 335.237061,440.370605 336.673615,439.959167
	C337.108032,439.905396 337.542419,439.851624 338.814240,439.974152
	C340.117065,439.866333 341.444824,439.884338 342.718842,439.631378
	C356.289185,436.937378 368.857269,431.599640 381.011566,425.741730
	C388.083740,433.727783 395.156891,441.712952 402.227753,449.700165
	C407.349243,455.485352 412.397797,461.337097 417.609192,467.040070
	C421.933380,471.772156 425.953796,476.974091 430.980743,480.831635
	C441.435974,488.854736 453.124878,489.095093 465.789124,484.020630
	C469.821625,480.546082 474.720795,477.691162 477.728577,473.484009
	C487.849213,459.327972 485.823639,441.183105 473.296631,429.884766
	C464.598358,422.039612 455.767975,414.341156 447.040894,406.527710
	C438.667480,399.030914 430.351135,391.470367 422.231842,383.262848
z"/>
<path fill="#ECEFF1" opacity="1.000000" stroke="none"
	d="
M238.053177,408.822601
	C228.062469,408.878510 218.071777,408.980072 208.081055,408.982819
	C151.276474,408.998291 94.471909,408.992065 37.667332,408.987518
	C31.134945,408.987000 30.017885,407.856781 30.017942,401.259918
	C30.019032,278.821930 30.023895,156.383957 30.555349,33.473648
	C134.559296,32.996220 238.035858,32.990627 341.512421,32.987003
	C349.303314,32.986732 349.996277,33.677429 349.996704,41.571861
	C349.999786,97.392570 349.995453,153.213287 349.578979,209.038696
	C344.116180,208.251221 339.067902,207.459030 333.663635,206.467712
	C326.356964,206.061066 319.297485,204.986801 312.480255,205.842499
	C301.343384,207.240402 290.364380,209.895920 278.824341,211.969116
	C238.902832,211.901352 199.475769,211.885223 160.048706,211.870148
	C159.383316,211.869904 158.493134,211.607376 158.091415,211.936035
	C156.343018,213.366501 153.463791,214.938416 153.423630,216.520554
	C153.380249,218.229782 155.781754,220.389847 157.610703,221.617371
	C158.776855,222.400024 160.840378,221.881592 162.501678,221.885208
	C194.438950,221.954437 226.376251,222.014587 258.118378,222.366333
	C251.785370,227.413345 245.387924,231.874969 239.563370,236.989059
	C227.185928,247.856750 218.466858,261.484436 210.764069,276.114746
	C193.607300,276.075928 176.943954,276.105316 160.280975,276.039307
	C156.567551,276.024597 153.203125,276.764740 153.204208,281.107391
	C153.205292,285.513519 156.642227,286.085815 160.322479,286.073517
	C176.152115,286.020691 191.982101,286.076965 207.712036,286.442078
	C207.082230,288.531586 206.519928,290.263458 206.027542,292.014984
	C201.567917,307.878723 201.084000,324.004730 202.411758,340.276001
	C187.986053,340.272583 174.018738,340.260773 160.051453,340.277435
	C156.401428,340.281799 153.062378,341.229065 153.163757,345.609283
	C153.258316,349.695068 156.442932,350.478394 159.932419,350.465790
	C174.896561,350.411713 189.860886,350.398438 204.907898,350.783752
	C206.288132,355.307068 207.495178,359.448029 208.898727,363.521301
	C214.919159,380.993591 225.367599,395.631592 238.053177,408.822601
M129.066330,153.169876
	C129.066330,153.169876 129.177124,153.193481 129.961426,153.249802
	C131.002213,151.430786 133.131485,149.468048 132.913239,147.815308
	C131.004547,133.360962 135.423492,121.268600 145.057938,110.525444
	C148.781448,106.373436 147.411865,102.951233 142.173691,101.040154
	C137.184677,99.219971 131.997360,97.900826 127.118965,95.837181
	C124.542503,94.747307 122.046349,92.881012 120.205986,90.763725
	C116.726730,86.760948 113.789032,82.291611 110.543938,78.079605
	C108.597488,75.553177 106.355713,73.666870 102.382668,76.257668
	C98.721481,80.975266 95.251610,85.860863 91.318398,90.339577
	C89.351791,92.578949 86.774704,94.623489 84.058792,95.790321
	C78.892708,98.009804 73.353455,99.344818 68.111862,101.409416
	C63.909424,103.064713 63.149429,105.986290 65.491219,109.786163
	C66.361214,111.197853 67.270782,112.625893 68.388832,113.837418
	C75.976181,122.059212 79.873055,131.459976 78.034828,142.822571
	C77.798813,144.281494 77.972252,145.813156 78.014511,147.309479
	C78.177849,153.094147 80.736809,154.990356 86.446739,153.375412
	C91.233139,152.021667 95.887665,150.070374 100.745628,149.145767
	C104.156189,148.496628 107.912621,148.618118 111.332916,149.302917
	C116.980080,150.433594 122.480507,152.297195 128.566086,153.839005
	C128.737244,153.578461 128.908401,153.317917 129.066330,153.169876
M313.748291,153.877304
	C318.048126,152.796387 318.159729,149.407486 317.969543,145.984528
	C317.354614,134.916107 317.876678,124.514732 326.167236,115.483955
	C336.073212,104.693565 332.571960,101.940697 320.467407,98.964264
	C311.034027,96.644661 304.030243,91.796379 299.228577,83.451454
	C297.994934,81.307457 296.389404,79.357430 294.809509,77.437843
	C292.971344,75.204529 290.805542,73.891914 287.334473,76.186951
	C286.229614,77.418114 284.844666,78.494339 284.064331,79.905014
	C277.941040,90.974762 268.835297,97.509438 256.350647,100.266479
	C247.649185,102.188057 246.589096,105.939568 252.494843,112.808243
	C260.481201,122.096764 264.820709,132.228180 262.963409,144.601212
	C262.792633,145.738770 262.927246,146.928238 262.974640,148.091385
	C263.177368,153.068100 265.617188,154.997757 270.470856,153.661102
	C275.425049,152.296768 280.212006,150.225494 285.222931,149.201523
	C288.625610,148.506210 292.394928,148.540329 295.810730,149.212112
	C301.621674,150.354965 307.283295,152.257004 313.748291,153.877304
M220.793076,153.946136
	C224.633041,153.527786 225.603806,150.759369 225.739197,147.575577
	C225.915771,143.423096 226.104065,139.240341 225.803299,135.105835
	C225.396606,129.515244 226.710129,124.778458 230.484451,120.479286
	C233.319138,117.250420 235.669922,113.557304 237.953659,109.894730
	C240.468521,105.861526 239.541595,102.236336 235.042023,101.333832
	C220.485962,98.414284 209.740479,90.764809 202.645126,77.713341
	C201.333038,75.299835 198.835297,73.945587 195.209686,75.974136
	C194.587448,76.502129 193.742249,76.907913 193.375900,77.576195
	C186.380646,90.337166 176.043991,98.322525 161.533112,101.127235
	C156.292160,102.140236 155.360535,105.980453 158.445389,110.634422
	C161.016205,114.512871 163.697250,118.334534 166.573486,121.989296
	C169.039932,125.123329 170.430298,128.342926 170.142136,132.475616
	C169.818832,137.112717 170.039932,141.794510 170.153244,146.453720
	C170.314362,153.077835 173.133698,155.124512 179.410904,153.253601
	C183.546112,152.021088 187.754395,150.957550 191.758957,149.383347
	C196.217422,147.630707 200.383896,147.922897 204.817734,149.457352
	C209.805862,151.183624 214.967285,152.409241 220.793076,153.946136
M110.269241,282.772369
	C113.919258,279.122437 117.548859,275.451782 121.226128,271.829529
	C123.869682,269.225555 125.579956,266.321320 122.284882,263.277924
	C119.271561,260.494720 116.495323,262.143280 114.063942,264.667542
	C109.349342,269.562317 104.592987,274.416870 99.210732,279.949249
	C96.921677,277.346771 95.394371,274.644806 93.078857,273.297791
	C91.372147,272.304932 87.406120,272.206604 86.646141,273.274628
	C85.499527,274.886017 85.615730,278.114868 86.414742,280.185760
	C87.183945,282.179382 89.491570,283.585785 91.141037,285.232361
	C99.485985,293.562836 99.487984,293.560760 107.648201,285.392273
	C108.354279,284.685455 109.061142,283.979431 110.269241,282.772369
M122.697540,327.945007
	C119.685463,325.091003 117.046036,326.046326 114.483650,328.670319
	C109.620895,333.649994 104.712959,338.585571 98.775749,344.601349
	C96.759598,341.993988 95.266792,339.754211 93.459213,337.806610
	C91.351860,335.536072 88.720451,335.152954 86.403023,337.403900
	C83.936859,339.799347 84.289429,342.530823 86.552177,344.921356
	C89.299950,347.824341 92.219818,350.563629 95.006310,353.431000
	C98.080223,356.594147 101.009201,356.422180 104.044975,353.350006
	C109.900818,347.423920 116.010010,341.730804 121.570190,335.542175
	C122.961464,333.993683 122.665504,330.929230 122.697540,327.945007
M94.995522,210.537918
	C92.401474,207.810623 89.464417,205.472443 86.152092,209.089233
	C83.159302,212.357086 85.314362,215.151642 87.930595,217.635254
	C90.585899,220.155945 92.831642,223.264725 95.848351,225.188019
	C97.597954,226.303482 101.474281,226.662292 102.743423,225.523148
	C109.670868,219.305328 116.221115,212.644211 122.615959,205.866516
	C125.475609,202.835663 123.833191,198.146866 119.954254,197.960144
	C118.102371,197.870987 115.738869,198.939346 114.356674,200.264984
	C109.376228,205.041687 104.714714,210.150925 99.188995,215.909637
	C97.541153,213.726669 96.533913,212.392334 94.995522,210.537918
z"/>
<path fill="#FFD267" opacity="1.000000" stroke="none"
	d="
M211.257629,276.148560
	C218.466858,261.484436 227.185928,247.856750 239.563370,236.989059
	C245.387924,231.874969 251.785370,227.413345 258.436584,222.266266
	C265.739532,218.591293 272.529144,215.306091 279.318756,212.020874
	C290.364380,209.895920 301.343384,207.240402 312.480255,205.842499
	C319.297485,204.986801 326.356964,206.061066 333.875122,206.806625
	C361.585754,213.050064 384.755920,225.500732 402.667145,247.114990
	C423.422760,272.161682 432.957153,300.580353 430.168060,333.248749
	C428.624237,351.331757 423.556091,368.085632 414.191193,383.480774
	C397.679962,410.624054 374.178101,428.708893 343.395508,437.140564
	C341.489624,437.662567 339.778534,438.895599 337.976837,439.797852
	C337.542419,439.851624 337.108032,439.905396 336.164612,439.759399
	C334.762756,439.972351 333.869843,440.385010 332.976929,440.797729
	C314.204285,442.940430 296.010925,440.799561 278.263580,434.105377
	C263.304047,428.462677 249.898621,420.560852 238.353989,408.974731
	C225.367599,395.631592 214.919159,380.993591 208.898727,363.521301
	C207.495178,359.448029 206.288132,355.307068 204.932892,350.435486
	C204.206772,346.541901 203.538452,343.410095 202.870148,340.278259
	C201.084000,324.004730 201.567917,307.878723 206.027542,292.014984
	C206.519928,290.263458 207.082230,288.531586 207.835785,286.081879
	C209.125519,282.298309 210.191574,279.223419 211.257629,276.148560
M309.841461,411.207275
	C320.854431,412.981995 331.690338,412.005493 342.455658,409.295074
	C381.737610,399.404846 413.001221,360.185089 408.192444,313.862305
	C404.584900,279.111145 378.548889,247.240295 344.888306,237.949844
	C332.327972,234.483139 319.780426,233.799042 306.159729,235.942062
	C304.996521,236.001282 303.802338,235.909653 302.674622,236.141510
	C261.775085,244.550537 232.616867,278.781250 231.141296,319.758270
	C230.109467,348.412354 240.795319,372.434082 262.654572,391.058716
	C275.964569,402.399231 291.275909,409.707886 309.841461,411.207275
z"/>
<path fill="#C49E6C" opacity="1.000000" stroke="none"
	d="
M465.088196,484.157074
	C453.124878,489.095093 441.435974,488.854736 430.980743,480.831635
	C425.953796,476.974091 421.933380,471.772156 417.609192,467.040070
	C412.397797,461.337097 407.349243,455.485352 402.227753,449.700165
	C395.156891,441.712952 388.083740,433.727783 381.138123,425.086548
	C383.521088,422.776733 385.918610,421.282196 388.008820,419.439087
	C396.050537,412.347931 403.993958,405.145264 412.321411,398.024109
	C419.896118,404.326782 427.206665,410.496552 434.329376,416.876099
	C442.955475,424.602173 450.998840,433.043121 460.067200,440.194763
	C471.131958,448.920746 473.744659,466.024780 468.462646,477.069672
	C467.333771,479.430176 466.212799,481.794495 465.088196,484.157074
z"/>
<path fill="#D5D8DA" opacity="1.000000" stroke="none"
	d="
M349.993500,209.033997
	C349.995453,153.213287 349.999786,97.392570 349.996704,41.571861
	C349.996277,33.677429 349.303314,32.986732 341.512421,32.987003
	C238.035858,32.990627 134.559296,32.996220 30.624784,33.010857
	C29.230034,27.759573 32.221420,26.957399 36.555115,26.959787
	C136.175919,27.014711 235.796738,27.002138 335.417572,27.002125
	C340.415283,27.002125 345.424561,27.212418 350.407104,26.937572
	C354.623932,26.704966 355.854004,28.921282 355.994720,32.496094
	C356.020905,33.161415 355.998138,33.828667 355.998108,34.495026
	C355.995026,92.968124 355.991974,151.441223 355.626801,210.375290
	C353.507629,210.235504 351.750549,209.634750 349.993500,209.033997
z"/>
<path fill="#E7BD5D" opacity="1.000000" stroke="none"
	d="
M349.578979,209.038696
	C351.750549,209.634750 353.507629,210.235504 355.621216,210.833282
	C368.915955,214.165024 380.283997,220.700348 390.925018,228.492462
	C407.932587,240.946579 420.633606,257.109528 428.556427,276.510986
	C432.551483,286.294128 434.653442,296.928558 436.843597,307.339569
	C438.050110,313.074707 437.827087,319.140625 437.969055,325.064087
	C438.403931,343.208984 433.612427,360.160980 425.887909,376.398041
	C424.775299,378.736755 423.455688,380.977020 421.816772,383.757019
	C418.259125,388.828857 415.116547,393.406494 411.973999,397.984131
	C403.993958,405.145264 396.050537,412.347931 388.008820,419.439087
	C385.918610,421.282196 383.521088,422.776733 381.110840,424.736511
	C368.857269,431.599640 356.289185,436.937378 342.718842,439.631378
	C341.444824,439.884338 340.117065,439.866333 338.395538,439.885986
	C339.778534,438.895599 341.489624,437.662567 343.395508,437.140564
	C374.178101,428.708893 397.679962,410.624054 414.191193,383.480774
	C423.556091,368.085632 428.624237,351.331757 430.168060,333.248749
	C432.957153,300.580353 423.422760,272.161682 402.667145,247.114990
	C384.755920,225.500732 361.585754,213.050064 334.231079,207.005737
	C339.067902,207.459030 344.116180,208.251221 349.578979,209.038696
z"/>
<path fill="#B08E61" opacity="1.000000" stroke="none"
	d="
M412.321381,398.024109
	C415.116547,393.406494 418.259125,388.828857 421.705688,384.094543
	C430.351135,391.470367 438.667480,399.030914 447.040894,406.527710
	C455.767975,414.341156 464.598358,422.039612 473.296631,429.884766
	C485.823639,441.183105 487.849213,459.327972 477.728577,473.484009
	C474.720795,477.691162 469.821625,480.546082 465.438660,484.088867
	C466.212799,481.794495 467.333771,479.430176 468.462646,477.069672
	C473.744659,466.024780 471.131958,448.920746 460.067200,440.194763
	C450.998840,433.043121 442.955475,424.602173 434.329376,416.876099
	C427.206665,410.496552 419.896118,404.326782 412.321381,398.024109
z"/>
<path fill="#E7BD5D" opacity="1.000000" stroke="none"
	d="
M333.319977,440.885742
	C333.869843,440.385010 334.762756,439.972351 335.839874,439.814331
	C335.237061,440.370605 334.450043,440.672211 333.319977,440.885742
z"/>
<path fill="#FFD267" opacity="1.000000" stroke="none"
	d="
M220.053314,153.852646
	C214.967285,152.409241 209.805862,151.183624 204.817734,149.457352
	C200.383896,147.922897 196.217422,147.630707 191.758957,149.383347
	C187.754395,150.957550 183.546112,152.021088 179.410904,153.253601
	C173.133698,155.124512 170.314362,153.077835 170.153244,146.453720
	C170.039932,141.794510 169.818832,137.112717 170.142136,132.475616
	C170.430298,128.342926 169.039932,125.123329 166.573486,121.989296
	C163.697250,118.334534 161.016205,114.512871 158.445389,110.634422
	C155.360535,105.980453 156.292160,102.140236 161.533112,101.127235
	C176.043991,98.322525 186.380646,90.337166 193.375900,77.576195
	C193.742249,76.907913 194.587448,76.502129 195.706055,76.209915
	C197.738190,78.180000 199.641006,79.708420 200.748535,81.682938
	C206.729889,92.346535 215.399063,98.813675 227.536255,101.513161
	C236.373215,103.478638 237.060791,106.735069 231.926880,114.123466
	C231.362137,114.936211 230.703598,115.684563 230.077484,116.453751
	C224.418182,123.406281 220.563019,130.757675 221.786240,140.348206
	C222.341949,144.705124 220.698944,149.342499 220.053314,153.852646
z"/>
<path fill="#FFD267" opacity="1.000000" stroke="none"
	d="
M128.042770,153.851913
	C122.480507,152.297195 116.980080,150.433594 111.332916,149.302917
	C107.912621,148.618118 104.156189,148.496628 100.745628,149.145767
	C95.887665,150.070374 91.233139,152.021667 86.446739,153.375412
	C80.736809,154.990356 78.177849,153.094147 78.014511,147.309479
	C77.972252,145.813156 77.798813,144.281494 78.034828,142.822571
	C79.873055,131.459976 75.976181,122.059212 68.388832,113.837418
	C67.270782,112.625893 66.361214,111.197853 65.491219,109.786163
	C63.149429,105.986290 63.909424,103.064713 68.111862,101.409416
	C73.353455,99.344818 78.892708,98.009804 84.058792,95.790321
	C86.774704,94.623489 89.351791,92.578949 91.318398,90.339577
	C95.251610,85.860863 98.721481,80.975266 102.909271,76.410118
	C106.688805,80.492432 110.248741,84.212341 113.116417,88.405663
	C116.647560,93.569183 120.876534,97.245811 127.141426,98.636490
	C131.012604,99.495811 134.775330,100.938820 138.495834,102.358093
	C143.302216,104.191574 144.172531,106.931084 141.457336,111.201462
	C140.124588,113.297585 138.512329,115.218864 137.220245,117.337379
	C134.418137,121.931679 130.287964,126.331131 129.360397,131.306122
	C128.043762,138.367813 129.122147,145.876053 129.177124,153.193481
	C129.177124,153.193481 129.066330,153.169876 128.859772,153.188080
	C128.375946,153.351730 128.172455,153.566940 128.042770,153.851913
z"/>
<path fill="#FFD266" opacity="1.000000" stroke="none"
	d="
M313.007690,153.840042
	C307.283295,152.257004 301.621674,150.354965 295.810730,149.212112
	C292.394928,148.540329 288.625610,148.506210 285.222931,149.201523
	C280.212006,150.225494 275.425049,152.296768 270.470856,153.661102
	C265.617188,154.997757 263.177368,153.068100 262.974640,148.091385
	C262.927246,146.928238 262.792633,145.738770 262.963409,144.601212
	C264.820709,132.228180 260.481201,122.096764 252.494843,112.808243
	C246.589096,105.939568 247.649185,102.188057 256.350647,100.266479
	C268.835297,97.509438 277.941040,90.974762 284.064331,79.905014
	C284.844666,78.494339 286.229614,77.418114 287.858582,76.344131
	C291.296539,80.076736 294.520172,83.447220 297.052612,87.274963
	C300.987457,93.222420 305.871765,97.386948 313.021210,98.969719
	C316.878448,99.823647 320.568634,101.501320 324.270569,102.968033
	C328.029724,104.457420 328.778107,107.160309 326.668854,110.509018
	C324.991211,113.172501 323.245422,115.830284 321.222809,118.231995
	C316.018616,124.411591 312.819061,131.005676 313.839539,139.519897
	C314.399567,144.192917 313.338043,149.060303 313.007690,153.840042
z"/>
<path fill="#645563" opacity="1.000000" stroke="none"
	d="
M278.824341,211.969131
	C272.529144,215.306091 265.739532,218.591293 258.631714,221.976532
	C226.376251,222.014587 194.438950,221.954437 162.501678,221.885208
	C160.840378,221.881592 158.776855,222.400024 157.610703,221.617371
	C155.781754,220.389847 153.380249,218.229782 153.423630,216.520554
	C153.463791,214.938416 156.343018,213.366501 158.091415,211.936035
	C158.493134,211.607376 159.383316,211.869904 160.048706,211.870148
	C199.475769,211.885223 238.902832,211.901352 278.824341,211.969131
z"/>
<path fill="#635562" opacity="1.000000" stroke="none"
	d="
M210.764069,276.114746
	C210.191574,279.223419 209.125519,282.298309 207.935730,285.733337
	C191.982101,286.076965 176.152115,286.020691 160.322479,286.073517
	C156.642227,286.085815 153.205292,285.513519 153.204208,281.107391
	C153.203125,276.764740 156.567551,276.024597 160.280975,276.039307
	C176.943954,276.105316 193.607300,276.075928 210.764069,276.114746
z"/>
<path fill="#675966" opacity="1.000000" stroke="none"
	d="
M202.411758,340.276001
	C203.538452,343.410095 204.206772,346.541901 204.850113,350.022034
	C189.860886,350.398438 174.896561,350.411713 159.932419,350.465790
	C156.442932,350.478394 153.258316,349.695068 153.163757,345.609283
	C153.062378,341.229065 156.401428,340.281799 160.051453,340.277435
	C174.018738,340.260773 187.986053,340.272583 202.411758,340.276001
z"/>
<path fill="#655764" opacity="1.000000" stroke="none"
	d="
M110.018440,283.022705
	C109.061142,283.979431 108.354279,284.685455 107.648201,285.392273
	C99.487984,293.560760 99.485985,293.562836 91.141037,285.232361
	C89.491570,283.585785 87.183945,282.179382 86.414742,280.185760
	C85.615730,278.114868 85.499527,274.886017 86.646141,273.274628
	C87.406120,272.206604 91.372147,272.304932 93.078857,273.297791
	C95.394371,274.644806 96.921677,277.346771 99.210732,279.949249
	C104.592987,274.416870 109.349342,269.562317 114.063942,264.667542
	C116.495323,262.143280 119.271561,260.494720 122.284882,263.277924
	C125.579956,266.321320 123.869682,269.225555 121.226128,271.829529
	C117.548859,275.451782 113.919258,279.122437 110.018440,283.022705
z"/>
<path fill="#655664" opacity="1.000000" stroke="none"
	d="
M122.921265,328.253265
	C122.665504,330.929230 122.961464,333.993683 121.570190,335.542175
	C116.010010,341.730804 109.900818,347.423920 104.044975,353.350006
	C101.009201,356.422180 98.080223,356.594147 95.006310,353.431000
	C92.219818,350.563629 89.299950,347.824341 86.552177,344.921356
	C84.289429,342.530823 83.936859,339.799347 86.403023,337.403900
	C88.720451,335.152954 91.351860,335.536072 93.459213,337.806610
	C95.266792,339.754211 96.759598,341.993988 98.775749,344.601349
	C104.712959,338.585571 109.620895,333.649994 114.483650,328.670319
	C117.046036,326.046326 119.685463,325.091003 122.921265,328.253265
z"/>
<path fill="#645563" opacity="1.000000" stroke="none"
	d="
M95.261101,210.797958
	C96.533913,212.392334 97.541153,213.726669 99.188995,215.909637
	C104.714714,210.150925 109.376228,205.041687 114.356674,200.264984
	C115.738869,198.939346 118.102371,197.870987 119.954254,197.960144
	C123.833191,198.146866 125.475609,202.835663 122.615959,205.866516
	C116.221115,212.644211 109.670868,219.305328 102.743423,225.523148
	C101.474281,226.662292 97.597954,226.303482 95.848351,225.188019
	C92.831642,223.264725 90.585899,220.155945 87.930595,217.635254
	C85.314362,215.151642 83.159302,212.357086 86.152092,209.089233
	C89.464417,205.472443 92.401474,207.810623 95.261101,210.797958
z"/>
<path fill="#E7C064" opacity="1.000000" stroke="none"
	d="
M220.423187,153.899384
	C220.698944,149.342499 222.341949,144.705124 221.786240,140.348206
	C220.563019,130.757675 224.418182,123.406281 230.077484,116.453751
	C230.703598,115.684563 231.362137,114.936211 231.926880,114.123466
	C237.060791,106.735069 236.373215,103.478638 227.536255,101.513161
	C215.399063,98.813675 206.729889,92.346535 200.748535,81.682938
	C199.641006,79.708420 197.738190,78.180000 196.041260,76.131912
	C198.835297,73.945587 201.333038,75.299835 202.645126,77.713341
	C209.740479,90.764809 220.485962,98.414284 235.042023,101.333832
	C239.541595,102.236336 240.468521,105.861526 237.953659,109.894730
	C235.669922,113.557304 233.319138,117.250420 230.484451,120.479286
	C226.710129,124.778458 225.396606,129.515244 225.803299,135.105835
	C226.104065,139.240341 225.915771,143.423096 225.739197,147.575577
	C225.603806,150.759369 224.633041,153.527786 220.423187,153.899384
z"/>
<path fill="#E7BF62" opacity="1.000000" stroke="none"
	d="
M313.377991,153.858673
	C313.338043,149.060303 314.399567,144.192917 313.839539,139.519897
	C312.819061,131.005676 316.018616,124.411591 321.222809,118.231995
	C323.245422,115.830284 324.991211,113.172501 326.668854,110.509018
	C328.778107,107.160309 328.029724,104.457420 324.270569,102.968033
	C320.568634,101.501320 316.878448,99.823647 313.021210,98.969719
	C305.871765,97.386948 300.987457,93.222420 297.052612,87.274963
	C294.520172,83.447220 291.296539,80.076736 288.179871,76.231689
	C290.805542,73.891914 292.971344,75.204529 294.809509,77.437843
	C296.389404,79.357430 297.994934,81.307457 299.228577,83.451454
	C304.030243,91.796379 311.034027,96.644661 320.467407,98.964264
	C332.571960,101.940697 336.073212,104.693565 326.167236,115.483955
	C317.876678,124.514732 317.354614,134.916107 317.969543,145.984528
	C318.159729,149.407486 318.048126,152.796387 313.377991,153.858673
z"/>
<path fill="#E7C062" opacity="1.000000" stroke="none"
	d="
M129.569275,153.221649
	C129.122147,145.876053 128.043762,138.367813 129.360397,131.306122
	C130.287964,126.331131 134.418137,121.931679 137.220245,117.337379
	C138.512329,115.218864 140.124588,113.297585 141.457336,111.201462
	C144.172531,106.931084 143.302216,104.191574 138.495834,102.358093
	C134.775330,100.938820 131.012604,99.495811 127.141426,98.636490
	C120.876534,97.245811 116.647560,93.569183 113.116417,88.405663
	C110.248741,84.212341 106.688805,80.492432 103.230713,76.305054
	C106.355713,73.666870 108.597488,75.553177 110.543938,78.079605
	C113.789032,82.291611 116.726730,86.760948 120.205986,90.763725
	C122.046349,92.881012 124.542503,94.747307 127.118965,95.837181
	C131.997360,97.900826 137.184677,99.219971 142.173691,101.040154
	C147.411865,102.951233 148.781448,106.373436 145.057938,110.525444
	C135.423492,121.268600 131.004547,133.360962 132.913239,147.815308
	C133.131485,149.468048 131.002213,151.430786 129.569275,153.221649
z"/>
<path fill="#E7C062" opacity="1.000000" stroke="none"
	d="
M128.304428,153.845459
	C128.172455,153.566940 128.375946,153.351730 128.866394,153.131836
	C128.908401,153.317917 128.737244,153.578461 128.304428,153.845459
z"/>
<path fill="#ECEFF1" opacity="1.000000" stroke="none"
	d="
M307.010773,236.073608
	C319.780426,233.799042 332.327972,234.483139 344.888306,237.949844
	C378.548889,247.240295 404.584900,279.111145 408.192444,313.862305
	C413.001221,360.185089 381.737610,399.404846 342.455658,409.295074
	C331.690338,412.005493 320.854431,412.981995 309.176392,410.846069
	C308.042267,410.327545 307.583710,410.119293 307.102661,410.020294
	C285.777374,405.631561 268.457245,394.306824 255.461517,377.357452
	C239.087173,356.001587 233.337402,331.550629 239.062439,304.908844
	C244.315628,280.462799 257.356140,261.122040 278.839355,248.309891
	C287.560486,243.108765 297.581329,240.087021 307.010773,236.073608
M298.984558,337.518646
	C293.566467,332.113251 288.127716,326.728363 282.739319,321.293549
	C280.185608,318.717865 277.346863,316.666565 274.224213,319.946167
	C271.196930,323.125549 273.136810,325.926788 275.756195,328.507629
	C283.933533,336.564575 292.015656,344.718109 300.150940,352.817871
	C304.972504,357.618408 306.753174,357.604767 311.649628,352.711517
	C328.831757,335.540649 346.003143,318.359039 363.171722,301.174622
	C364.110107,300.235382 365.639954,299.304596 365.754730,298.246277
	C365.992950,296.049774 366.204926,293.146393 365.009979,291.728149
	C364.104370,290.653320 360.942444,291.112091 358.904419,291.506958
	C357.812195,291.718567 356.962128,293.225616 356.021332,294.166595
	C340.611237,309.580200 325.179962,324.972870 309.841034,340.457001
	C308.581329,341.728607 307.954987,343.627625 306.556244,346.069977
	C303.209869,342.259613 301.347382,340.138916 298.984558,337.518646
z"/>
<path fill="#D6D7D6" opacity="1.000000" stroke="none"
	d="
M306.585266,236.007843
	C297.581329,240.087021 287.560486,243.108765 278.839355,248.309891
	C257.356140,261.122040 244.315628,280.462799 239.062439,304.908844
	C233.337402,331.550629 239.087173,356.001587 255.461517,377.357452
	C268.457245,394.306824 285.777374,405.631561 307.102661,410.020294
	C307.583710,410.119293 308.042267,410.327545 308.771942,410.754395
	C291.275909,409.707886 275.964569,402.399231 262.654572,391.058716
	C240.795319,372.434082 230.109467,348.412354 231.141296,319.758270
	C232.616867,278.781250 261.775085,244.550537 302.674622,236.141510
	C303.802338,235.909653 304.996521,236.001282 306.585266,236.007843
z"/>
<path fill="#05E49B" opacity="1.000000" stroke="none"
	d="
M299.234741,337.768433
	C301.347382,340.138916 303.209869,342.259613 306.556244,346.069977
	C307.954987,343.627625 308.581329,341.728607 309.841034,340.457001
	C325.179962,324.972870 340.611237,309.580200 356.021332,294.166595
	C356.962128,293.225616 357.812195,291.718567 358.904419,291.506958
	C360.942444,291.112091 364.104370,290.653320 365.009979,291.728149
	C366.204926,293.146393 365.992950,296.049774 365.754730,298.246277
	C365.639954,299.304596 364.110107,300.235382 363.171722,301.174622
	C346.003143,318.359039 328.831757,335.540649 311.649628,352.711517
	C306.753174,357.604767 304.972504,357.618408 300.150940,352.817871
	C292.015656,344.718109 283.933533,336.564575 275.756195,328.507629
	C273.136810,325.926788 271.196930,323.125549 274.224213,319.946167
	C277.346863,316.666565 280.185608,318.717865 282.739319,321.293549
	C288.127716,326.728363 293.566467,332.113251 299.234741,337.768433
z"/>
</svg>
