<svg version="1.1" id="Layer_1" xmlns="http://www.w3.org/2000/svg" xmlns:xlink="http://www.w3.org/1999/xlink" x="0px" y="0px"
	 width="100%" viewBox="0 0 512 512" enable-background="new 0 0 512 512" xml:space="preserve">
<path fill="#32BEA6" opacity="1.000000" stroke="none"
	d="
M225.000000,1.000000
	C246.020889,1.000000 267.041779,1.000000 288.311584,1.388191
	C289.238007,2.174269 289.870331,2.781741 290.599731,2.939039
	C304.609863,5.960388 318.790710,8.335957 332.612640,12.049468
	C352.563843,17.409719 371.047394,26.328459 388.846527,36.873772
	C414.368286,51.994469 436.247253,71.338234 455.140350,93.925682
	C469.828247,111.485657 481.851929,130.884262 491.113922,152.006058
	C501.079620,174.732697 508.171417,198.145264 511.081146,222.810532
	C511.174835,223.604752 512.336304,224.273010 513.000000,225.000000
	C513.000000,246.020889 513.000000,267.041779 512.610352,288.313782
	C511.817230,289.408051 511.176880,290.216919 511.049103,291.099976
	C510.275024,296.449982 510.006622,301.901825 508.857086,307.164062
	C502.521698,336.166077 492.437286,363.707428 477.007782,389.234375
	C461.771149,414.442230 442.703735,436.365875 420.154846,455.101654
	C401.989502,470.195129 382.022217,482.683502 360.175964,491.987579
	C338.025452,501.421204 315.242584,508.469757 291.206909,511.082062
	C290.411194,511.168518 289.732971,512.336243 289.000000,513.000000
	C267.979095,513.000000 246.958206,513.000000 225.686905,512.611023
	C224.925430,511.838501 224.455276,511.199707 223.897079,511.110260
	C217.127808,510.025330 210.284866,509.317841 203.577347,507.944397
	C176.497437,502.399597 150.985886,492.500061 127.207237,478.536469
	C102.218620,463.862335 80.434402,445.215820 61.562290,423.140015
	C49.373432,408.881958 38.764236,393.557739 30.097303,376.989380
	C15.920232,349.887421 6.204021,321.290619 2.904606,290.706055
	C2.836661,290.076202 1.659621,289.566010 0.999998,289.000000
	C1.000000,267.645782 1.000000,246.291550 1.380101,224.699829
	C2.835527,219.417191 4.020209,214.392456 4.967942,209.323441
	C10.072671,182.020493 19.328936,156.279587 32.924809,131.999466
	C47.974159,105.123634 67.344559,81.962563 90.574455,61.831284
	C104.355019,49.888912 119.253662,39.594593 135.262802,31.025158
	C162.683243,16.347431 191.746506,6.499959 222.786942,2.919416
	C223.587769,2.827039 224.265091,1.663819 225.000000,1.000000
M371.988525,168.374771
	C380.579132,150.006607 379.475037,132.263397 367.080322,116.159599
	C354.950287,100.399658 338.386078,94.494904 318.811798,98.046082
	C294.374023,102.479614 277.440216,125.557777 279.756226,150.707047
	C280.057617,153.979980 281.293854,157.022369 276.900146,159.518906
	C242.311569,179.172440 207.884979,199.112198 173.505859,219.131012
	C170.471237,220.898056 168.747101,220.474869 166.188751,218.408920
	C158.188263,211.948349 148.871857,208.537994 138.596909,208.095398
	C116.418732,207.140106 96.964333,220.479019 89.813591,241.383682
	C82.864090,261.700043 90.105087,284.140747 107.702728,296.824219
	C125.277626,309.491302 148.897720,309.070770 166.284271,295.471954
	C169.009384,293.340515 170.746658,293.311127 173.618423,294.981140
	C207.001175,314.394318 240.410843,333.763428 273.975464,352.859314
	C278.765961,355.584778 280.503418,358.171844 279.891083,363.986115
	C277.019287,391.253906 298.618500,415.767395 325.912781,416.928650
	C347.842102,417.861664 367.426239,404.723175 374.661957,384.224060
	C381.855286,363.844971 374.599030,340.814606 357.013489,328.210022
	C339.340118,315.542511 315.706146,315.882141 298.433777,329.488831
	C295.386627,331.889252 293.515656,331.458191 290.666840,329.803772
	C258.711609,311.245911 226.810318,292.589478 194.620468,274.445740
	C187.570724,270.472198 184.628937,266.837982 184.415482,257.770721
	C184.167694,247.246704 188.068359,243.096420 196.292297,238.511490
	C228.128723,220.762299 259.535004,202.241348 291.090485,183.988770
	C293.273346,182.726120 294.835083,181.691772 297.610107,183.850555
	C322.675507,203.349731 355.225433,196.744263 371.988525,168.374771
z"/>
<path fill="#000000" opacity="0" stroke="none"
	d="
M513.000000,224.531342
	C512.336304,224.273010 511.174835,223.604752 511.081146,222.810532
	C508.171417,198.145264 501.079620,174.732697 491.113922,152.006058
	C481.851929,130.884262 469.828247,111.485657 455.140350,93.925682
	C436.247253,71.338234 414.368286,51.994469 388.846527,36.873772
	C371.047394,26.328459 352.563843,17.409719 332.612640,12.049468
	C318.790710,8.335957 304.609863,5.960388 290.599731,2.939039
	C289.870331,2.781741 289.238007,2.174269 288.780243,1.388191
	C363.593719,1.000000 438.187408,1.000000 513.000000,1.000000
	C513.000000,75.354088 513.000000,149.708389 513.000000,224.531342
z"/>
<path fill="#000000" opacity="0" stroke="none"
	d="
M0.999998,289.468658
	C1.659621,289.566010 2.836661,290.076202 2.904606,290.706055
	C6.204021,321.290619 15.920232,349.887421 30.097303,376.989380
	C38.764236,393.557739 49.373432,408.881958 61.562290,423.140015
	C80.434402,445.215820 102.218620,463.862335 127.207237,478.536469
	C150.985886,492.500061 176.497437,502.399597 203.577347,507.944397
	C210.284866,509.317841 217.127808,510.025330 223.897079,511.110260
	C224.455276,511.199707 224.925430,511.838501 225.218246,512.611023
	C150.406296,513.000000 75.812599,513.000000 1.000000,513.000000
	C1.000000,438.645905 1.000000,364.291626 0.999998,289.468658
z"/>
<path fill="#000000" opacity="0" stroke="none"
	d="
M289.468658,513.000000
	C289.732971,512.336243 290.411194,511.168518 291.206909,511.082062
	C315.242584,508.469757 338.025452,501.421204 360.175964,491.987579
	C382.022217,482.683502 401.989502,470.195129 420.154846,455.101654
	C442.703735,436.365875 461.771149,414.442230 477.007782,389.234375
	C492.437286,363.707428 502.521698,336.166077 508.857086,307.164062
	C510.006622,301.901825 510.275024,296.449982 511.049103,291.099976
	C511.176880,290.216919 511.817230,289.408051 512.610352,288.782471
	C513.000000,363.593719 513.000000,438.187408 513.000000,513.000000
	C438.645905,513.000000 364.291626,513.000000 289.468658,513.000000
z"/>
<path fill="#000000" opacity="0" stroke="none"
	d="
M224.531342,1.000000
	C224.265091,1.663819 223.587769,2.827039 222.786942,2.919416
	C191.746506,6.499959 162.683243,16.347431 135.262802,31.025158
	C119.253662,39.594593 104.355019,49.888912 90.574455,61.831284
	C67.344559,81.962563 47.974159,105.123634 32.924809,131.999466
	C19.328936,156.279587 10.072671,182.020493 4.967942,209.323441
	C4.020209,214.392456 2.835527,219.417191 1.380101,224.231171
	C1.000000,149.739456 1.000000,75.478920 1.000000,1.000000
	C75.354088,1.000000 149.708389,1.000000 224.531342,1.000000
z"/>
<path fill="#FEFFFF" opacity="1.000000" stroke="none"
	d="
M371.835083,168.713959
	C355.225433,196.744263 322.675507,203.349731 297.610107,183.850555
	C294.835083,181.691772 293.273346,182.726120 291.090485,183.988770
	C259.535004,202.241348 228.128723,220.762299 196.292297,238.511490
	C188.068359,243.096420 184.167694,247.246704 184.415482,257.770721
	C184.628937,266.837982 187.570724,270.472198 194.620468,274.445740
	C226.810318,292.589478 258.711609,311.245911 290.666840,329.803772
	C293.515656,331.458191 295.386627,331.889252 298.433777,329.488831
	C315.706146,315.882141 339.340118,315.542511 357.013489,328.210022
	C374.599030,340.814606 381.855286,363.844971 374.661957,384.224060
	C367.426239,404.723175 347.842102,417.861664 325.912781,416.928650
	C298.618500,415.767395 277.019287,391.253906 279.891083,363.986115
	C280.503418,358.171844 278.765961,355.584778 273.975464,352.859314
	C240.410843,333.763428 207.001175,314.394318 173.618423,294.981140
	C170.746658,293.311127 169.009384,293.340515 166.284271,295.471954
	C148.897720,309.070770 125.277626,309.491302 107.702728,296.824219
	C90.105087,284.140747 82.864090,261.700043 89.813591,241.383682
	C96.964333,220.479019 116.418732,207.140106 138.596909,208.095398
	C148.871857,208.537994 158.188263,211.948349 166.188751,218.408920
	C168.747101,220.474869 170.471237,220.898056 173.505859,219.131012
	C207.884979,199.112198 242.311569,179.172440 276.900146,159.518906
	C281.293854,157.022369 280.057617,153.979980 279.756226,150.707047
	C277.440216,125.557777 294.374023,102.479614 318.811798,98.046082
	C338.386078,94.494904 354.950287,100.399658 367.080322,116.159599
	C379.475037,132.263397 380.579132,150.006607 371.835083,168.713959
z"/>
</svg>
