<svg xmlns="http://www.w3.org/2000/svg" xml:space="preserve" width="0.354165in" height="0.354165in" version="1.1"
     style="shape-rendering:geometricPrecision; text-rendering:geometricPrecision; image-rendering:optimizeQuality; fill-rule:evenodd; clip-rule:evenodd" viewBox="0 0 258.18 258.18">
 <g id="Layer_x0020_1">
  <metadata id="CorelCorpID_0Corel-Layer"/>
   <rect class="fil0" fill="none" width="258.18" height="258.18"/>
   <g id="_1240240768">
   <path fill="#FDCA44"
         d="M87.51 206.18l83.03 0.13c-1.88,-9.44 -14.36,-11.3 -22.57,-15.9 -10.41,-5.83 -11.24,-14.45 -10.92,-27.66l1.99 -0.72c1.5,-0.66 3.8,-0.94 5.92,-3.07 1.29,-1.8 3.09,-4.98 0.85,-6.63 -3.18,-1.2 -9.5,0.54 -15.85,0.58 -7.9,0.05 -11.63,-0.9 -17.67,-1.28 -2.15,1.91 -0.92,4.63 0.64,6.84 1.55,2.27 3.73,3.06 8.16,4.29 0.35,28.94 -11.55,26.46 -23.27,33.37 -5.68,3.35 -8.99,2.39 -10.3,10.06z"/>
     <path fill="#FEEEB1" d="M85.29 34.13c-7.12,19.35 3.16,93.78 25.4,99.4 -12.09,-32.18 -16.55,-63.89 -5.35,-102.31 -6.05,0.55 -16,-0.08 -20.05,2.92z"/>
     <path fill="#FDCA44"
           d="M65.48 41.64c28.98,-6.24 70.43,-11.14 113.72,-2.48 2.24,14.04 -8.26,59.63 -16.2,73.94 -10.41,18.75 -34.33,30.64 -61.3,21.38 -2.16,3.01 3.51,8.41 6.49,11.53 2.38,2.48 2.69,2.44 4.08,5.6 1.59,3.21 9.67,5.57 17.57,5.52 6.35,-0.04 10.71,-1.89 15.95,-4.82 1.03,-6.02 3.04,-5.77 10.84,-13.57 12.39,-12.38 12.39,-19.5 22.81,-24.03 17.91,-6 50.92,-30.52 47.84,-69.02 -6.02,-2.18 -24.7,-1.01 -33.29,-1.54 0.87,-13.33 2.54,-17.54 -22.77,-21.66 -37.71,-6.13 -47.71,-5.89 -84.04,-0.77 -3.32,0.47 -13.79,2.78 -17.21,4.37 -4.91,2.29 -8.82,12.4 -4.5,15.55zm113.48 62.78c15.9,-5.75 39.97,-27.4 40.31,-51.82l-26.48 -0.3c-1.62,21.32 -5.63,32.31 -13.83,52.13z"/>
     <path fill="#FEE267"
           d="M105.08 33.83c-21.09,33.33 -9.99,65.11 5.61,99.7 -5.08,-2.16 -1.3,0.67 -4.56,-3.98 -6.78,-9.66 -12.86,-25.5 -15.46,-37.74 -1.99,-9.35 -5.9,-47.32 -4.59,-55.85l-20.59 4.64c-0.53,1.48 2.04,3.35 -7.12,3.73l-24.58 1.67c6.02,-0.11 12.21,-0.27 18.3,-0.46 15.71,-0.48 13.16,-1.79 15.61,2.27 -1.99,3.96 0.25,2.51 -13.12,2.5 -5.55,-0.01 -10.45,-0.34 -15.64,1.53 -0.68,4.8 -0.34,6.34 2.27,9.65l-1.41 -8.92 27.71 -0.24 0.06 0.9 0.06 0.88 0.07 0.88 0.07 0.87 0.07 0.86 0.07 0.85 0.07 0.84 0.07 0.84 0.08 0.83 0.08 0.82 0.08 0.82 0.09 0.81 0.09 0.81 0.09 0.8 0.09 0.79 0.09 0.79 0.09 0.78 0 0 0.09 0.78 0.1 0.77 0.1 0.76 0.1 0.76 0.01 0 0.1 0.76 0.11 0.75 0.11 0.75 0.11 0.74 0.11 0.74 0.11 0.74 0.12 0.73 0 0 0.12 0.73 0.12 0.73 0.13 0.73 0.13 0.73 0.13 0.72 0.01 0 0.13 0.72 0.13 0.72 0.14 0.72 0.13 0.72 0.01 0 0.14 0.71 0.14 0.71 0 0 0.14 0.71 0.15 0.71 0.14 0.71 0.15 0.71 0.15 0.71 0 0 0.15 0.71 0.01 0 0.15 0.71 0.16 0.71 0.16 0.72 0.16 0.72 0.16 0.72 0 0 0.16 0.72 0.01 0 0.16 0.72 0.01 0 0.17 0.72 0 0 0.17 0.73 0 0 0.17 0.73 0 0 0.17 0.73 0.01 0 0.17 0.74 0.01 0 0.18 0.74 0 0 0.18 0.74 0 0 0.18 0.75 0.01 0 0.18 0.75 0.01 0 0.18 0.76 0.01 0 0.18 0.76 0.01 0 0.19 0.77 0 0 -0 0 -0.06 0.07 -0 0 -0.05 0.07 -0 0 -0.04 0.07 -0.01 0 -0.03 0.07 -0 0 -0.03 0.06 -0.01 0 -0.02 0.06 -0 0 -0.02 0.06 -0.01 0 -0.01 0.06 -0.01 0 -0.01 0.06 -0.01 0 -0.01 0.06 -0.01 0 0 0.05 -0 0 0 0.05 0 0.05 0.01 0.1 0 0 0.01 0.05 0 0 0.01 0.04 0.01 0 0.01 0.04 0.02 0.04 0.02 0.04 0 0 0.02 0.04 0 0 0.01 0.04 0.01 0 0.01 0.03 0.03 0.03 0.04 0.06 0.01 0 0.03 0.05 0 0 0.02 0.02 0.01 0.02 0.03 0.03 0.01 0.02 0 0 0.01 0.01 0 0 0 0.01 0 0.01 -0.01 0.01 -0.01 0 -0.01 0 -0.01 0 -0.02 0 0 -0 -0.02 0 0 -0.01 -0.03 -0 -0.03 -0.01 -0 0 -0.04 -0.01 0 -0.01 -0.05 -0.01 0 -0 -0.05 -0.01 -0.01 0 -0.06 -0.02 0 -0 -0.07 -0.01 -0.07 -0.02 0 -0.01 -0.08 -0.02 0 -0 -0.09 -0.02 -0.1 -0.03 -0.11 -0.03 0 -0.01 -0.11 -0.03 -0.13 -0.03 -0.13 -0.04 -0.15 -0.04 -0.15 -0.04 -0.17 -0.05 -0.17 -0.05 -0.19 -0.05 -0.2 -0.05 -0.21 -0.06c2.17,3.66 9.68,8.48 7.72,12.02 2.42,3.3 3.23,2.97 5.87,6.84 4.49,6.59 11.83,17.04 18.44,21.16 -2.41,-4.94 -0.95,-1.3 0.01,-2.63 28.81,7.41 49.98,-6.04 60.39,-24.79 7.94,-14.31 18.44,-61.73 16.2,-75.76 -27.6,-5.81 -48.3,-4.67 -76.73,-4.82z"/>
     <path fill="#FCB224"
           d="M80.91 113.83c1.96,-3.54 -5.54,-8.36 -7.72,-12.02 -15.44,-10.96 -32.72,-26.13 -32.46,-49.37l14.74 -0.18c13.37,0.01 10.23,-0.49 12.22,-4.45 -2.45,-4.06 1.75,-3.35 -13.96,-2.87 -6.09,0.19 -13.93,0.94 -19.95,1.06 -7.78,10.74 0.13,26.47 12.57,43.36 4.07,4.88 25.15,23.32 34.55,24.47z"/>
     <polygon fill="#ED3237" points="129.79,47.61 138.31,71.72 163.87,72.37 143.57,87.93 150.85,112.44 129.79,97.94 108.72,112.44 116,87.93 95.71,72.37 121.27,71.72 "/>
     <rect fill="#ED3237" x="64.56" y="215.82" width="130.45" height="24.48"/>
  </g>
 </g>
</svg>
