<svg xmlns="http://www.w3.org/2000/svg" xml:space="preserve" width="0.354165in" height="0.354165in" version="1.1"
     style="shape-rendering:geometricPrecision; text-rendering:geometricPrecision; image-rendering:optimizeQuality; fill-rule:evenodd; clip-rule:evenodd" viewBox="0 0 82.68 82.68">
 <g id="Layer_x0020_1">
  <metadata id="CorelCorpID_0Corel-Layer"/>
   <rect fill="none" width="82.68" height="82.68"/>
   <g id="_1243606816">
   <path fill="#0BA280"
         d="M36.01 8.55c0,2.12 1.13,3.59 2.89,4l0 3.11c-1.85,1.24 -3.03,1.29 -4.19,3.15 -0.52,0.84 -0.91,1.26 -1.35,1.46 -0.08,0.04 -11.54,0.22 -12.91,0.29 -6.5,1.46 -11.35,7.24 -11.35,15.33 -2.82,1.35 -4.23,1.79 -4.23,5.78 0,3.13 3.02,4.09 4.23,4.89 0,7.67 3.71,11.92 9.34,14.46 2.08,0.94 4.6,1.11 7.11,1.08 4.36,-0.05 8.62,0.04 12.92,0.01 1.99,-0.01 1.85,-0.12 0.29,4.55l-2.67 8.23c-1.67,4.95 2.68,0.79 5.04,-0.97 1.57,-1.18 3.1,-2.32 4.7,-3.53 3.18,-2.39 6.19,-4.64 9.4,-7.05 0.82,-0.61 1.44,-1.31 2.58,-1.42 4.22,-0.41 5.6,-1.42 8.54,-3.69 0.84,-0.65 1.31,-1.32 1.91,-2.09 2.03,-2.61 2.89,-5.82 2.89,-9.57 2.71,-1.81 4.23,-1.66 4.23,-6 0,-3.08 -2.55,-3.77 -4.23,-4.89 0,-3.2 -0.7,-5.79 -1.85,-7.93 -2.33,-4.34 -7.13,-7.43 -12.37,-7.42 -2.35,0.01 -7,0.24 -8.92,0.09 -0.92,-0.07 -1.72,-0.44 -2.52,-1.54 -2.99,-4.1 -4.13,-0.69 -4.13,-6.33 4.5,-1.05 3.27,-8.01 -1.11,-8.01 -2.24,0 -4.23,1.74 -4.23,4z"/>
     <path fill="#FEFEFE"
           d="M22.09 27.87c-6.21,1.67 -5.43,6.37 -5.43,13.15 0,4.7 -1.14,11.7 5.09,13.37 2.03,0.55 34.07,0.62 36.4,0.11 2.39,-0.53 4.19,-2.15 4.94,-4.19 0.84,-2.29 0.78,-15.66 0.21,-17.67 -0.65,-2.3 -2.33,-4.06 -4.63,-4.71 -2.29,-0.65 -34.24,-0.68 -36.57,-0.06z"/>
     <path fill="#ED3237" d="M49.85 34.07c-5.36,1.13 -3.73,8.67 1.45,7.78 1.9,-0.33 3.57,-2.35 3.06,-4.75 -0.38,-1.82 -2.34,-3.49 -4.52,-3.04z"/>
     <path fill="#ED3237" d="M29.06 34.14c-5.59,1.53 -3.07,9 1.93,7.63 1.79,-0.49 3.31,-2.42 2.69,-4.88 -0.41,-1.66 -2.5,-3.33 -4.62,-2.75z"/>
     <path fill="#ED3237" d="M44.01 45.35c-7.41,0 -10.97,-0.97 -8.06,3.28 1.81,2.65 6.31,2.6 8.19,0.29 0.6,-0.74 2.46,-3.57 -0.12,-3.57z"/>
  </g>
 </g>
</svg>
