<svg xmlns="http://www.w3.org/2000/svg" xml:space="preserve" width="0.354165in" height="0.354165in" version="1.1"
     style="shape-rendering:geometricPrecision; text-rendering:geometricPrecision; image-rendering:optimizeQuality; fill-rule:evenodd; clip-rule:evenodd" viewBox="0 0 49.22 49.22">
 <g id="Layer_x0020_1">
  <metadata id="CorelCorpID_0Corel-Layer"/>
   <rect fill="none" width="49.22" height="49.22"/>
   <path fill="#00AFEF"
         d="M24.09 5.42c-0.74,0.24 -4.9,3.68 -5.66,4.24 -1.9,1.42 -3.7,2.94 -5.6,4.35 -0.5,0.37 -0.88,0.7 -1.37,1.07l-6.97 5.43c-2.03,1.81 0.29,3.55 3.36,1.1l8.4 -6.53c1.9,-1.42 3.7,-2.93 5.6,-4.35 2.09,-1.56 2.74,-1.97 5.04,-0.19l9.77 7.6c0.9,0.72 4.19,3.56 4.98,3.75 0.63,0.57 3.01,2.04 3.8,0.8 0.3,-1.72 -0.35,-1.91 -1.84,-3.06 -0.96,-0.74 -1.83,-1.44 -2.79,-2.18 -0.7,-0.54 -0.87,-0.38 -0.86,-1.62l0 -7.42c0.01,-1.66 -0.21,-1.29 -3.64,-1.31 -1.53,-0.01 -1.18,0.5 -1.18,3.76 0,2.49 -0.48,1.79 -2.18,0.48l-6.97 -5.42c-0.5,-0.39 -1.01,-0.78 -1.87,-0.5z"/>
   <path fill="#EF4D4A"
         d="M12.86 27.6c0.99,-1.41 2.51,-2.37 4.17,-2.71 0.95,-0.2 1.87,-0.16 2.71,0.03 0.97,0.22 1.83,0.64 2.53,1.15 0.47,0.35 0.86,0.76 1.24,1.16 0.11,0.12 0.23,0.25 0.33,0.35 0.33,0.34 0.5,0.3 0.7,0.11 0.11,-0.1 0.24,-0.25 0.38,-0.41 0.71,-0.79 1.7,-1.89 3.72,-2.34 0.93,-0.21 1.87,-0.2 2.74,-0.04 0.95,0.18 1.83,0.55 2.52,1.03 0.58,0.4 1.13,0.91 1.6,1.55 0.47,0.64 0.85,1.42 1.07,2.36 0.21,0.91 0.22,1.81 0.07,2.65 -0.16,0.91 -0.5,1.76 -0.96,2.47 -0.63,0.97 -4.98,5.25 -7.44,7.67 -0.53,0.52 -0.96,0.94 -1.38,1.36 -0.46,0.46 -0.67,0.67 -0.85,0.86 -0.73,0.74 -1.09,1.11 -1.44,1.26 -0.64,0.27 -0.87,0.02 -1.33,-0.5 -0.09,-0.1 -0.2,-0.22 -0.3,-0.32l-8.84 -8.83c-0.49,-0.48 -0.97,-0.98 -1.38,-1.62 -0.42,-0.65 -0.75,-1.44 -0.91,-2.47 -0.28,-1.86 0.18,-3.49 1.07,-4.76z"/>
 </g>
</svg>
