<svg xmlns="http://www.w3.org/2000/svg" xml:space="preserve" width="0.354165in" height="0.354165in" version="1.1" style="shape-rendering:geometricPrecision; text-rendering:geometricPrecision; image-rendering:optimizeQuality; fill-rule:evenodd; clip-rule:evenodd" viewBox="0 0 205.36 205.36">
 <defs>
  <style type="text/css">
   <![CDATA[
    .str0 {stroke:#00A859;stroke-width:4.03;stroke-miterlimit:2.61313}
    .fil0 {fill:none}
    .fil1 {fill:#FFF212}
    .fil6 {fill:#EC268F}
    .fil5 {fill:#00AFEF}
    .fil4 {fill:#00A859}
    .fil3 {fill:#3E4095}
    .fil2 {fill:white}
   ]]>
  </style>
 </defs>
 <g id="Layer_x0020_1">
  <metadata id="CorelCorpID_0Corel-Layer"/>
  <rect class="fil0" width="205.36" height="205.36"/>
  <g id="_1234422272">
   <path class="fil1" d="M185.86 144.3c5.15,-41.55 -40.68,-60.94 -66.99,-35.17 -8.15,7.98 -10.55,15.06 -12.17,29.54 -4.79,42.84 41.98,61.25 67.38,35.84 7.06,-7.07 10.05,-16.29 11.78,-30.22z"/>
   <path class="fil2" d="M103.79 128.65c3.87,-12.08 2.7,-18.77 -4.32,-28.44 -4.8,-6.62 -10.84,-12.53 -22.01,-15.58 -22.15,-6.05 -41.87,8.79 -47.1,24.48 -7.47,22.46 2.15,45.07 14.89,54.45 17.85,13.14 42.95,8 53.18,-7.4 -10.53,-3.24 -14.06,-24.07 5.35,-27.5z"/>
   <path class="fil3 str0" d="M186.49 162.53l3.74 -20.29c11.15,4.65 9.06,19.37 -3.74,20.29zm-0.63 -18.23c-1.73,13.93 -4.72,23.15 -11.78,30.22 -25.4,25.4 -72.18,7 -67.38,-35.84 1.62,-14.48 4.03,-21.56 12.17,-29.54 26.31,-25.77 72.14,-6.38 66.99,35.17zm-83.29 9.45c-11.65,-2.15 -11.85,-18.61 1.08,-20.87l-1.08 20.87zm-78.48 -25.55l3.25 19.99c-12.01,-1.19 -14.15,-16.02 -3.25,-19.99zm79.7 0.44c-19.41,3.44 -15.89,24.26 -5.35,27.5 -10.24,15.4 -35.33,20.54 -53.18,7.4 -12.74,-9.38 -22.36,-31.98 -14.89,-54.45 5.22,-15.69 24.95,-30.53 47.1,-24.48 11.17,3.05 17.21,8.96 22.01,15.58 7.01,9.67 8.18,16.37 4.32,28.44zm-93.87 -22.91c1.68,-2.13 3.29,-4.07 4.98,-7.02 4.63,-8.06 11.99,-16.28 19.8,-6.17 -1.34,3.1 -2.89,4.73 -4.95,7.84l-3.51 6.76c-3.55,5 -12.7,1.43 -16.32,-1.42zm82.57 -19.42c6.34,-15.68 19.52,-0.35 25.85,6.1l0.93 1.03c-1.3,1.1 -8.07,8.16 -14.08,6.29l-12.7 -13.41zm-4.59 -2.03c-4,-0.93 -4.36,-2.13 -8.91,-3.3 -12.5,-3.21 -24.52,-1.67 -35.05,5.11 -2.66,1.71 -3.76,3.45 -6.9,4.29 -1.66,-6.22 -14.8,-10.96 -23.22,2.21 -8.97,14.03 -5.97,7.45 -9.33,12.03 1.02,3.8 2.79,4.54 6.04,6.16 8.24,4.12 9.58,3.08 14.3,1.97 0,5.16 -1.02,5.54 -1.02,11.19 -13.62,3.17 -14.04,23.89 -0.04,27.51 10.51,2.72 4.44,-0.73 12.21,9.15 19.33,24.57 61.94,12.71 66.16,-3.09l2.03 0c3.51,15.07 19.29,31.54 37.64,31.54 15.9,0 25.88,-1.39 36.96,-14.92 1.14,-1.39 1.19,-1.3 2.29,-2.81 6.02,-8.34 1.13,-3.47 9.59,-5.57 14.58,-3.62 12.94,-26.4 -1.03,-27.56 0,-39.07 -41.67,-56.96 -70.79,-34.18 -8.31,6.5 -4.34,7.35 -9.57,8.74 -0.68,-2.91 -1.89,-6.73 -3.05,-9.15 8.45,-0.19 17.66,-5.41 18.31,-13.22 -2.98,-1.43 -2.53,-0.55 -5.42,-2.72 -8.17,-6.13 -5.71,-11.52 -20.01,-11.52 -6.73,0 -7.52,5.45 -11.19,8.14z"/>
   <path class="fil4" d="M31.79 118.16c11.25,2.06 20.47,-16.4 23.12,-20.07 6.02,6.24 29.34,12.09 40.22,10.93 4.77,-0.51 4.25,-0.48 5.01,-3.37 -3.24,-2.26 -12.26,0.34 -26.91,-3.7 -13.08,-3.6 -15.04,-9.02 -21.4,-9.82 -5.92,21.68 -18.79,18.14 -20.04,26.02z"/>
   <path class="fil2" d="M92.5 86.32l12.7 13.41c6.01,1.87 12.78,-5.19 14.08,-6.29l-0.93 -1.03c-6.34,-6.44 -19.51,-21.78 -25.85,-6.1z"/>
   <path class="fil4" d="M113.36 123.96c2.76,4.03 9.27,0.49 14.68,-2.58 4.87,-2.77 8.27,-7.72 11.74,-11.04 8.57,7.45 17.93,14.31 30.35,17.9 9.9,2.86 10.48,2.45 12.36,-0.21 -3.03,-4.44 -6.36,0.26 -23.81,-8.69 -4,-2.05 -6.86,-3.57 -10.14,-6.21 -3.84,-3.08 -5.23,-6.15 -8.76,-8.51 -3.53,1.82 -5.85,7.88 -10.83,11.54 -11.03,8.11 -12.36,3.22 -15.59,7.8z"/>
   <path class="fil2" d="M9.92 105.74c3.62,2.85 12.77,6.42 16.32,1.42l3.51 -6.76c2.07,-3.11 3.61,-4.74 4.95,-7.84 -7.81,-10.11 -15.17,-1.9 -19.8,6.17 -1.69,2.95 -3.31,4.88 -4.98,7.02z"/>
   <path class="fil5" d="M55.26 146.34c-0.43,7.21 8.06,12.59 16.08,11.74 8.4,-0.89 16.22,-9.5 12.49,-14.82 -5.2,1.47 -3.78,9.31 -12.68,10.63 -3.22,0.48 -6.52,-0.46 -8.84,-2.29 -3.84,-3.04 -1.79,-4.9 -7.06,-5.26z"/>
   <path class="fil1" d="M103.64 132.89c-12.93,2.26 -12.72,18.72 -1.08,20.87l1.08 -20.87z"/>
   <path class="fil1" d="M186.49 162.53c12.8,-0.93 14.89,-15.64 3.74,-20.29l-3.74 20.29z"/>
   <path class="fil5" d="M158.34 161.34c-4.35,-0.94 -3.41,7.94 -14.45,7.36 -6.01,-0.32 -7.96,-3.5 -10.1,-7.2 -2.39,-4.13 0.38,-1.66 -3.16,-3.3 -0.85,1.43 -1.84,2.15 -0.22,5.6 2.2,4.69 7.25,8.03 12.65,8.61 7.71,0.84 15.72,-4.77 15.65,-9.72l-0.37 -1.36z"/>
   <path class="fil2" d="M24.08 128.21c-10.9,3.97 -8.76,18.8 3.25,19.99l-3.25 -19.99z"/>
   <path class="fil5" d="M54.33 128.59c-2.47,-1.76 -3.14,-3.34 -6.77,-2.37 -2.86,0.76 -4.48,3.82 -3.03,7.41 1.58,3.92 10.71,6.53 9.8,-5.04z"/>
   <path class="fil5" d="M89.42 121.88c-10.38,-0.35 -9.35,8.94 -4.38,10.39 3.68,1.08 6.06,-1.03 6.73,-3.6 0.9,-3.44 -0.7,-4.4 -2.35,-6.79z"/>
   <path class="fil5" d="M130.66 146.32l2.02 -4.97c-7.88,-14.09 -17.73,8.5 -2.02,4.97z"/>
   <path class="fil5" d="M160.79 149.88l7.12 0.69c6.55,-11.74 -11.39,-14.55 -7.12,-0.69z"/>
  </g>
  <path class="fil6" d="M162.16 7.83l16.92 29.3 16.91 29.3 -33.83 0 -33.83 0 16.92 -29.3 16.91 -29.3zm25.11 9.14l-5.87 33.32 -5.87 33.32 -25.92 -21.75 -25.92 -21.74 31.79 -11.57 31.79 -11.57zm13.36 23.14l-25.92 21.74 -25.92 21.75 -5.88 -33.32 -5.87 -33.32 31.79 11.57 31.79 11.57z"/>
 </g>
</svg>
