<svg version="1.1" id="Layer_1" xmlns="http://www.w3.org/2000/svg" xmlns:xlink="http://www.w3.org/1999/xlink" x="0px" y="0px"
	 width="100%" viewBox="0 0 512 512" enable-background="new 0 0 512 512" xml:space="preserve">
<path fill="#000000" opacity="0" stroke="none"
	d="
M48.000000,513.000000
	C32.341831,513.000000 16.683661,513.000000 1.019118,513.000000
	C1.012745,342.434387 1.012745,171.868774 1.012745,1.000000
	C83.353981,1.000000 165.708328,1.000000 248.811279,1.300542
	C246.401855,4.192927 243.184708,6.716423 240.096130,9.388537
	C227.391983,20.379694 214.704651,31.390570 202.055176,42.444584
	C193.382828,50.023087 184.838257,57.748268 176.138504,65.294838
	C161.846909,77.692039 147.425430,89.939720 133.155975,102.362167
	C123.823219,110.486938 114.734924,118.892395 105.407356,127.023262
	C90.907883,139.662521 76.245544,152.115005 61.753113,164.762253
	C51.949753,173.317444 42.374054,182.133240 32.590008,190.710983
	C27.358065,195.297882 24.836191,203.633026 27.299282,210.554138
	C29.209929,215.922928 34.960278,222.479187 43.114304,222.495270
	C50.546703,222.604813 56.186523,219.253708 61.306286,214.323364
	C65.530945,210.254990 70.306824,206.759003 74.909134,203.472702
	C74.985435,284.968140 74.996964,366.000275 74.991776,447.032410
	C74.990707,463.669891 74.927132,480.307373 74.431046,496.969025
	C67.334831,496.995331 60.697445,496.888214 54.065979,497.039825
	C49.963913,497.133575 46.343395,498.835693 46.107502,503.311646
	C45.939518,506.498993 47.313927,509.767639 48.000000,513.000000
z"/>
<path fill="#000000" opacity="0" stroke="none"
	d="
M453.000000,1.000000
	C472.985870,1.000000 492.971710,1.000000 512.954956,1.000002
	C512.952393,171.666672 512.952393,342.333344 512.952393,513.000000
	C497.582245,513.000000 482.259796,513.000000 466.157471,512.709839
	C468.260803,509.426941 470.011414,506.030518 467.915497,501.969147
	C465.898834,498.061310 462.439575,496.767944 458.046814,496.933502
	C451.739929,497.171234 445.416077,496.958893 439.054718,496.473938
	C439.006683,399.678345 439.002777,303.347534 439.006653,207.016739
	C439.006683,205.686966 439.103851,204.357208 439.467102,203.150879
	C444.622345,207.451614 449.473236,211.620697 454.308014,215.808350
	C459.745636,220.518143 465.530945,223.665695 473.226135,222.089615
	C480.303741,220.640030 484.863770,216.376907 486.780853,209.953003
	C488.917633,202.792755 487.302277,196.007355 481.422943,190.755859
	C477.980682,187.681183 474.547272,184.595657 471.058777,181.573959
	C460.370453,172.315918 449.657471,163.086395 438.965942,153.392090
	C439.005615,111.986473 439.033325,71.034554 439.512878,30.044960
	C442.620209,30.004585 445.285736,30.147181 447.928986,29.965855
	C452.121307,29.678270 455.212402,26.474960 454.943176,22.299429
	C454.484619,15.187422 453.666840,8.098576 453.000000,1.000000
z"/>
<path fill="#B3E59F" opacity="1.000000" stroke="none"
	d="
M439.099487,496.938690
	C445.416077,496.958893 451.739929,497.171234 458.046814,496.933502
	C462.439575,496.767944 465.898834,498.061310 467.915497,501.969147
	C470.011414,506.030518 468.260803,509.426941 465.688782,512.709839
	C326.979095,513.000000 187.958206,513.000000 48.468658,513.000000
	C47.313927,509.767639 45.939518,506.498993 46.107502,503.311646
	C46.343395,498.835693 49.963913,497.133575 54.065979,497.039825
	C60.697445,496.888214 67.334831,496.995331 74.740479,497.260834
	C89.324219,497.598602 103.137192,497.668732 117.419601,497.811584
	C223.558105,497.906555 329.227173,497.932678 434.896240,497.908936
	C436.297394,497.908630 437.698395,497.276123 439.099487,496.938690
z"/>
<path fill="#000000" opacity="0" stroke="none"
	d="
M265.000000,0.999996
	C300.687561,1.000000 336.375122,1.000000 372.844360,1.319491
	C370.076752,5.071683 371.125153,9.509666 371.003479,13.685705
	C370.577881,28.291105 370.926727,30.575422 386.941498,30.547955
	C386.934814,56.307945 386.887695,81.607964 386.496338,106.920441
	C378.853149,100.552658 371.578094,94.144829 364.250214,87.797989
	C349.694702,75.191109 335.050873,62.685593 320.555817,50.009777
	C308.420593,39.397587 296.487366,28.554611 284.371063,17.920456
	C281.108276,15.056777 277.504517,12.581559 273.930054,9.616402
	C272.046265,7.615741 270.299225,5.916626 268.529755,4.241199
	C267.369965,3.143061 266.177734,2.079204 265.000000,0.999996
z"/>
<path fill="#DA4B55" opacity="1.000000" stroke="none"
	d="
M264.533142,0.999996
	C266.177734,2.079204 267.369965,3.143061 268.529755,4.241199
	C270.299225,5.916626 272.046265,7.615741 273.663605,9.891013
	C269.920959,11.610524 265.660858,11.884674 262.839417,14.041093
	C254.945877,20.074089 247.611923,26.845064 240.122620,33.399612
	C231.007751,41.376823 221.991135,49.466278 212.875107,57.442131
	C200.518127,68.253578 188.087799,78.981201 175.725723,89.786850
	C166.731308,97.648819 157.829544,105.616867 148.826813,113.469223
	C136.828949,123.933975 124.753136,134.309326 112.748863,144.766754
	C103.616776,152.722122 94.549416,160.751755 85.443489,168.737213
	C72.848160,179.782684 60.102558,190.662643 47.714447,201.935608
	C42.942520,206.277969 40.775402,212.008453 42.701015,218.697632
	C43.013569,219.783371 42.857437,221.004013 42.917942,222.162308
	C34.960278,222.479187 29.209929,215.922928 27.299282,210.554138
	C24.836191,203.633026 27.358065,195.297882 32.590008,190.710983
	C42.374054,182.133240 51.949753,173.317444 61.753113,164.762253
	C76.245544,152.115005 90.907883,139.662521 105.407356,127.023262
	C114.734924,118.892395 123.823219,110.486938 133.155975,102.362167
	C147.425430,89.939720 161.846909,77.692039 176.138504,65.294838
	C184.838257,57.748268 193.382828,50.023087 202.055176,42.444584
	C214.704651,31.390570 227.391983,20.379694 240.096130,9.388537
	C243.184708,6.716423 246.401855,4.192927 249.279938,1.300542
	C254.022095,1.000000 259.044189,1.000000 264.533142,0.999996
z"/>
<path fill="#FFF0AF" opacity="1.000000" stroke="none"
	d="
M452.531342,1.000000
	C453.666840,8.098576 454.484619,15.187422 454.943176,22.299429
	C455.212402,26.474960 452.121307,29.678270 447.928986,29.965855
	C445.285736,30.147181 442.620209,30.004585 439.208557,29.751427
	C429.952087,29.361115 421.451691,29.226665 412.667236,28.950565
	C411.590729,28.536337 410.798279,28.263763 409.858215,27.635548
	C407.659637,18.274782 405.379883,9.249721 412.000000,1.000000
	C425.354218,1.000000 438.708466,1.000000 452.531342,1.000000
z"/>
<path fill="#FFE07E" opacity="1.000000" stroke="none"
	d="
M411.531342,1.000000
	C405.379883,9.249721 407.659637,18.274782 409.548889,27.916248
	C406.608612,28.705601 403.827667,28.824486 401.052002,29.019239
	C396.333252,29.350334 391.617859,29.729191 386.901062,30.087975
	C370.926727,30.575422 370.577881,28.291105 371.003479,13.685705
	C371.125153,9.509666 370.076752,5.071683 373.313049,1.319491
	C385.687561,1.000000 398.375122,1.000000 411.531342,1.000000
z"/>
<path fill="#75CEF9" opacity="1.000000" stroke="none"
	d="
M116.950172,497.738861
	C103.137192,497.668732 89.324219,497.598602 75.201805,497.236664
	C74.927132,480.307373 74.990707,463.669891 74.991776,447.032410
	C74.996964,366.000275 74.985435,284.968140 74.993622,203.132141
	C76.190109,200.982758 77.238556,199.483856 78.575127,198.314148
	C111.621758,169.392853 144.703323,140.511459 177.769135,111.612076
	C202.568542,89.937508 227.376602,68.272720 252.118668,46.532856
	C255.176804,43.845806 257.884583,42.923035 261.244202,45.966743
	C268.760437,52.776234 276.386383,59.464638 283.795807,66.472824
	C282.225220,68.168655 280.915741,69.696609 279.413666,71.003174
	C267.150543,81.670174 254.836563,92.278656 242.567810,102.939178
	C231.672897,112.405937 220.843292,121.947945 209.935608,131.399918
	C195.773453,143.672043 181.553909,155.877945 167.375778,168.131699
	C158.591125,175.724030 149.933350,183.466248 141.047714,190.937943
	C127.301979,202.496429 118.646736,217.138901 117.266632,234.907211
	C116.097160,249.963715 117.138023,265.191895 117.154175,280.741272
	C117.533714,283.718506 117.959846,286.298553 118.045036,289.149445
	C117.466576,291.535522 117.022980,293.650604 117.021408,295.765991
	C116.971260,363.090271 116.963959,430.414551 116.950172,497.738861
z"/>
<path fill="#DD636E" opacity="1.000000" stroke="none"
	d="
M283.967651,66.202354
	C276.386383,59.464638 268.760437,52.776234 261.244202,45.966743
	C257.884583,42.923035 255.176804,43.845806 252.118668,46.532856
	C227.376602,68.272720 202.568542,89.937508 177.769135,111.612076
	C144.703323,140.511459 111.621758,169.392853 78.575127,198.314148
	C77.238556,199.483856 76.190109,200.982758 74.922928,202.668823
	C70.306824,206.759003 65.530945,210.254990 61.306286,214.323364
	C56.186523,219.253708 50.546703,222.604813 43.114304,222.495270
	C42.857437,221.004013 43.013569,219.783371 42.701015,218.697632
	C40.775402,212.008453 42.942520,206.277969 47.714447,201.935608
	C60.102558,190.662643 72.848160,179.782684 85.443489,168.737213
	C94.549416,160.751755 103.616776,152.722122 112.748863,144.766754
	C124.753136,134.309326 136.828949,123.933975 148.826813,113.469223
	C157.829544,105.616867 166.731308,97.648819 175.725723,89.786850
	C188.087799,78.981201 200.518127,68.253578 212.875107,57.442131
	C221.991135,49.466278 231.007751,41.376823 240.122620,33.399612
	C247.611923,26.845064 254.945877,20.074089 262.839417,14.041093
	C265.660858,11.884674 269.920959,11.610524 273.790833,10.202627
	C277.504517,12.581559 281.108276,15.056777 284.371063,17.920456
	C296.487366,28.554611 308.420593,39.397587 320.555817,50.009777
	C335.050873,62.685593 349.694702,75.191109 364.250214,87.797989
	C371.578094,94.144829 378.853149,100.552658 386.550110,107.272186
	C387.837433,108.772865 388.560883,110.125107 389.642578,111.065063
	C397.373291,117.782776 405.176971,124.416519 413.129120,131.361771
	C421.851868,139.046326 430.402954,146.446075 438.954041,153.845795
	C449.657471,163.086395 460.370453,172.315918 471.058777,181.573959
	C474.547272,184.595657 477.980682,187.681183 481.422943,190.755859
	C487.302277,196.007355 488.917633,202.792755 486.780853,209.953003
	C484.863770,216.376907 480.303741,220.640030 473.226135,222.089615
	C465.530945,223.665695 459.745636,220.518143 454.308014,215.808350
	C449.473236,211.620697 444.622345,207.451614 439.381409,202.810486
	C437.564423,200.766586 436.290283,199.020096 434.703339,197.630936
	C401.298981,168.389374 367.875580,139.169525 334.419769,109.986824
	C317.639313,95.349655 300.787292,80.794563 283.967651,66.202354
z"/>
<path fill="#90D8F9" opacity="1.000000" stroke="none"
	d="
M283.795807,66.472824
	C300.787292,80.794563 317.639313,95.349655 334.419769,109.986824
	C367.875580,139.169525 401.298981,168.389374 434.703339,197.630936
	C436.290283,199.020096 437.564423,200.766586 439.069977,202.687042
	C439.103851,204.357208 439.006683,205.686966 439.006653,207.016739
	C439.002777,303.347534 439.006683,399.678345 439.054718,496.473938
	C437.698395,497.276123 436.297394,497.908630 434.896240,497.908936
	C329.227173,497.932678 223.558105,497.906555 117.419601,497.811584
	C116.963959,430.414551 116.971260,363.090271 117.021408,295.765991
	C117.022980,293.650604 117.466576,291.535522 118.365700,289.318237
	C121.196945,289.868469 123.346771,290.990875 125.540016,291.083374
	C131.670303,291.341797 137.819046,291.221680 143.959595,291.160614
	C149.565796,291.104858 153.065048,288.060120 152.956467,283.481628
	C152.852188,279.084900 149.434860,276.132782 144.106445,276.047852
	C138.464615,275.957916 132.813080,276.199677 127.179420,275.966705
	C123.016846,275.794556 119.710037,277.019287 117.200768,280.344086
	C117.138023,265.191895 116.097160,249.963715 117.266632,234.907211
	C118.646736,217.138901 127.301979,202.496429 141.047714,190.937943
	C149.933350,183.466248 158.591125,175.724030 167.375778,168.131699
	C181.553909,155.877945 195.773453,143.672043 209.935608,131.399918
	C220.843292,121.947945 231.672897,112.405937 242.567810,102.939178
	C254.836563,92.278656 267.150543,81.670174 279.413666,71.003174
	C280.915741,69.696609 282.225220,68.168655 283.795807,66.472824
M268.729004,470.887604
	C278.479218,463.255554 281.024231,452.920959 280.780975,441.103424
	C282.938965,441.069763 285.105652,441.147736 287.253235,440.980591
	C292.768951,440.551392 297.439606,436.314667 297.921478,430.884949
	C298.608063,423.149475 298.778046,415.449799 288.742493,411.004120
	C291.930481,411.004120 293.574707,411.020508 295.218536,411.001404
	C303.481537,410.905304 308.385834,406.029022 308.965607,397.800720
	C309.465881,390.700775 307.138885,385.154938 301.063965,380.357544
	C300.414581,363.482269 306.498047,349.356445 317.724487,336.864441
	C334.300018,318.420349 341.163330,296.658600 338.135345,271.916351
	C333.893433,237.254822 307.902161,209.009384 273.164215,201.909958
	C261.090515,198.998596 249.045425,199.513916 237.131577,202.630463
	C176.752777,218.425018 154.895477,290.009583 196.397324,337.183624
	C207.756836,350.095673 213.237900,364.377350 212.426254,381.691681
	C204.871460,386.137512 203.712341,393.362885 205.331818,400.825684
	C207.301666,409.902954 214.367325,412.201477 223.810699,410.724548
	C216.343826,416.568787 213.496628,425.965240 216.522675,433.643707
	C218.188660,437.871063 221.309158,440.816467 226.261597,441.005890
	C228.918076,441.107483 231.575302,441.189880 234.060150,442.154694
	C233.194092,450.478210 234.503006,458.244019 239.506714,465.227753
	C246.005936,474.298828 258.247620,476.910675 268.729004,470.887604
M250.856155,176.410248
	C253.631134,177.373535 256.699402,179.536316 259.095581,178.950409
	C261.329102,178.404312 264.215302,175.059784 264.428406,172.728973
	C265.107147,165.306351 264.983093,157.764069 264.547760,150.304291
	C264.310760,146.243683 261.337860,143.644226 257.139893,143.549698
	C253.202347,143.461014 249.805328,145.714752 249.695953,149.539719
	C249.446411,158.266022 250.109070,167.018387 250.856155,176.410248
M159.594437,370.219147
	C155.245956,374.919769 154.627243,379.621704 157.924377,382.910553
	C161.300842,386.278534 165.853149,385.591309 170.508469,380.974854
	C174.527878,376.989044 178.566879,373.021271 182.512711,368.963348
	C186.530457,364.831390 186.777420,360.401978 183.315567,357.117371
	C180.079407,354.046967 175.635208,354.335602 171.773270,358.056183
	C167.817337,361.867371 163.992676,365.814850 159.594437,370.219147
M358.138000,378.311615
	C357.211548,375.925934 356.835663,373.058502 355.251617,371.248199
	C351.100525,366.504089 346.500092,362.139648 341.929932,357.779907
	C338.153473,354.177246 333.500793,354.133820 330.413452,357.394775
	C327.338318,360.642731 327.481750,364.757507 331.068115,368.489807
	C335.559906,373.164368 340.116425,377.785522 344.819061,382.246277
	C349.939178,387.103088 355.137848,385.794891 358.138000,378.311615
M170.555695,208.038925
	C175.497528,212.840469 180.065887,213.532043 183.486191,209.996368
	C187.119659,206.240372 186.466522,202.303513 181.277847,197.077103
	C177.177856,192.947266 173.162048,188.720917 168.871002,184.797562
	C165.067642,181.320053 160.896255,181.466064 157.779419,184.721878
	C154.861237,187.770203 155.047745,192.355881 158.423370,195.869370
	C162.224182,199.825424 166.161926,203.649902 170.555695,208.038925
M328.526855,203.149612
	C327.663147,206.963654 329.231567,210.125290 332.545563,211.299286
	C334.860291,212.119308 338.705841,212.033722 340.386932,210.607407
	C346.195648,205.679031 351.569763,200.178589 356.672150,194.502899
	C359.233795,191.653442 358.979645,187.913101 356.347534,184.927948
	C353.718964,181.946747 349.919647,180.867981 347.016022,183.574860
	C340.626038,189.531860 334.822723,196.118179 328.526855,203.149612
M396.037506,279.744019
	C393.807861,278.511902 391.641815,276.380157 389.336609,276.217224
	C382.568604,275.738953 375.741516,275.904755 368.944824,276.087708
	C364.121460,276.217590 360.886047,279.648804 361.052460,283.921204
	C361.211700,288.008698 364.386475,291.042511 368.975708,291.132172
	C375.443298,291.258575 381.916199,291.245880 388.384796,291.153046
	C395.404510,291.052338 397.896088,287.662567 396.037506,279.744019
z"/>
<path fill="#FFE07D" opacity="1.000000" stroke="none"
	d="
M438.965942,153.392105
	C430.402954,146.446075 421.851868,139.046326 413.143433,130.886414
	C412.974518,96.448227 412.962921,62.770222 412.951324,29.092216
	C421.451691,29.226665 429.952087,29.361115 438.756744,29.789095
	C439.033325,71.034554 439.005615,111.986473 438.965942,153.392105
z"/>
<path fill="#FFD064" opacity="1.000000" stroke="none"
	d="
M412.667236,28.950565
	C412.962921,62.770222 412.974518,96.448227 412.971802,130.601593
	C405.176971,124.416519 397.373291,117.782776 389.642578,111.065063
	C388.560883,110.125107 387.837433,108.772865 386.894348,107.259720
	C386.887695,81.607964 386.934814,56.307945 386.941498,30.547955
	C391.617859,29.729191 396.333252,29.350334 401.052002,29.019239
	C403.827667,28.824486 406.608612,28.705601 409.696533,28.271893
	C410.798279,28.263763 411.590729,28.536337 412.667236,28.950565
z"/>
<path fill="#FEE07F" opacity="1.000000" stroke="none"
	d="
M117.154175,280.741272
	C119.710037,277.019287 123.016846,275.794556 127.179420,275.966705
	C132.813080,276.199677 138.464615,275.957916 144.106445,276.047852
	C149.434860,276.132782 152.852188,279.084900 152.956467,283.481628
	C153.065048,288.060120 149.565796,291.104858 143.959595,291.160614
	C137.819046,291.221680 131.670303,291.341797 125.540016,291.083374
	C123.346771,290.990875 121.196945,289.868469 118.706635,289.047363
	C117.959846,286.298553 117.533714,283.718506 117.154175,280.741272
z"/>
<path fill="#FFE07D" opacity="1.000000" stroke="none"
	d="
M273.933777,202.162537
	C307.902161,209.009384 333.893433,237.254822 338.135345,271.916351
	C341.163330,296.658600 334.300018,318.420349 317.724487,336.864441
	C306.498047,349.356445 300.414581,363.482269 300.584320,380.798950
	C288.375702,381.082916 276.646729,380.925507 264.930176,380.316681
	C264.951660,362.233704 265.069153,344.601013 264.886780,326.971405
	C264.845673,322.996643 266.085114,321.670807 270.014648,321.866882
	C273.120544,322.021820 276.268311,321.377777 279.395111,321.065063
	C284.640167,320.540619 287.935333,317.763794 287.895416,313.927246
	C287.853912,309.940948 283.444794,306.129700 278.528046,306.045593
	C272.707947,305.945984 266.884918,306.018646 261.063141,306.019104
	C252.413666,306.019775 243.763016,305.938080 235.115189,306.058685
	C230.510147,306.122925 226.245590,309.956024 226.103882,313.784454
	C225.961563,317.629669 229.329269,320.570099 234.461807,321.058624
	C237.755127,321.372070 241.065353,322.004486 244.341904,321.867798
	C248.173569,321.707977 249.151428,323.233459 249.096542,326.828369
	C248.918808,338.469177 249.064026,350.114685 248.984695,361.757660
	C248.975159,363.158417 248.351532,364.554962 248.011902,365.554443
	C247.805557,364.016724 247.662598,362.862396 247.384399,361.741699
	C244.553497,350.337952 236.920181,341.969330 229.746719,333.186096
	C213.308197,313.058716 208.461105,289.844360 213.712646,264.737305
	C218.890289,239.983551 233.586899,221.902374 255.588913,209.839066
	C261.369202,206.669830 267.801086,204.689056 273.933777,202.162537
z"/>
<path fill="#FFC251" opacity="1.000000" stroke="none"
	d="
M273.549011,202.036240
	C267.801086,204.689056 261.369202,206.669830 255.588913,209.839066
	C233.586899,221.902374 218.890289,239.983551 213.712646,264.737305
	C208.461105,289.844360 213.308197,313.058716 229.746719,333.186096
	C236.920181,341.969330 244.553497,350.337952 247.384399,361.741699
	C247.662598,362.862396 247.805557,364.016724 248.021881,365.979553
	C248.353287,371.443054 248.674133,376.082428 248.741501,380.824097
	C248.317322,380.990051 248.146637,381.053772 247.513245,381.049561
	C235.658768,381.074341 224.267014,381.167053 212.875244,381.259796
	C213.237900,364.377350 207.756836,350.095673 196.397324,337.183624
	C154.895477,290.009583 176.752777,218.425018 237.131577,202.630463
	C249.045425,199.513916 261.090515,198.998596 273.549011,202.036240
z"/>
<path fill="#E4F6FF" opacity="1.000000" stroke="none"
	d="
M247.975937,381.117493
	C248.146637,381.053772 248.317322,380.990051 249.203094,380.902039
	C254.918015,380.841187 259.917877,380.804626 264.917755,380.768066
	C276.646729,380.925507 288.375702,381.082916 300.577759,381.277771
	C307.138885,385.154938 309.465881,390.700775 308.965607,397.800720
	C308.385834,406.029022 303.481537,410.905304 295.218536,411.001404
	C293.574707,411.020508 291.930481,411.004120 288.742493,411.004120
	C298.778046,415.449799 298.608063,423.149475 297.921478,430.884949
	C297.439606,436.314667 292.768951,440.551392 287.253235,440.980591
	C285.105652,441.147736 282.938965,441.069763 279.862671,441.113770
	C271.580841,441.245697 264.217255,441.367218 256.879333,441.368103
	C256.904938,441.247467 256.992889,441.016937 256.932556,440.680969
	C251.965256,436.670532 249.939026,431.494110 250.114532,425.654846
	C250.291565,419.764893 252.249847,414.458160 259.248932,410.994812
	C255.903778,410.994812 254.077057,411.063660 252.257034,410.982544
	C245.352188,410.674927 240.620392,405.819519 239.956680,399.012177
	C239.215988,391.415344 241.140457,385.219177 247.975937,381.117493
z"/>
<path fill="#D3EFFB" opacity="1.000000" stroke="none"
	d="
M247.513245,381.049561
	C241.140457,385.219177 239.215988,391.415344 239.956680,399.012177
	C240.620392,405.819519 245.352188,410.674927 252.257034,410.982544
	C254.077057,411.063660 255.903778,410.994812 259.248932,410.994812
	C252.249847,414.458160 250.291565,419.764893 250.114532,425.654846
	C249.939026,431.494110 251.965256,436.670532 256.472961,440.779114
	C248.793152,441.235779 241.512680,441.258362 234.232193,441.280945
	C231.575302,441.189880 228.918076,441.107483 226.261597,441.005890
	C221.309158,440.816467 218.188660,437.871063 216.522675,433.643707
	C213.496628,425.965240 216.343826,416.568787 223.810699,410.724548
	C214.367325,412.201477 207.301666,409.902954 205.331818,400.825684
	C203.712341,393.362885 204.871460,386.137512 212.650757,381.475739
	C224.267014,381.167053 235.658768,381.074341 247.513245,381.049561
z"/>
<path fill="#375F7E" opacity="1.000000" stroke="none"
	d="
M234.146179,441.717834
	C241.512680,441.258362 248.793152,441.235779 256.533264,441.115051
	C256.992889,441.016937 256.904938,441.247467 256.919373,441.795105
	C257.145905,445.944397 257.084869,449.587799 257.627045,453.139099
	C258.745544,460.465454 263.317993,465.909790 268.114105,471.165955
	C258.247620,476.910675 246.005936,474.298828 239.506714,465.227753
	C234.503006,458.244019 233.194092,450.478210 234.146179,441.717834
z"/>
<path fill="#437091" opacity="1.000000" stroke="none"
	d="
M268.421570,471.026794
	C263.317993,465.909790 258.745544,460.465454 257.627045,453.139099
	C257.084869,449.587799 257.145905,445.944397 256.893768,441.915741
	C264.217255,441.367218 271.580841,441.245697 279.404968,441.160645
	C281.024231,452.920959 278.479218,463.255554 268.421570,471.026794
z"/>
<path fill="#FAE082" opacity="1.000000" stroke="none"
	d="
M250.628632,176.085205
	C250.109070,167.018387 249.446411,158.266022 249.695953,149.539719
	C249.805328,145.714752 253.202347,143.461014 257.139893,143.549698
	C261.337860,143.644226 264.310760,146.243683 264.547760,150.304291
	C264.983093,157.764069 265.107147,165.306351 264.428406,172.728973
	C264.215302,175.059784 261.329102,178.404312 259.095581,178.950409
	C256.699402,179.536316 253.631134,177.373535 250.628632,176.085205
z"/>
<path fill="#FCE081" opacity="1.000000" stroke="none"
	d="
M159.852493,369.960938
	C163.992676,365.814850 167.817337,361.867371 171.773270,358.056183
	C175.635208,354.335602 180.079407,354.046967 183.315567,357.117371
	C186.777420,360.401978 186.530457,364.831390 182.512711,368.963348
	C178.566879,373.021271 174.527878,376.989044 170.508469,380.974854
	C165.853149,385.591309 161.300842,386.278534 157.924377,382.910553
	C154.627243,379.621704 155.245956,374.919769 159.852493,369.960938
z"/>
<path fill="#FCE081" opacity="1.000000" stroke="none"
	d="
M358.094391,378.714874
	C355.137848,385.794891 349.939178,387.103088 344.819061,382.246277
	C340.116425,377.785522 335.559906,373.164368 331.068115,368.489807
	C327.481750,364.757507 327.338318,360.642731 330.413452,357.394775
	C333.500793,354.133820 338.153473,354.177246 341.929932,357.779907
	C346.500092,362.139648 351.100525,366.504089 355.251617,371.248199
	C356.835663,373.058502 357.211548,375.925934 358.094391,378.714874
z"/>
<path fill="#FCE081" opacity="1.000000" stroke="none"
	d="
M170.297897,207.785278
	C166.161926,203.649902 162.224182,199.825424 158.423370,195.869370
	C155.047745,192.355881 154.861237,187.770203 157.779419,184.721878
	C160.896255,181.466064 165.067642,181.320053 168.871002,184.797562
	C173.162048,188.720917 177.177856,192.947266 181.277847,197.077103
	C186.466522,202.303513 187.119659,206.240372 183.486191,209.996368
	C180.065887,213.532043 175.497528,212.840469 170.297897,207.785278
z"/>
<path fill="#FCE081" opacity="1.000000" stroke="none"
	d="
M328.653381,202.798615
	C334.822723,196.118179 340.626038,189.531860 347.016022,183.574860
	C349.919647,180.867981 353.718964,181.946747 356.347534,184.927948
	C358.979645,187.913101 359.233795,191.653442 356.672150,194.502899
	C351.569763,200.178589 346.195648,205.679031 340.386932,210.607407
	C338.705841,212.033722 334.860291,212.119308 332.545563,211.299286
	C329.231567,210.125290 327.663147,206.963654 328.653381,202.798615
z"/>
<path fill="#FEE07F" opacity="1.000000" stroke="none"
	d="
M396.241821,280.090302
	C397.896088,287.662567 395.404510,291.052338 388.384796,291.153046
	C381.916199,291.245880 375.443298,291.258575 368.975708,291.132172
	C364.386475,291.042511 361.211700,288.008698 361.052460,283.921204
	C360.886047,279.648804 364.121460,276.217590 368.944824,276.087708
	C375.741516,275.904755 382.568604,275.738953 389.336609,276.217224
	C391.641815,276.380157 393.807861,278.511902 396.241821,280.090302
z"/>
<path fill="#FFC352" opacity="1.000000" stroke="none"
	d="
M264.930176,380.316681
	C259.917877,380.804626 254.918015,380.841187 249.456573,380.799805
	C248.674133,376.082428 248.353287,371.443054 248.022491,366.378540
	C248.351532,364.554962 248.975159,363.158417 248.984695,361.757660
	C249.064026,350.114685 248.918808,338.469177 249.096542,326.828369
	C249.151428,323.233459 248.173569,321.707977 244.341904,321.867798
	C241.065353,322.004486 237.755127,321.372070 234.461807,321.058624
	C229.329269,320.570099 225.961563,317.629669 226.103882,313.784454
	C226.245590,309.956024 230.510147,306.122925 235.115189,306.058685
	C243.763016,305.938080 252.413666,306.019775 261.063141,306.019104
	C266.884918,306.018646 272.707947,305.945984 278.528046,306.045593
	C283.444794,306.129700 287.853912,309.940948 287.895416,313.927246
	C287.935333,317.763794 284.640167,320.540619 279.395111,321.065063
	C276.268311,321.377777 273.120544,322.021820 270.014648,321.866882
	C266.085114,321.670807 264.845673,322.996643 264.886780,326.971405
	C265.069153,344.601013 264.951660,362.233704 264.930176,380.316681
z"/>
</svg>
