<svg version="1.1" id="Layer_1" xmlns="http://www.w3.org/2000/svg" xmlns:xlink="http://www.w3.org/1999/xlink" x="0px" y="0px"
	 width="100%" viewBox="0 0 512 512" enable-background="new 0 0 512 512" xml:space="preserve">
<path fill="#000000" opacity="0" stroke="none"
	d="
M341.000000,513.000000
	C227.360947,513.000000 114.221886,513.000000 1.041413,513.000000
	C1.041413,342.402588 1.041413,171.805161 1.041413,1.103867
	C171.555725,1.103867 342.111542,1.103867 512.833679,1.103867
	C512.833679,171.666534 512.833679,342.333252 512.833679,513.000000
	C455.805145,513.000000 398.652557,513.000000 341.000000,513.000000
M125.039719,360.996735
	C125.039719,360.996735 124.952316,360.978333 124.991943,361.880829
	C124.279343,370.989777 127.766602,378.449524 133.199142,384.967529
	C132.118027,385.054352 131.036911,385.141205 129.088043,385.074371
	C118.484398,383.351410 107.508148,392.288818 105.449677,402.423950
	C104.245544,408.352661 105.036880,414.695557 105.010223,420.852417
	C104.970093,430.121887 104.999756,439.391663 104.999756,448.833344
	C140.076202,448.833344 174.538223,448.833344 209.929077,448.964905
	C241.618027,448.922729 273.306976,448.880524 305.927826,448.948975
	C340.138031,448.948975 374.348206,448.948975 408.999969,448.948975
	C408.999969,434.749176 408.436371,421.265045 409.168182,407.851624
	C409.820251,395.900238 396.299408,382.289368 383.288513,385.108398
	C382.182159,385.033661 381.075806,384.958923 380.220032,384.259033
	C387.137421,378.006012 389.551178,370.045288 388.960205,360.996704
	C388.960205,360.996704 388.975311,361.084747 389.790192,361.009430
	C397.583679,360.746246 401.131653,356.528351 401.000305,347.682709
	C400.903503,341.164398 396.323883,337.042755 389.043884,336.075623
	C389.028961,329.803284 389.016388,323.530945 388.998535,317.258606
	C388.975220,309.071533 385.148987,305.155304 377.003510,304.055542
	C376.946930,277.995026 376.890381,251.934509 376.963745,224.960907
	C376.975922,194.350601 376.990021,163.740280 376.998901,133.129974
	C377.001251,125.026993 373.008850,120.999596 364.997620,120.999702
	C356.997681,120.999809 353.014587,125.036644 352.998352,133.134781
	C352.948303,158.085175 352.891510,183.035553 352.303833,207.592285
	C349.555359,205.405548 347.109650,202.124435 343.994598,201.262558
	C337.736694,199.531082 332.387543,202.086456 329.159607,208.189758
	C323.640411,201.349579 322.913788,201.001785 314.846893,201.001022
	C309.853485,201.000534 304.859344,200.949310 299.866821,201.014984
	C293.403564,201.100006 289.086792,205.497803 289.009521,212.043228
	C288.927032,219.031738 288.906860,226.020981 288.104218,233.021255
	C287.534515,233.301178 286.990112,233.742599 286.391235,233.836517
	C279.099640,234.980042 276.094879,240.755081 277.008484,249.081665
	C277.553101,254.045471 282.710297,257.890686 289.023773,257.999542
	C289.023773,257.999542 288.932861,257.995789 288.989807,258.882812
	C288.461761,267.649231 292.093018,274.707397 297.202240,280.967346
	C296.123138,281.041229 295.044006,281.115112 293.051910,281.044617
	C290.556549,281.029663 288.059540,280.948639 285.566101,281.010895
	C273.124695,281.321503 259.605194,291.706665 257.310913,304.985260
	C256.872864,304.937469 256.434814,304.889709 255.999634,304.071869
	C254.664917,297.491974 251.156891,292.311127 246.058777,288.007477
	C238.429581,281.567169 229.573608,280.144226 219.232605,281.031677
	C218.154968,280.966156 217.077316,280.900635 216.256454,280.220612
	C222.789795,274.238007 225.448029,266.718964 224.977371,257.999359
	C224.977371,257.999359 224.979584,258.090454 225.795929,258.009949
	C232.586563,257.806885 236.692505,253.567566 237.063828,247.112610
	C237.474915,239.966431 234.931458,235.090729 225.043686,232.075867
	C225.028748,225.602814 225.029251,219.129684 224.994843,212.656723
	C224.955154,205.194946 220.786911,201.044449 213.301376,201.005310
	C208.985977,200.982742 204.648483,201.276794 200.360031,200.936050
	C193.954620,200.427094 188.549911,201.716339 185.321762,207.973694
	C176.758026,196.987595 165.841415,199.708221 161.017212,207.059402
	C161.011581,181.940338 161.023071,156.821243 160.988068,131.702225
	C160.979462,125.526115 156.351562,121.064560 150.066299,120.999710
	C142.235031,120.918930 137.035385,124.777191 137.032364,131.066833
	C137.017181,162.669937 137.110672,194.273087 137.020081,226.819168
	C137.015060,252.826691 137.010040,278.834198 136.207001,304.952484
	C128.897446,305.439148 125.055565,309.438110 125.001862,316.624146
	C124.951073,323.419220 124.906265,330.214386 124.068092,337.000824
	C116.691078,337.283173 112.975906,341.471802 112.999779,349.479706
	C113.021782,356.857056 117.142349,360.833740 125.039719,360.996735
M209.796951,84.637573
	C209.531311,86.567345 209.059814,88.494621 209.036469,90.427322
	C208.946579,97.872505 209.000015,105.319420 209.000015,112.693924
	C199.291794,113.524826 193.224243,118.917282 193.001053,126.398239
	C192.634537,138.682236 196.654587,143.623276 209.000687,145.566437
	C209.000687,153.450531 208.954346,161.414948 209.016663,169.378494
	C209.059509,174.855255 211.066635,176.885300 216.443558,176.984344
	C220.440384,177.057983 224.466034,176.706345 228.432068,177.063522
	C235.766510,177.724091 242.080139,176.956863 244.282150,168.400986
	C244.356995,168.110184 244.689087,167.887360 244.895706,167.628418
	C251.893585,158.858398 265.607880,160.006256 270.442688,170.141327
	C272.941040,175.378571 276.126770,177.693848 281.966888,177.095184
	C286.582886,176.622009 291.286163,177.006775 295.950684,176.998367
	C303.288177,176.985138 304.987671,175.295547 304.997620,167.982269
	C305.007965,160.391098 304.999939,152.799896 304.999939,145.289383
	C314.435089,144.532578 320.659851,139.127701 320.998199,131.972458
	C321.583191,119.601158 317.696350,114.726181 304.999939,112.330124
	C304.999939,104.939659 305.008179,97.469627 304.997589,89.999626
	C304.987213,82.691902 303.293304,81.010948 295.936371,81.002052
	C288.356201,80.992889 280.776031,81.000023 273.280029,81.000023
	C272.555206,71.550575 267.137878,65.330704 259.960663,65.001938
	C247.577393,64.434700 242.746124,68.288742 240.323807,81.000206
	C232.599442,81.000206 224.786636,80.786835 216.998276,81.129440
	C214.643417,81.233025 212.356323,82.877243 209.796951,84.637573
M415.219055,186.229507
	C411.128204,190.346130 407.080994,194.507385 402.932526,198.565109
	C399.668365,201.757843 400.179504,205.898483 401.801788,208.952591
	C403.519226,212.185822 407.472443,214.703232 411.310730,212.061584
	C416.094757,208.769073 420.404144,204.736099 424.672577,200.758896
	C429.327942,196.421158 430.252350,192.407715 427.630615,188.282394
	C424.656921,183.603226 420.205322,184.582169 415.219055,186.229507
M102.479202,253.864777
	C101.087196,254.641937 99.479561,255.186676 98.343964,256.240234
	C95.049736,259.296356 91.936005,262.547821 88.768005,265.739075
	C84.238159,270.302216 83.838036,275.230652 87.658485,279.149506
	C90.817154,282.389526 96.727524,281.763641 100.746964,277.754120
	C103.930489,274.578491 106.954994,271.223480 110.323158,268.258301
	C113.988594,265.031403 113.620903,261.314972 112.097572,257.482178
	C110.478600,253.408752 107.019501,252.772202 102.479202,253.864777
M111.715881,199.217163
	C107.839760,195.339478 103.983040,191.442139 100.081627,187.590057
	C96.714806,184.265793 90.770195,184.003372 87.572105,186.981430
	C84.196602,190.124695 84.293159,195.531311 87.944931,199.398438
	C90.909790,202.538147 94.024765,205.536469 97.084579,208.586044
	C101.596008,213.082321 105.307243,214.244965 109.337746,211.688797
	C113.876053,208.810547 113.676796,204.367401 111.715881,199.217163
M411.017639,275.519318
	C411.958893,276.460022 412.891144,277.409912 413.843018,278.339691
	C417.276459,281.693481 423.070526,282.031799 426.365204,279.078461
	C429.747192,276.046844 429.716980,270.449677 426.125519,266.673645
	C422.687317,263.058777 419.142670,259.540161 415.544128,256.084076
	C411.687225,252.379791 406.315521,252.157364 403.123901,255.423874
	C399.919556,258.703430 400.229309,264.665314 403.813477,268.301239
	C406.032257,270.552094 408.278839,272.775482 411.017639,275.519318
M438.328918,225.000000
	C433.677551,225.000427 429.025085,224.937561 424.375122,225.018143
	C419.157532,225.108597 417.061584,227.357925 417.000702,232.712845
	C416.934021,238.577347 418.879150,240.887314 424.238373,240.976730
	C430.050964,241.073715 435.867340,241.064087 441.680328,240.978806
	C446.786865,240.903900 448.830902,238.814819 448.998383,233.790405
	C449.232452,226.767487 447.305847,225.025818 438.328918,225.000000
M65.843399,237.409302
	C67.768715,238.605331 69.628258,240.683228 71.631622,240.832657
	C77.731834,241.287613 83.889221,241.088074 90.021088,240.971527
	C95.125076,240.874527 96.992310,238.632919 96.999825,233.032425
	C97.007347,227.426285 95.134285,225.156113 90.085991,225.027176
	C85.281311,224.904480 80.471054,224.999710 75.663254,224.999878
	C65.882118,225.000244 64.343773,226.747391 65.843399,237.409302
z"/>
<path fill="#C80A50" opacity="1.000000" stroke="none"
	d="
M209.917572,84.226669
	C212.356323,82.877243 214.643417,81.233025 216.998276,81.129440
	C224.786636,80.786835 232.599442,81.000206 240.323807,81.000206
	C242.746124,68.288742 247.577393,64.434700 259.960663,65.001938
	C267.137878,65.330704 272.555206,71.550575 273.280029,81.000023
	C280.776031,81.000023 288.356201,80.992889 295.936371,81.002052
	C303.293304,81.010948 304.987213,82.691902 304.997589,89.999626
	C305.008179,97.469627 304.999939,104.939659 304.999939,112.330124
	C317.696350,114.726181 321.583191,119.601158 320.998199,131.972458
	C320.659851,139.127701 314.435089,144.532578 304.999939,145.289383
	C304.999939,152.799896 305.007965,160.391098 304.997620,167.982269
	C304.987671,175.295547 303.288177,176.985138 295.950684,176.998367
	C291.286163,177.006775 286.582886,176.622009 281.966888,177.095184
	C276.126770,177.693848 272.941040,175.378571 270.442688,170.141327
	C265.607880,160.006256 251.893585,158.858398 244.895706,167.628418
	C244.689087,167.887360 244.356995,168.110184 244.282150,168.400986
	C242.080139,176.956863 235.766510,177.724091 228.432068,177.063522
	C224.466034,176.706345 220.440384,177.057983 216.443558,176.984344
	C211.066635,176.885300 209.059509,174.855255 209.016663,169.378494
	C208.954346,161.414948 209.000687,153.450531 209.000687,145.566437
	C196.654587,143.623276 192.634537,138.682236 193.001053,126.398239
	C193.224243,118.917282 199.291794,113.524826 209.000015,112.693924
	C209.000015,105.319420 208.946579,97.872505 209.036469,90.427322
	C209.059814,88.494621 209.531311,86.567345 209.917572,84.226669
M233.754898,130.334244
	C234.348160,133.217117 234.110931,136.724838 235.710358,138.850708
	C238.881470,143.065598 242.975662,146.614227 246.856400,150.259277
	C250.965027,154.118378 255.146622,154.123413 259.235809,150.167114
	C265.695221,143.917603 272.045471,137.550552 278.295197,131.091263
	C280.858368,128.442108 282.332977,125.319908 279.920837,121.001678
	C281.958374,116.808083 281.227478,113.099419 277.423126,110.466530
	C273.295807,107.610092 269.533569,108.964081 266.308990,112.347183
	C262.089996,116.773643 257.905029,121.232552 253.728271,125.653305
	C247.835770,121.871353 244.542572,113.311440 236.358749,118.646469
	C232.189789,121.364212 232.324341,125.543633 233.754898,130.334244
z"/>
<path fill="#F9B401" opacity="1.000000" stroke="none"
	d="
M137.005020,304.841736
	C137.010040,278.834198 137.015060,252.826691 137.551178,226.353241
	C145.666107,225.884613 153.249939,225.881897 160.904755,226.325073
	C160.928482,229.153687 160.881226,231.536423 160.456146,233.941040
	C151.620377,235.580460 148.478516,240.113602 149.251221,249.936493
	C148.869736,257.995758 151.140961,261.433533 157.659576,264.531006
	C159.177872,265.252472 160.556015,267.370453 160.985321,269.097717
	C163.256210,278.234161 166.931015,286.361664 175.293350,291.567352
	C191.504456,301.659027 211.873367,296.928650 220.029373,281.181610
	C229.573608,280.144226 238.429581,281.567169 246.058777,288.007477
	C251.156891,292.311127 254.664917,297.491974 255.583252,304.537048
	C235.061996,306.851562 220.340134,319.435822 217.767410,338.892761
	C216.275833,350.173370 216.869247,361.792511 217.370911,373.222168
	C217.474228,375.576355 221.053711,378.180664 223.565063,379.880646
	C225.161972,380.961639 227.744308,380.586914 230.053131,381.182373
	C230.932968,383.275055 231.644440,385.050354 232.030914,386.924194
	C231.133698,387.354828 230.561447,387.686890 229.637238,388.059631
	C218.323288,392.569672 212.154175,401.044891 209.113098,411.727905
	C208.610443,395.363098 199.262772,385.216156 184.566803,385.090271
	C182.634735,384.958832 181.140472,384.900909 179.788727,384.527100
	C185.868896,377.589783 189.113052,369.918549 189.002106,360.972961
	C189.002365,361.006439 188.935410,361.005463 189.318695,360.985138
	C197.029831,359.355286 201.111923,354.918304 200.960938,348.726990
	C200.810303,342.549988 196.471512,338.237701 189.095032,336.540466
	C189.010635,329.768555 189.106613,323.458069 188.953079,317.153625
	C188.809937,311.274872 185.290405,306.845001 179.971283,305.411072
	C174.752197,304.004120 169.619843,306.271057 166.458817,311.386902
	C165.993149,312.140564 165.554825,312.911163 164.834305,314.129822
	C161.924454,306.902649 156.787766,304.606049 149.940338,304.950348
	C145.641266,305.166534 141.317627,304.894653 137.005020,304.841736
z"/>
<path fill="#00A0C8" opacity="1.000000" stroke="none"
	d="
M376.833801,225.873993
	C376.890381,251.934509 376.946930,277.995026 376.631531,304.544098
	C372.215729,307.420776 368.171936,309.808899 364.069427,312.231689
	C360.441772,306.340118 358.036682,305.011932 349.685394,305.001007
	C345.856750,304.996002 342.027130,304.946686 338.199677,305.014069
	C329.929810,305.159698 325.168640,309.855743 325.016632,318.063293
	C324.899536,324.385864 324.904175,330.710724 324.482727,337.043976
	C316.805115,338.685883 312.779053,343.199280 313.034668,349.470093
	C313.290039,355.734741 317.613892,359.898315 325.024017,361.060486
	C324.993683,361.076752 324.952545,361.021576 324.972504,361.452789
	C324.968567,370.833832 328.718170,378.232056 333.980713,384.880981
	C332.053864,385.007812 330.571777,385.079010 328.674255,385.107361
	C321.790070,385.238403 316.506287,387.899780 311.867737,392.357025
	C306.412323,397.599121 305.374603,404.434113 304.231415,410.937408
	C301.780579,406.096100 299.452057,401.665344 297.087372,396.831787
	C297.045349,392.107361 294.872192,389.248505 290.811035,387.504333
	C294.956238,385.582306 297.073364,382.615112 297.029053,378.058960
	C296.922211,367.081116 297.214020,356.095459 296.921875,345.124207
	C296.354767,323.826355 279.066193,306.162964 257.973267,304.992004
	C259.605194,291.706665 273.124695,281.321503 285.566101,281.010895
	C288.059540,280.948639 290.556549,281.029663 293.582153,281.445435
	C299.920837,291.714783 308.982269,296.379883 320.002441,296.904816
	C336.020905,297.667877 348.828735,286.978760 352.340576,270.968811
	C352.839386,268.694794 354.111450,265.693359 355.919220,264.760803
	C363.230835,260.988922 365.500153,257.548584 364.672760,249.020920
	C365.408752,239.645035 361.683441,234.921600 353.096741,233.495911
	C353.088348,230.653656 353.122070,228.257233 353.614624,225.866699
	C361.660187,225.873047 369.247009,225.873520 376.833801,225.873993
z"/>
<path fill="#0A5078" opacity="1.000000" stroke="none"
	d="
M304.353699,411.347931
	C305.374603,404.434113 306.412323,397.599121 311.867737,392.357025
	C316.506287,387.899780 321.790070,385.238403 328.809357,385.402893
	C338.979279,401.519165 357.722046,406.671906 373.323975,397.054108
	C377.680511,394.368469 380.552765,389.275055 384.105896,385.286163
	C396.299408,382.289368 409.820251,395.900238 409.168182,407.851624
	C408.436371,421.265045 408.999969,434.749176 408.999969,448.948975
	C374.348206,448.948975 340.138031,448.948975 305.463043,448.437347
	C304.783417,435.733124 304.568542,423.540527 304.353699,411.347931
z"/>
<path fill="#00A0C8" opacity="1.000000" stroke="none"
	d="
M185.004608,385.163788
	C199.262772,385.216156 208.610443,395.363098 209.049713,412.172546
	C209.024048,424.987915 209.012146,436.910645 209.000259,448.833344
	C174.538223,448.833344 140.076202,448.833344 104.999756,448.833344
	C104.999756,439.391663 104.970093,430.121887 105.010223,420.852417
	C105.036880,414.695557 104.245544,408.352661 105.449677,402.423950
	C107.508148,392.288818 118.484398,383.351410 129.541763,385.499023
	C130.283646,386.690002 130.413681,387.573761 130.882935,388.205658
	C145.302155,407.621826 172.640274,406.073792 185.004608,385.163788
z"/>
<path fill="#C80A50" opacity="1.000000" stroke="none"
	d="
M209.464661,448.899109
	C209.012146,436.910645 209.024048,424.987915 209.099319,412.620605
	C212.154175,401.044891 218.323288,392.569672 229.698685,388.420776
	C231.001648,390.885803 231.637329,393.183014 232.820572,395.151031
	C243.009979,412.098602 267.283875,415.009369 280.893982,396.571533
	C281.002533,402.642883 281.048767,408.257446 281.061584,414.316895
	C281.023315,416.259064 280.921844,417.763458 281.031403,419.252319
	C281.388214,424.102570 284.397736,427.022186 288.952942,427.038208
	C293.550690,427.054382 296.598572,424.187073 296.955414,419.345123
	C297.089325,417.527954 296.926239,415.688904 296.905273,413.401306
	C296.982483,407.706696 297.052979,402.470642 297.123474,397.234558
	C299.452057,401.665344 301.780579,406.096100 304.231384,410.937408
	C304.568542,423.540527 304.783417,435.733124 304.997101,448.382019
	C273.306976,448.880524 241.618027,448.922729 209.464661,448.899109
z"/>
<path fill="#0B5178" opacity="1.000000" stroke="none"
	d="
M281.095001,413.872009
	C281.048767,408.257446 281.002533,402.642883 280.965576,396.198792
	C281.991150,392.953796 283.007477,390.538269 284.084717,387.978058
	C283.338074,387.660156 282.451782,387.282837 281.681763,386.537109
	C287.118286,374.917389 284.753296,362.973206 284.636719,351.297821
	C284.599670,347.588654 281.259521,345.120850 277.313904,345.081726
	C263.854523,344.948120 250.391876,344.919403 236.933075,345.075073
	C232.227539,345.129517 229.060669,348.295593 229.085419,353.025085
	C229.133972,362.306183 229.594635,371.585114 229.884766,380.864929
	C227.744308,380.586914 225.161972,380.961639 223.565063,379.880646
	C221.053711,378.180664 217.474228,375.576355 217.370911,373.222168
	C216.869247,361.792511 216.275833,350.173370 217.767410,338.892761
	C220.340134,319.435822 235.061996,306.851562 255.581818,304.922058
	C256.434814,304.889709 256.872864,304.937469 257.642090,304.988647
	C279.066193,306.162964 296.354767,323.826355 296.921875,345.124207
	C297.214020,356.095459 296.922211,367.081116 297.029053,378.058960
	C297.073364,382.615112 294.956238,385.582306 290.811035,387.504333
	C294.872192,389.248505 297.045349,392.107361 297.087341,396.831787
	C297.052979,402.470642 296.982483,407.706696 296.667725,413.656494
	C291.651703,421.283966 286.164062,421.105621 281.095001,413.872009
z"/>
<path fill="#EEC69F" opacity="1.000000" stroke="none"
	d="
M334.425476,384.825348
	C328.718170,378.232056 324.968567,370.833832 325.343079,361.420135
	C331.030426,359.951416 333.119141,356.527344 333.014740,351.333099
	C332.927887,347.013367 332.897705,342.687317 333.028656,338.369690
	C333.192413,332.970673 336.082153,330.041901 341.413086,329.994141
	C351.717438,329.901855 362.023621,329.912170 372.328247,329.987396
	C377.956482,330.028473 380.830292,332.927643 380.976929,338.617676
	C381.088226,342.936401 380.954163,347.260834 381.015656,351.581543
	C381.099884,357.497864 383.016754,359.695679 389.047607,360.978363
	C389.551178,370.045288 387.137421,378.006012 379.756653,384.666351
	C377.821045,386.146545 376.378601,387.263367 374.871887,388.285431
	C362.397705,396.747040 349.148224,395.606415 334.425476,384.825348
M371.009369,361.907074
	C361.103760,361.907074 351.198181,361.907074 341.272400,361.907074
	C341.744476,370.750275 347.403992,376.839172 355.497101,377.779694
	C362.742706,378.621735 370.123291,373.690521 372.179382,366.398163
	C372.554047,365.069275 372.009583,363.481232 371.009369,361.907074
M353.183777,354.679352
	C354.893372,355.549713 356.746826,357.268616 358.265198,357.011200
	C359.398010,356.819092 360.518066,354.161987 360.882050,352.441498
	C361.318695,350.377625 361.431061,347.977722 360.770142,346.034027
	C360.245117,344.489960 358.362610,342.429749 357.051331,342.406921
	C355.752289,342.384308 353.647156,344.428406 353.264862,345.917572
	C352.623749,348.415009 353.069061,351.191376 353.183777,354.679352
M373.384949,341.953613
	C369.187317,343.277496 367.774963,345.568634 369.899109,347.974640
	C370.738159,348.925049 372.519043,349.740417 373.668304,349.526733
	C374.842255,349.308441 376.707977,347.632996 376.603180,346.807007
	C376.393372,345.153320 375.045654,343.644012 373.384949,341.953613
M338.497528,342.871552
	C338.411865,344.760132 337.818481,346.857269 338.470001,348.442963
	C338.764221,349.159027 341.841675,349.459076 343.088287,348.827118
	C344.093658,348.317444 344.987122,345.096497 344.650635,344.853973
	C343.045837,343.697418 341.004120,343.147125 338.497528,342.871552
z"/>
<path fill="#EEC69F" opacity="1.000000" stroke="none"
	d="
M189.001831,360.939514
	C189.113052,369.918549 185.868896,377.589783 179.503723,384.674011
	C170.393936,392.437317 160.478546,395.929962 149.400269,392.677856
	C143.968140,391.083221 139.117340,387.508270 134.003448,384.829559
	C127.766602,378.449524 124.279343,370.989777 125.343140,361.414703
	C131.039856,359.955841 133.115585,356.523804 133.014252,351.335236
	C132.929916,347.016693 132.898514,342.692078 133.028427,338.375732
	C133.190414,332.993500 136.060043,330.004181 141.396347,329.936829
	C151.696701,329.806763 162.000610,329.818207 172.301498,329.922852
	C177.937408,329.980103 180.825623,332.935486 180.975906,338.579926
	C181.090851,342.897095 180.956085,347.220367 181.015030,351.539764
	C181.096252,357.490143 183.014587,359.705017 189.001831,360.939514
M163.542343,376.338440
	C169.344528,373.467346 172.520248,368.922943 172.919815,362.188660
	C162.079620,362.188660 151.690186,362.188660 141.325104,362.188660
	C140.624283,372.705902 153.279770,381.132324 163.542343,376.338440
M153.002884,348.680481
	C153.009689,350.175812 152.547943,351.898376 153.136398,353.111572
	C153.957672,354.804871 155.563507,356.117584 156.833618,357.593170
	C158.216812,356.062286 159.992920,354.721375 160.854889,352.938477
	C161.506744,351.590179 160.976334,349.677307 160.998474,348.015991
	C161.036484,345.163025 160.628845,342.303650 157.101486,342.218994
	C153.568924,342.134216 152.974335,344.909821 153.002884,348.680481
M172.633102,349.777496
	C175.849304,349.412262 177.691284,347.713715 176.519821,344.491516
	C176.101761,343.341644 174.088547,342.206818 172.746216,342.135010
	C171.654587,342.076630 169.434128,343.785034 169.536240,344.414215
	C169.828995,346.218048 171.047562,347.871674 172.633102,349.777496
M137.178314,344.773407
	C138.363571,346.441620 139.365814,348.324585 140.875992,349.611511
	C141.210526,349.896637 144.160004,348.279114 144.433060,347.173920
	C144.770676,345.807281 143.741196,342.827484 143.003159,342.726288
	C141.268951,342.488464 139.356796,343.547943 137.178314,344.773407
z"/>
<path fill="#EEC69F" opacity="1.000000" stroke="none"
	d="
M298.003418,280.829529
	C292.093018,274.707397 288.461761,267.649231 289.317871,258.357269
	C295.171265,256.665161 297.224487,253.064835 297.029022,247.662018
	C296.872589,243.339233 296.918457,239.004272 297.020386,234.678162
	C297.155823,228.931381 299.984680,226.042419 305.626251,225.999405
	C315.781006,225.921936 325.937012,225.930099 336.091980,225.990112
	C342.034546,226.025238 344.860901,228.886551 344.984619,234.903793
	C345.070129,239.064056 344.985931,243.227570 345.006287,247.389496
	C345.039581,254.199997 346.445984,256.046509 353.013733,258.431885
	C351.277222,279.751740 333.639343,293.581512 313.874237,288.754669
	C308.272888,287.386749 303.276978,283.539612 298.003418,280.829529
M324.484955,257.875946
	C318.081177,257.875946 311.677399,257.875946 305.351501,257.875946
	C304.616241,266.353821 312.836670,274.422089 321.985138,273.809509
	C330.505463,273.238983 337.036743,266.086060 336.316986,257.875854
	C332.728424,257.875854 329.101990,257.875854 324.484955,257.875946
M319.822906,238.288864
	C317.054443,240.833237 315.513000,249.627426 317.942230,251.799957
	C319.112610,252.846603 323.260925,252.753876 323.312805,252.532745
	C324.118683,249.095642 324.925751,245.524826 324.710236,242.048294
	C324.624298,240.661636 322.049286,239.429276 319.822906,238.288864
M340.818787,240.766907
	C339.258789,239.855957 337.734650,238.354767 336.125275,238.257019
	C335.170776,238.199036 333.514130,240.234390 333.235382,241.553040
	C333.017914,242.581863 334.142609,244.554138 335.183929,245.068542
	C338.623413,246.767654 340.394165,244.958771 340.818787,240.766907
M305.384918,237.953613
	C301.187073,239.277634 299.774933,241.568451 301.899139,243.974609
	C302.738159,244.925003 304.519073,245.740417 305.668243,245.526672
	C306.842224,245.308319 308.707977,243.632904 308.603149,242.806992
	C308.393341,241.153320 307.045624,239.644028 305.384918,237.953613
z"/>
<path fill="#EEC69F" opacity="1.000000" stroke="none"
	d="
M225.068253,257.995453
	C225.448029,266.718964 222.789795,274.238007 215.797424,280.642517
	C214.655136,281.526031 213.944138,281.951721 213.292801,282.454651
	C202.925842,290.459320 191.570114,292.325836 179.686172,286.744904
	C167.689407,281.110992 161.520844,271.214264 161.375977,257.848938
	C166.980682,256.676514 169.155426,253.313721 169.021057,248.083389
	C168.905731,243.594162 168.913025,239.097412 169.022736,234.607834
	C169.161743,228.919037 172.033661,226.014542 177.685989,225.972260
	C187.834412,225.896317 197.984207,225.923843 208.132874,225.992920
	C214.052353,226.033218 216.864899,228.902039 216.985168,234.936066
	C217.068039,239.093903 216.985519,243.254776 217.006439,247.414169
	C217.040710,254.230576 218.478714,256.103790 225.068253,257.995453
M192.603195,273.859314
	C202.697922,272.880280 208.370468,267.419861 208.653000,258.146851
	C198.244553,258.146851 187.843536,258.146851 177.443222,258.146851
	C177.384552,266.596832 182.140579,271.717682 192.603195,273.859314
M189.005295,243.815765
	C189.021942,245.809158 188.539246,247.993011 189.205109,249.738785
	C189.792084,251.277740 191.653214,253.306305 192.967545,253.317871
	C194.281830,253.329437 196.249741,251.329742 196.781693,249.809494
	C197.456665,247.880615 197.436401,245.410858 196.856339,243.425491
	C196.293915,241.500504 194.937759,238.790329 193.407333,238.381302
	C190.408752,237.579895 189.145950,240.087555 189.005295,243.815765
M175.236664,245.240387
	C177.084778,244.451431 179.111847,243.893021 180.647278,242.701218
	C181.003143,242.424988 180.067719,239.390656 179.021713,238.712540
	C177.987854,238.042297 174.868317,238.426041 174.738998,238.906281
	C174.236740,240.771378 174.560471,242.858887 175.236664,245.240387
M205.236099,243.043243
	C206.981125,243.831635 208.740829,245.200928 210.464874,245.157410
	C211.296707,245.136414 212.734665,242.410583 212.638229,240.995346
	C212.564407,239.911682 209.898788,237.888657 209.451752,238.144653
	C207.756500,239.115463 206.494919,240.843536 205.236099,243.043243
z"/>
<path fill="#F0C8A0" opacity="1.000000" stroke="none"
	d="
M160.833755,225.879196
	C153.249939,225.881897 145.666107,225.884613 137.624146,225.881775
	C137.110672,194.273087 137.017181,162.669937 137.032364,131.066833
	C137.035385,124.777191 142.235031,120.918930 150.066299,120.999710
	C156.351562,121.064560 160.979462,125.526115 160.988068,131.702225
	C161.023071,156.821243 161.011581,181.940338 161.020844,207.984863
	C160.960907,214.566620 160.897339,220.222916 160.833755,225.879196
z"/>
<path fill="#F0C8A0" opacity="1.000000" stroke="none"
	d="
M376.898773,225.417450
	C369.247009,225.873520 361.660187,225.873047 353.564545,225.408508
	C352.982910,219.291611 352.910126,213.638779 352.837341,207.985947
	C352.891510,183.035553 352.948303,158.085175 352.998352,133.134781
	C353.014587,125.036644 356.997681,120.999809 364.997620,120.999702
	C373.008850,120.999596 377.001251,125.026993 376.998901,133.129974
	C376.990021,163.740280 376.975922,194.350601 376.898773,225.417450
z"/>
<path fill="#0B5178" opacity="1.000000" stroke="none"
	d="
M160.904755,226.325073
	C160.897339,220.222916 160.960907,214.566620 161.093475,208.447571
	C165.841415,199.708221 176.758026,196.987595 185.321762,207.973694
	C188.549911,201.716339 193.954620,200.427094 200.360031,200.936050
	C204.648483,201.276794 208.985977,200.982742 213.301376,201.005310
	C220.786911,201.044449 224.955154,205.194946 224.994843,212.656723
	C225.029251,219.129684 225.028748,225.602814 225.033463,233.009415
	C225.008682,241.992126 224.994141,250.041290 224.979584,258.090454
	C224.979584,258.090454 224.977371,257.999359 225.022812,257.997406
	C218.478714,256.103790 217.040710,254.230576 217.006439,247.414169
	C216.985519,243.254776 217.068039,239.093903 216.985168,234.936066
	C216.864899,228.902039 214.052353,226.033218 208.132874,225.992920
	C197.984207,225.923843 187.834412,225.896317 177.685989,225.972260
	C172.033661,226.014542 169.161743,228.919037 169.022736,234.607834
	C168.913025,239.097412 168.905731,243.594162 169.021057,248.083389
	C169.155426,253.313721 166.980682,256.676514 161.366959,257.888916
	C161.001862,257.974792 161.081284,257.994934 161.067566,257.526337
	C160.980560,249.344879 160.907272,241.632004 160.833969,233.919144
	C160.881226,231.536423 160.928482,229.153687 160.904755,226.325073
z"/>
<path fill="#0B5178" opacity="1.000000" stroke="none"
	d="
M352.570557,207.789124
	C352.910126,213.638779 352.982910,219.291611 353.105774,225.402634
	C353.122070,228.257233 353.088348,230.653656 353.037354,233.968796
	C352.995667,242.608704 352.971191,250.329880 352.977051,258.065735
	C353.007416,258.080414 353.046631,258.025543 353.046631,258.025543
	C346.445984,256.046509 345.039581,254.199997 345.006287,247.389496
	C344.985931,243.227570 345.070129,239.064056 344.984619,234.903793
	C344.860901,228.886551 342.034546,226.025238 336.091980,225.990112
	C325.937012,225.930099 315.781006,225.921936 305.626251,225.999405
	C299.984680,226.042419 297.155823,228.931381 297.020386,234.678162
	C296.918457,239.004272 296.872589,243.339233 297.029022,247.662018
	C297.224487,253.064835 295.171265,256.665161 289.289429,257.913757
	C288.932861,257.995789 289.023773,257.999542 289.043152,257.570923
	C288.994843,249.098145 288.927185,241.054031 288.859497,233.009903
	C288.906860,226.020981 288.927032,219.031738 289.009521,212.043228
	C289.086792,205.497803 293.403564,201.100006 299.866821,201.014984
	C304.859344,200.949310 309.853485,201.000534 314.846893,201.001022
	C322.913788,201.001785 323.640411,201.349579 329.159607,208.189758
	C332.387543,202.086456 337.736694,199.531082 343.994598,201.262558
	C347.109650,202.124435 349.555359,205.405548 352.570557,207.789124
z"/>
<path fill="#0B5178" opacity="1.000000" stroke="none"
	d="
M389.003906,360.987549
	C383.016754,359.695679 381.099884,357.497864 381.015656,351.581543
	C380.954163,347.260834 381.088226,342.936401 380.976929,338.617676
	C380.830292,332.927643 377.956482,330.028473 372.328247,329.987396
	C362.023621,329.912170 351.717438,329.901855 341.413086,329.994141
	C336.082153,330.041901 333.192413,332.970673 333.028656,338.369690
	C332.897705,342.687317 332.927887,347.013367 333.014740,351.333099
	C333.119141,356.527344 331.030426,359.951416 325.323120,360.988922
	C324.952545,361.021576 324.993683,361.076752 325.003967,360.589355
	C324.961090,352.412842 324.907898,344.723694 324.854706,337.034546
	C324.904175,330.710724 324.899536,324.385864 325.016632,318.063293
	C325.168640,309.855743 329.929810,305.159698 338.199677,305.014069
	C342.027130,304.946686 345.856750,304.996002 349.685394,305.001007
	C358.036682,305.011932 360.441772,306.340118 364.069427,312.231689
	C368.171936,309.808899 372.215729,307.420776 376.639648,305.012177
	C385.148987,305.155304 388.975220,309.071533 388.998535,317.258606
	C389.016388,323.530945 389.028961,329.803284 389.033600,337.009094
	C389.007324,345.656647 388.991302,353.370697 388.975311,361.084747
	C388.975311,361.084747 388.960205,360.996704 389.003906,360.987549
z"/>
<path fill="#0B5178" opacity="1.000000" stroke="none"
	d="
M189.002106,360.972961
	C183.014587,359.705017 181.096252,357.490143 181.015030,351.539764
	C180.956085,347.220367 181.090851,342.897095 180.975906,338.579926
	C180.825623,332.935486 177.937408,329.980103 172.301498,329.922852
	C162.000610,329.818207 151.696701,329.806763 141.396347,329.936829
	C136.060043,330.004181 133.190414,332.993500 133.028427,338.375732
	C132.898514,342.692078 132.929916,347.016693 133.014252,351.335236
	C133.115585,356.523804 131.039856,359.955841 125.323334,360.963440
	C124.952316,360.978333 125.039719,360.996735 125.026093,360.566742
	C124.961258,352.427673 124.910042,344.718567 124.858833,337.009491
	C124.906265,330.214386 124.951073,323.419220 125.001862,316.624146
	C125.055565,309.438110 128.897446,305.439148 136.606018,304.897095
	C141.317627,304.894653 145.641266,305.166534 149.940338,304.950348
	C156.787766,304.606049 161.924454,306.902649 164.834305,314.129822
	C165.554825,312.911163 165.993149,312.140564 166.458817,311.386902
	C169.619843,306.271057 174.752197,304.004120 179.971283,305.411072
	C185.290405,306.845001 188.809937,311.274872 188.953079,317.153625
	C189.106613,323.458069 189.010635,329.768555 189.026108,337.004028
	C188.997589,345.622925 188.966507,353.314209 188.935410,361.005463
	C188.935410,361.005463 189.002365,361.006439 189.002106,360.972961
z"/>
<path fill="#0584AB" opacity="1.000000" stroke="none"
	d="
M297.602844,280.898438
	C303.276978,283.539612 308.272888,287.386749 313.874237,288.754669
	C333.639343,293.581512 351.277222,279.751740 353.013733,258.431885
	C353.046631,258.025543 353.007416,258.080414 353.337219,257.963867
	C358.975189,257.187958 362.469482,254.171524 364.624756,249.415009
	C365.500153,257.548584 363.230835,260.988922 355.919220,264.760803
	C354.111450,265.693359 352.839386,268.694794 352.340576,270.968811
	C348.828735,286.978760 336.020905,297.667877 320.002441,296.904816
	C308.982269,296.379883 299.920837,291.714783 294.038635,281.517639
	C295.044006,281.115112 296.123138,281.041229 297.602844,280.898438
z"/>
<path fill="#DD9803" opacity="1.000000" stroke="none"
	d="
M161.010895,257.934814
	C161.520844,271.214264 167.689407,281.110992 179.686172,286.744904
	C191.570114,292.325836 202.925842,290.459320 213.292801,282.454651
	C213.944138,281.951721 214.655136,281.526031 215.669037,280.949768
	C217.077316,280.900635 218.154968,280.966156 219.630981,281.106628
	C211.873367,296.928650 191.504456,301.659027 175.293350,291.567352
	C166.931015,286.361664 163.256210,278.234161 160.985321,269.097717
	C160.556015,267.370453 159.177872,265.252472 157.659576,264.531006
	C151.140961,261.433533 148.869736,257.995758 149.462311,250.219025
	C151.944641,254.951157 155.935455,257.297821 161.081284,257.994934
	C161.081284,257.994934 161.001862,257.974792 161.010895,257.934814
z"/>
<path fill="#F9B401" opacity="1.000000" stroke="none"
	d="
M415.527039,185.978027
	C420.205322,184.582169 424.656921,183.603226 427.630615,188.282394
	C430.252350,192.407715 429.327942,196.421158 424.672577,200.758896
	C420.404144,204.736099 416.094757,208.769073 411.310730,212.061584
	C407.472443,214.703232 403.519226,212.185822 401.801788,208.952591
	C400.179504,205.898483 399.668365,201.757843 402.932526,198.565109
	C407.080994,194.507385 411.128204,190.346130 415.527039,185.978027
z"/>
<path fill="#C80A50" opacity="1.000000" stroke="none"
	d="
M102.798553,253.635406
	C107.019501,252.772202 110.478600,253.408752 112.097572,257.482178
	C113.620903,261.314972 113.988594,265.031403 110.323158,268.258301
	C106.954994,271.223480 103.930489,274.578491 100.746964,277.754120
	C96.727524,281.763641 90.817154,282.389526 87.658485,279.149506
	C83.838036,275.230652 84.238159,270.302216 88.768005,265.739075
	C91.936005,262.547821 95.049736,259.296356 98.343964,256.240234
	C99.479561,255.186676 101.087196,254.641937 102.798553,253.635406
z"/>
<path fill="#0A5078" opacity="1.000000" stroke="none"
	d="
M111.966766,199.516525
	C113.676796,204.367401 113.876053,208.810547 109.337746,211.688797
	C105.307243,214.244965 101.596008,213.082321 97.084579,208.586044
	C94.024765,205.536469 90.909790,202.538147 87.944931,199.398438
	C84.293159,195.531311 84.196602,190.124695 87.572105,186.981430
	C90.770195,184.003372 96.714806,184.265793 100.081627,187.590057
	C103.983040,191.442139 107.839760,195.339478 111.966766,199.516525
z"/>
<path fill="#0A5078" opacity="1.000000" stroke="none"
	d="
M410.765289,275.265259
	C408.278839,272.775482 406.032257,270.552094 403.813477,268.301239
	C400.229309,264.665314 399.919556,258.703430 403.123901,255.423874
	C406.315521,252.157364 411.687225,252.379791 415.544128,256.084076
	C419.142670,259.540161 422.687317,263.058777 426.125519,266.673645
	C429.716980,270.449677 429.747192,276.046844 426.365204,279.078461
	C423.070526,282.031799 417.276459,281.693481 413.843018,278.339691
	C412.891144,277.409912 411.958893,276.460022 410.765289,275.265259
z"/>
<path fill="#C80A50" opacity="1.000000" stroke="none"
	d="
M438.801727,225.000000
	C447.305847,225.025818 449.232452,226.767487 448.998383,233.790405
	C448.830902,238.814819 446.786865,240.903900 441.680328,240.978806
	C435.867340,241.064087 430.050964,241.073715 424.238373,240.976730
	C418.879150,240.887314 416.934021,238.577347 417.000702,232.712845
	C417.061584,227.357925 419.157532,225.108597 424.375122,225.018143
	C429.025085,224.937561 433.677551,225.000427 438.801727,225.000000
z"/>
<path fill="#00A0C8" opacity="1.000000" stroke="none"
	d="
M65.571541,237.088959
	C64.343773,226.747391 65.882118,225.000244 75.663254,224.999878
	C80.471054,224.999710 85.281311,224.904480 90.085991,225.027176
	C95.134285,225.156113 97.007347,227.426285 96.999825,233.032425
	C96.992310,238.632919 95.125076,240.874527 90.021088,240.971527
	C83.889221,241.088074 77.731834,241.287613 71.631622,240.832657
	C69.628258,240.683228 67.768715,238.605331 65.571541,237.088959
z"/>
<path fill="#04355C" opacity="1.000000" stroke="none"
	d="
M333.980713,384.880981
	C349.148224,395.606415 362.397705,396.747040 374.871887,388.285431
	C376.378601,387.263367 377.821045,386.146545 379.631348,384.978943
	C381.075806,384.958923 382.182159,385.033661 383.697205,385.197266
	C380.552765,389.275055 377.680511,394.368469 373.323975,397.054108
	C357.722046,406.671906 338.979279,401.519165 329.224762,385.445740
	C330.571777,385.079010 332.053864,385.007812 333.980713,384.880981
z"/>
<path fill="#0584AB" opacity="1.000000" stroke="none"
	d="
M133.601288,384.898560
	C139.117340,387.508270 143.968140,391.083221 149.400269,392.677856
	C160.478546,395.929962 170.393936,392.437317 179.361206,384.989929
	C181.140472,384.900909 182.634735,384.958832 184.566803,385.090271
	C172.640274,406.073792 145.302155,407.621826 130.882935,388.205658
	C130.413681,387.573761 130.283646,386.690002 129.975647,385.575867
	C131.036911,385.141205 132.118027,385.054352 133.601288,384.898560
z"/>
<path fill="#F0C8A0" opacity="1.000000" stroke="none"
	d="
M288.481873,233.015579
	C288.927185,241.054031 288.994843,249.098145 289.041473,257.616394
	C282.710297,257.890686 277.553101,254.045471 277.008484,249.081665
	C276.094879,240.755081 279.099640,234.980042 286.391235,233.836517
	C286.990112,233.742599 287.534515,233.301178 288.481873,233.015579
z"/>
<path fill="#F0C8A0" opacity="1.000000" stroke="none"
	d="
M225.387756,258.050201
	C224.994141,250.041290 225.008682,241.992126 225.081879,233.476425
	C234.931458,235.090729 237.474915,239.966431 237.063828,247.112610
	C236.692505,253.567566 232.586563,257.806885 225.387756,258.050201
z"/>
<path fill="#F0C8A0" opacity="1.000000" stroke="none"
	d="
M389.382751,361.047089
	C388.991302,353.370697 389.007324,345.656647 389.082214,337.476074
	C396.323883,337.042755 400.903503,341.164398 401.000305,347.682709
	C401.131653,356.528351 397.583679,360.746246 389.382751,361.047089
z"/>
<path fill="#F0C8A0" opacity="1.000000" stroke="none"
	d="
M124.463463,337.005157
	C124.910042,344.718567 124.961258,352.427673 125.018585,360.610748
	C117.142349,360.833740 113.021782,356.857056 112.999779,349.479706
	C112.975906,341.471802 116.691078,337.283173 124.463463,337.005157
z"/>
<path fill="#EEEAEB" opacity="1.000000" stroke="none"
	d="
M234.289612,129.745239
	C232.324341,125.543633 232.189789,121.364212 236.358749,118.646469
	C244.542572,113.311440 247.835770,121.871353 253.728271,125.653305
	C257.905029,121.232552 262.089996,116.773643 266.308990,112.347183
	C269.533569,108.964081 273.295807,107.610092 277.423126,110.466530
	C281.227478,113.099419 281.958374,116.808083 279.532959,121.552933
	C272.688171,128.594727 266.279480,135.134262 259.758148,141.559464
	C254.988037,146.259293 251.108521,146.253235 246.355881,141.663513
	C242.289551,137.736557 238.308426,133.721390 234.289612,129.745239
z"/>
<path fill="#A2032B" opacity="1.000000" stroke="none"
	d="
M234.022247,130.039734
	C238.308426,133.721390 242.289551,137.736557 246.355881,141.663513
	C251.108521,146.253235 254.988037,146.259293 259.758148,141.559464
	C266.279480,135.134262 272.688171,128.594727 279.425537,121.921509
	C282.332977,125.319908 280.858368,128.442108 278.295197,131.091263
	C272.045471,137.550552 265.695221,143.917603 259.235809,150.167114
	C255.146622,154.123413 250.965027,154.118378 246.856400,150.259277
	C242.975662,146.614227 238.881470,143.065598 235.710358,138.850708
	C234.110931,136.724838 234.348160,133.217117 234.022247,130.039734
z"/>
<path fill="#EEC69F" opacity="1.000000" stroke="none"
	d="
M230.053131,381.182373
	C229.594635,371.585114 229.133972,362.306183 229.085419,353.025085
	C229.060669,348.295593 232.227539,345.129517 236.933075,345.075073
	C250.391876,344.919403 263.854523,344.948120 277.313904,345.081726
	C281.259521,345.120850 284.599670,347.588654 284.636719,351.297821
	C284.753296,362.973206 287.118286,374.917389 281.444244,386.747131
	C276.989655,393.714630 271.451721,398.256042 263.984680,400.015167
	C250.315796,403.235352 240.120941,397.885376 232.355911,386.825623
	C231.644440,385.050354 230.932968,383.275055 230.053131,381.182373
M263.451477,374.697327
	C256.055145,374.697327 248.658813,374.697327 241.224365,374.697327
	C242.013687,384.514679 249.284836,391.156433 257.782898,390.599823
	C266.377716,390.036926 273.007263,382.994965 272.287384,374.696899
	C269.703796,374.696899 267.068359,374.696899 263.451477,374.697327
M253.002899,362.324036
	C253.012070,362.986328 252.751480,363.864044 253.077972,364.272949
	C254.362610,365.881897 255.831924,367.343353 257.232697,368.859528
	C258.483521,367.188324 259.839233,365.581512 260.927002,363.810211
	C261.297394,363.207062 261.047485,362.185944 260.988037,361.362518
	C260.751556,358.087616 262.120422,353.298584 256.964294,353.339844
	C251.840286,353.380859 253.271530,358.169617 253.002899,362.324036
M244.437271,355.186279
	C242.745926,354.613770 240.845001,353.305817 239.431595,353.708618
	C238.360413,354.013855 237.081192,356.725433 237.414993,357.952606
	C237.756577,359.208344 239.949966,359.960358 241.332748,360.932892
	C242.482437,359.244171 243.632126,357.555450 244.437271,355.186279
M276.000916,354.534271
	C273.996063,354.545319 271.911102,354.264008 270.043488,354.775879
	C269.584900,354.901550 269.242462,358.016052 269.925201,359.030609
	C270.629150,360.076599 273.667114,360.994324 273.918945,360.655670
	C275.091400,359.079071 275.652466,357.047791 276.000916,354.534271
z"/>
<path fill="#A2032B" opacity="1.000000" stroke="none"
	d="
M232.030914,386.924194
	C240.120941,397.885376 250.315796,403.235352 263.984680,400.015167
	C271.451721,398.256042 276.989655,393.714630 281.327942,387.115540
	C282.451782,387.282837 283.338074,387.660156 284.084717,387.978058
	C283.007477,390.538269 281.991150,392.953796 280.903259,395.742004
	C267.283875,415.009369 243.009979,412.098602 232.820572,395.151031
	C231.637329,393.183014 231.001648,390.885803 230.050659,388.380066
	C230.561447,387.686890 231.133698,387.354828 232.030914,386.924194
z"/>
<path fill="#F0C8A0" opacity="1.000000" stroke="none"
	d="
M161.067566,257.526337
	C155.935455,257.297821 151.944641,254.951157 149.528793,249.771179
	C148.478516,240.113602 151.620377,235.580460 160.456146,233.941040
	C160.907272,241.632004 160.980560,249.344879 161.067566,257.526337
z"/>
<path fill="#F0C8A0" opacity="1.000000" stroke="none"
	d="
M189.318695,360.985138
	C188.966507,353.314209 188.997589,345.622925 189.097595,337.468079
	C196.471512,338.237701 200.810303,342.549988 200.960938,348.726990
	C201.111923,354.918304 197.029831,359.355286 189.318695,360.985138
z"/>
<path fill="#EEC69F" opacity="1.000000" stroke="none"
	d="
M324.482727,337.043976
	C324.907898,344.723694 324.961090,352.412842 325.034302,360.573120
	C317.613892,359.898315 313.290039,355.734741 313.034668,349.470093
	C312.779053,343.199280 316.805115,338.685883 324.482727,337.043976
z"/>
<path fill="#EEC69F" opacity="1.000000" stroke="none"
	d="
M364.672760,249.020920
	C362.469482,254.171524 358.975189,257.187958 353.306885,257.949158
	C352.971191,250.329880 352.995667,242.608704 353.079529,234.414642
	C361.683441,234.921600 365.408752,239.645035 364.672760,249.020920
z"/>
<path fill="#A2032B" opacity="1.000000" stroke="none"
	d="
M281.061584,414.316895
	C286.164062,421.105621 291.651703,421.283966 296.661011,414.115021
	C296.926239,415.688904 297.089325,417.527954 296.955414,419.345123
	C296.598572,424.187073 293.550690,427.054382 288.952942,427.038208
	C284.397736,427.022186 281.388214,424.102570 281.031403,419.252319
	C280.921844,417.763458 281.023315,416.259064 281.061584,414.316895
z"/>
<path fill="#C90E52" opacity="1.000000" stroke="none"
	d="
M371.449402,361.959961
	C372.009583,363.481232 372.554047,365.069275 372.179382,366.398163
	C370.123291,373.690521 362.742706,378.621735 355.497101,377.779694
	C347.403992,376.839172 341.744476,370.750275 341.272400,361.907074
	C351.198181,361.907074 361.103760,361.907074 371.449402,361.959961
z"/>
<path fill="#D3AB83" opacity="1.000000" stroke="none"
	d="
M353.120483,354.264862
	C353.069061,351.191376 352.623749,348.415009 353.264862,345.917572
	C353.647156,344.428406 355.752289,342.384308 357.051331,342.406921
	C358.362610,342.429749 360.245117,344.489960 360.770142,346.034027
	C361.431061,347.977722 361.318695,350.377625 360.882050,352.441498
	C360.518066,354.161987 359.398010,356.819092 358.265198,357.011200
	C356.746826,357.268616 354.893372,355.549713 353.120483,354.264862
z"/>
<path fill="#0B5178" opacity="1.000000" stroke="none"
	d="
M373.776337,342.014343
	C375.045654,343.644012 376.393372,345.153320 376.603180,346.807007
	C376.707977,347.632996 374.842255,349.308441 373.668304,349.526733
	C372.519043,349.740417 370.738159,348.925049 369.899109,347.974640
	C367.774963,345.568634 369.187317,343.277496 373.776337,342.014343
z"/>
<path fill="#0B5178" opacity="1.000000" stroke="none"
	d="
M338.807678,342.626343
	C341.004120,343.147125 343.045837,343.697418 344.650635,344.853973
	C344.987122,345.096497 344.093658,348.317444 343.088287,348.827118
	C341.841675,349.459076 338.764221,349.159027 338.470001,348.442963
	C337.818481,346.857269 338.411865,344.760132 338.807678,342.626343
z"/>
<path fill="#C90E52" opacity="1.000000" stroke="none"
	d="
M163.194260,376.515411
	C153.279770,381.132324 140.624283,372.705902 141.325104,362.188660
	C151.690186,362.188660 162.079620,362.188660 172.919815,362.188660
	C172.520248,368.922943 169.344528,373.467346 163.194260,376.515411
z"/>
<path fill="#D3AB83" opacity="1.000000" stroke="none"
	d="
M153.004135,348.246033
	C152.974335,344.909821 153.568924,342.134216 157.101486,342.218994
	C160.628845,342.303650 161.036484,345.163025 160.998474,348.015991
	C160.976334,349.677307 161.506744,351.590179 160.854889,352.938477
	C159.992920,354.721375 158.216812,356.062286 156.833618,357.593170
	C155.563507,356.117584 153.957672,354.804871 153.136398,353.111572
	C152.547943,351.898376 153.009689,350.175812 153.004135,348.246033
z"/>
<path fill="#0B5178" opacity="1.000000" stroke="none"
	d="
M172.267639,349.680908
	C171.047562,347.871674 169.828995,346.218048 169.536240,344.414215
	C169.434128,343.785034 171.654587,342.076630 172.746216,342.135010
	C174.088547,342.206818 176.101761,343.341644 176.519821,344.491516
	C177.691284,347.713715 175.849304,349.412262 172.267639,349.680908
z"/>
<path fill="#0B5178" opacity="1.000000" stroke="none"
	d="
M137.347488,344.427917
	C139.356796,343.547943 141.268951,342.488464 143.003159,342.726288
	C143.741196,342.827484 144.770676,345.807281 144.433060,347.173920
	C144.160004,348.279114 141.210526,349.896637 140.875992,349.611511
	C139.365814,348.324585 138.363571,346.441620 137.347488,344.427917
z"/>
<path fill="#C90E52" opacity="1.000000" stroke="none"
	d="
M324.980225,257.875916
	C329.101990,257.875854 332.728424,257.875854 336.316986,257.875854
	C337.036743,266.086060 330.505463,273.238983 321.985138,273.809509
	C312.836670,274.422089 304.616241,266.353821 305.351501,257.875946
	C311.677399,257.875946 318.081177,257.875946 324.980225,257.875916
z"/>
<path fill="#D3AB83" opacity="1.000000" stroke="none"
	d="
M320.215149,238.207764
	C322.049286,239.429276 324.624298,240.661636 324.710236,242.048294
	C324.925751,245.524826 324.118683,249.095642 323.312805,252.532745
	C323.260925,252.753876 319.112610,252.846603 317.942230,251.799957
	C315.513000,249.627426 317.054443,240.833237 320.215149,238.207764
z"/>
<path fill="#0B5178" opacity="1.000000" stroke="none"
	d="
M340.884583,241.150284
	C340.394165,244.958771 338.623413,246.767654 335.183929,245.068542
	C334.142609,244.554138 333.017914,242.581863 333.235382,241.553040
	C333.514130,240.234390 335.170776,238.199036 336.125275,238.257019
	C337.734650,238.354767 339.258789,239.855957 340.884583,241.150284
z"/>
<path fill="#0B5178" opacity="1.000000" stroke="none"
	d="
M305.776306,238.014374
	C307.045624,239.644028 308.393341,241.153320 308.603149,242.806992
	C308.707977,243.632904 306.842224,245.308319 305.668243,245.526672
	C304.519073,245.740417 302.738159,244.925003 301.899139,243.974609
	C299.774933,241.568451 301.187073,239.277634 305.776306,238.014374
z"/>
<path fill="#C90E52" opacity="1.000000" stroke="none"
	d="
M192.198547,273.837585
	C182.140579,271.717682 177.384552,266.596832 177.443222,258.146851
	C187.843536,258.146851 198.244553,258.146851 208.653000,258.146851
	C208.370468,267.419861 202.697922,272.880280 192.198547,273.837585
z"/>
<path fill="#D3AB83" opacity="1.000000" stroke="none"
	d="
M189.011047,243.380249
	C189.145950,240.087555 190.408752,237.579895 193.407333,238.381302
	C194.937759,238.790329 196.293915,241.500504 196.856339,243.425491
	C197.436401,245.410858 197.456665,247.880615 196.781693,249.809494
	C196.249741,251.329742 194.281830,253.329437 192.967545,253.317871
	C191.653214,253.306305 189.792084,251.277740 189.205109,249.738785
	C188.539246,247.993011 189.021942,245.809158 189.011047,243.380249
z"/>
<path fill="#0B5178" opacity="1.000000" stroke="none"
	d="
M174.906723,245.052002
	C174.560471,242.858887 174.236740,240.771378 174.738998,238.906281
	C174.868317,238.426041 177.987854,238.042297 179.021713,238.712540
	C180.067719,239.390656 181.003143,242.424988 180.647278,242.701218
	C179.111847,243.893021 177.084778,244.451431 174.906723,245.052002
z"/>
<path fill="#0B5178" opacity="1.000000" stroke="none"
	d="
M205.153625,242.665833
	C206.494919,240.843536 207.756500,239.115463 209.451752,238.144653
	C209.898788,237.888657 212.564407,239.911682 212.638229,240.995346
	C212.734665,242.410583 211.296707,245.136414 210.464874,245.157410
	C208.740829,245.200928 206.981125,243.831635 205.153625,242.665833
z"/>
<path fill="#C90E52" opacity="1.000000" stroke="none"
	d="
M263.942200,374.697113
	C267.068359,374.696899 269.703796,374.696899 272.287384,374.696899
	C273.007263,382.994965 266.377716,390.036926 257.782898,390.599823
	C249.284836,391.156433 242.013687,384.514679 241.224365,374.697327
	C248.658813,374.697327 256.055145,374.697327 263.942200,374.697113
z"/>
<path fill="#D3AB83" opacity="1.000000" stroke="none"
	d="
M253.002670,361.880463
	C253.271530,358.169617 251.840286,353.380859 256.964294,353.339844
	C262.120422,353.298584 260.751556,358.087616 260.988037,361.362518
	C261.047485,362.185944 261.297394,363.207062 260.927002,363.810211
	C259.839233,365.581512 258.483521,367.188324 257.232697,368.859528
	C255.831924,367.343353 254.362610,365.881897 253.077972,364.272949
	C252.751480,363.864044 253.012070,362.986328 253.002670,361.880463
z"/>
<path fill="#0B5178" opacity="1.000000" stroke="none"
	d="
M244.609543,355.526520
	C243.632126,357.555450 242.482437,359.244171 241.332764,360.932892
	C239.949966,359.960358 237.756577,359.208344 237.414993,357.952606
	C237.081192,356.725433 238.360413,354.013855 239.431595,353.708618
	C240.845001,353.305817 242.745926,354.613770 244.609543,355.526520
z"/>
<path fill="#0B5178" opacity="1.000000" stroke="none"
	d="
M276.216553,354.856720
	C275.652466,357.047791 275.091400,359.079071 273.918945,360.655670
	C273.667114,360.994324 270.629150,360.076599 269.925201,359.030609
	C269.242462,358.016052 269.584900,354.901550 270.043488,354.775879
	C271.911102,354.264008 273.996063,354.545319 276.216553,354.856720
z"/>
</svg>
